<ttFont>
          <CharString index="0">
            -29 callgsubr
            -110 -67 -86 -122 -152 97 -112 155 -102 callsubr
            84 return
          </CharString>
          <CharString index="1">
            342 -106 callgsubr
            return
          </CharString>
          <CharString index="2">
            -2 -11 -11 0 -9 hhcurveto
            -117 -51 80 101 89 40 41 51 49 29 -33 -77 hvcurveto
            -72 97 70 vlineto
            return
          </CharString>
          <CharString index="3">
            103 62 -43 -81 -70 -49 -37 -71 -42 -36 10 16 -31 hvcurveto
            -86 -11 callgsubr
            return
          </CharString>
          <CharString index="4">
            hhcurveto
            72 57 26 42 29 hvcurveto
            -187 -3 callgsubr
            return
          </CharString>
          <CharString index="5">
            -43 callsubr
            hvcurveto
            -102 callgsubr
            return
          </CharString>
          <CharString index="6">
            188 -278 rlineto
            117 hlineto
            -185 268 rlineto
            -5 34 51 -4 72 hhcurveto
            return
          </CharString>
          <CharString index="7">
            -82 -95 -131 -133 80 -99 138 -19 callgsubr
            return
          </CharString>
          <CharString index="8">
            -6 -12 -13 -2 -11 hhcurveto
            -36 -27 24 39 40 28 34 50 70 34 -51 -69 -110 -83 -69 -123 -121 -94 80 102 -28 hvcurveto
            4 11 2 1 4 hvcurveto
            80 9 24 52 85 vvcurveto
            return
          </CharString>
          <CharString index="9">
            112 callsubr
            rcurveline
            -95 callgsubr
            return
          </CharString>
          <CharString index="10">
            32 24 22 34 53 vvcurveto
            85 -70 63 -106 -104 -67 -75 -80 -59 27 -45 42 -30 vhcurveto
            -67 -28 -59 -52 -84 -85 callgsubr
            return
          </CharString>
          <CharString index="11">
            -88 callsubr
            65 16 15 -3 -4 13 vhcurveto
            -392 97 -14 callsubr
          </CharString>
          <CharString index="12">
            rmoveto
            -245 hlineto
            95 12 55 47 64 hhcurveto
            73 39 -50 -74 2 hvcurveto
            63 -193 rmoveto
            -24 -34 -52 -14 -49 hhcurveto
            -92 -66 47 89 -14 hvcurveto
            333 hlineto
            3 17 3 33 15 vvcurveto
            156 -85 79 -126 -128 -99 -94 -167 -151 99 -106 159 47 64 11 21 37 vhcurveto
            endchar
          </CharString>
          <CharString index="13">
            -89 callgsubr
            endchar
          </CharString>
          <CharString index="14">
            rmoveto
            11 34 rlineto
            87 265 11 46 0 vvcurveto
            0 10 -46 86 -265 vhcurveto
            11 -34 rlineto
            81 -251 rmoveto
            110 hlineto
            -230 674 rlineto
            -135 hlineto
            -233 -674 rlineto
            109 hlineto
            54 165 rlineto
            272 hlineto
            endchar
          </CharString>
          <CharString index="15">
            -137 97 -47 callgsubr
            -7 0 1 -6 -79 callgsubr
            -75 75 -113 -66 callgsubr
            133 vlineto
            endchar
          </CharString>
          <CharString index="16">
            -80 87 -237 -163 hlineto
            -20 22 -27 14 -33 4 rrcurveto
            56 16 40 45 70 vvcurveto
            89 -63 59 -117 -37 -41 -9 -10 -25 vhcurveto
            -89 vlineto
            13 24 38 11 37 hhcurveto
            59 28 -27 -48 -48 -33 -31 -67 hvcurveto
            -32 -84 37 hlineto
            83 33 -35 -50 -75 -60 -24 -52 -45 -37 11 21 -41 hvcurveto
            -90 vlineto
            -15 36 45 -9 45 hhcurveto
            134 69 73 97 6 0 6 -1 6 hvcurveto
            130 -252 96 570 return
          </CharString>
          <CharString index="17">
            -86 callgsubr
            -132 -91 -89 -122 return
          </CharString>
          <CharString index="18">
            rlineto
            117 hlineto
            -214 273 11 1 rlineto
            93 9 61 55 96 vvcurveto
            136 302 -271 vlineto
            -63 -44 -36 -52 -56 -39 37 58 58 40 40 56 8 12 0 -3 9 vhcurveto
            76 vlineto
            2 -11 -16 2 -15 hhcurveto
            -96 -80 -67 -105 -105 78 -68 94 44 38 13 27 30 hvcurveto
            -165 98 -14 callsubr
          </CharString>
          <CharString index="19">
            79 vlineto
            -87 callgsubr
            return
          </CharString>
          <CharString index="20">
            vvcurveto
            -141 106 -83 159 53 62 16 17 33 vhcurveto
            88 vlineto
            -19 -30 -60 -20 -53 hhcurveto
            -100 -71 48 91 95 76 51 114 20 39 -2 -4 19 hvcurveto
            return
          </CharString>
          <CharString index="21">
            -80 128 -218 hlineto
            -27 -7 -17 -22 -29 vvcurveto
            -25 13 -31 15 -34 vhcurveto
            28 -63 rlineto
            83 130 return
          </CharString>
          <CharString index="22">
            68 -43 -56 35 -78 hhcurveto
            -30 -31 -5 120 callsubr
            3 9 31 5 22 hhcurveto
            54 36 -20 -39 32 hvcurveto
            92 -116 -38 34 rlineto
            71 -81 -40 21 -62 hhcurveto
            -22 -26 -6 120 callsubr
            2 6 30 6 21 hhcurveto
            return
          </CharString>
          <CharString index="23">
            -9 18 -6 19 22 vvcurveto
            37 19 34 45 47 32 -30 -69 -89 -63 -52 -109 vhcurveto
            return
          </CharString>
          <CharString index="24">
            vvcurveto
            -133 80 -99 138 13 11 1 1 9 vhcurveto
            -68 callsubr
            87 -377 -28 callgsubr
          </CharString>
          <CharString index="25">
            -53 callgsubr
            vlineto
            endchar
          </CharString>
          <CharString index="26">
            rmoveto
            13 -27 -46 9 -55 hhcurveto
            -96 -79 -51 -92 -82 61 -38 58 -24 hvcurveto
            64 -27 47 -19 -46 vvcurveto
            -34 -28 -24 -54 -52 -54 19 24 -39 vhcurveto
            -93 vlineto
            -16 32 57 -14 61 hhcurveto
            108 70 53 92 79 -61 37 -65 29 hvcurveto
            -53 24 -51 18 45 vvcurveto
            34 28 24 48 49 48 -12 -17 29 vhcurveto
            return
          </CharString>
          <CharString index="27">
            16 25 8 32 40 vvcurveto
            134 return
          </CharString>
          <CharString index="28">
            rmoveto
            135 129 callgsubr
            hlineto
            -83 -102 -83 102 rlineto
            -97 hlineto
            135 -162 rlineto
            return
          </CharString>
          <CharString index="29">
            -80 90 -198 hlineto
            -56 callsubr
            63 48 41 61 return
          </CharString>
          <CharString index="30">
            13 17 1 3 13 hvcurveto
            -96 callsubr
          </CharString>
          <CharString index="31">
            115 122 71 150 100 -66 81 -110 -98 -58 -69 -76 return
          </CharString>
          <CharString index="32">
            rmoveto
            -127 -65 -43 -88 -84 -67 43 122 vhcurveto
            423 -103 -424 vlineto
            -171 100 -88 154 156 100 89 178 vhcurveto
            416 -103 vlineto
            return
          </CharString>
          <CharString index="33">
            81 vlineto
            -14 -55 -39 -4 -35 hhcurveto
            -118 -45 46 57 48 43 43 87 62 28 -30 -35 -14 -3 -21 -10 -16 hvcurveto
            95 hlineto
            8 18 2 22 17 vvcurveto
            72 -62 66 -118 -35 -31 -4 -8 -28 vhcurveto
            -21 12 -20 24 31 vvcurveto
            32 23 8 28 vhcurveto
            endchar
          </CharString>
          <CharString index="34">
            -263 hlineto
            -99 callgsubr
            return
          </CharString>
          <CharString index="35">
            -111 -36 callsubr
            110 80 -111 return
          </CharString>
          <CharString index="36">
            rmoveto
            -23 -11 -17 -20 -30 -42 -34 41 -59 hhcurveto
            -47 -40 -35 -39 -18 hvcurveto
            49 -45 rlineto
            30 20 17 16 33 36 37 -41 53 hhcurveto
            47 40 27 47 22 hvcurveto
            return
          </CharString>
          <CharString index="37">
            2 -7 -8 0 -8 hhcurveto
            return
          </CharString>
          <CharString index="38">
            103 282 hlineto
            169 -8 100 0 vhcurveto
            0 48 -99 102 -171 vhcurveto
            167 -281 rlineto
            122 674 -103 -283 hlineto
            -176 6 -91 0 vhcurveto
            0 -45 90 -104 178 vhcurveto
            -166 282 rlineto
            -122 hlineto
            return
          </CharString>
          <CharString index="39">
            82 62 callgsubr
            0 -6 hhcurveto
            -91 -41 -4 callgsubr
            return
          </CharString>
          <CharString index="40">
            -58 callsubr
            -51 return
          </CharString>
          <CharString index="41">
            vvcurveto
            -5 callgsubr
            vhcurveto
            -50 callsubr
          </CharString>
          <CharString index="42">
            hhcurveto
            -78 -47 34 51 54 46 31 75 hvcurveto
            56 81 -48 hlineto
            -68 -54 23 58 54 45 37 83 hvcurveto
            1 80 return
          </CharString>
          <CharString index="43">
            -82 -54 -43 -62 -64 -33 31 86 vhcurveto
            return
          </CharString>
          <CharString index="44">
            rmoveto
            -34 25 -26 36 34 26 26 34 34 -26 26 -34 -36 -25 -26 -34 vhcurveto
            221 hmoveto
            -34 26 -26 34 35 26 26 34 34 -26 26 -35 -34 -26 -26 -34 vhcurveto
            return
          </CharString>
          <CharString index="45">
            rmoveto
            46 35 -37 -39 -55 -34 -26 -40 -16 hvcurveto
            -56 12 -32 30 53 vvcurveto
            43 33 35 48 vhcurveto
            return
          </CharString>
          <CharString index="46">
            97 -88 callgsubr
            return
          </CharString>
          <CharString index="47">
            -27 -7 -17 -19 -28 -48 callsubr
            return
          </CharString>
          <CharString index="48">
            128 callgsubr
            hlineto
            -67 callgsubr
            return
          </CharString>
          <CharString index="49">
            -81 callgsubr
            -53 return
          </CharString>
          <CharString index="50">
            13 18 33 11 31 hhcurveto
            42 26 -24 -32 -52 -51 -28 -62 -94 -63 64 85 94 79 56 114 33 35 -4 -6 34 hvcurveto
            return
          </CharString>
          <CharString index="51">
            -45 callsubr
            306 vlineto
            return
          </CharString>
          <CharString index="52">
            -65 callsubr
            -314 -80 145 hlineto
            -26 callsubr
            return
          </CharString>
          <CharString index="53">
            -97 -69 -66 -85 -81 62 -53 76 17 19 4 6 16 hvcurveto
            return
          </CharString>
          <CharString index="54">
            rmoveto
            -57 callsubr
            185 142 80 -607 -80 369 -98 vlineto
            1 -12 -12 1 -11 hhcurveto
            -156 -2 -107 -89 -137 45 callsubr
            return
          </CharString>
          <CharString index="55">
            44 -8 -28 callsubr
            return
          </CharString>
          <CharString index="56">
            hhcurveto
            66 36 -40 -63 -110 -82 -63 -113 -79 -62 34 58 49 34 31 68 hvcurveto
            return
          </CharString>
          <CharString index="57">
            -155 96 -82 callsubr
          </CharString>
          <CharString index="58">
            rmoveto
            208 249 86 -249 208 281 86 -384 -674 389 86 vlineto
            endchar
          </CharString>
          <CharString index="59">
            vvcurveto
            -24 13 -32 15 -34 vhcurveto
            -32 callsubr
            return
          </CharString>
          <CharString index="60">
            rmoveto
            -238 -89 137 -186 hlineto
            -13 -32 -38 -9 -44 hhcurveto
            -153 -93 95 155 152 98 99 143 58 69 -13 -41 65 hvcurveto
            106 vlineto
            34 -60 -72 11 -64 hhcurveto
            -198 -147 -140 -208 -217 144 -129 207 94 77 29 34 47 hvcurveto
            -1 7 rlineto
            1 hlineto
            endchar
          </CharString>
          <CharString index="61">
            380 rmoveto
            -82 -54 -45 -62 -64 -33 33 52 callgsubr
            return
          </CharString>
          <CharString index="62">
            -142 67 -53 115 57 42 20 32 29 vhcurveto
            -229 97 return
          </CharString>
          <CharString index="63">
            -80 103 -310 hlineto
            -164 110 -65 146 58 55 11 16 39 vhcurveto
            88 vlineto
            -20 -39 -55 -12 -51 hhcurveto
            -99 -67 40 106 hvcurveto
            310 230 -132 vlineto
            -56 -26 -30 -58 -14 -12 2 3 -11 vhcurveto
            -78 vlineto
            -5 18 15 -1 19 hhcurveto
            102 63 59 100 hvcurveto
            138 84 vlineto
            endchar
          </CharString>
          <CharString index="64">
            13 17 1 3 13 return
          </CharString>
          <CharString index="65">
            rmoveto
            84 hlineto
            120 162 -12 callgsubr
            return
          </CharString>
          <CharString index="66">
            -33 callgsubr
            17 hlineto
            -76 callsubr
            return
          </CharString>
          <CharString index="67">
            -41 callsubr
            -22 5 -23 10 -22 hvcurveto
            return
          </CharString>
          <CharString index="68">
            36 callgsubr
            65 40 -47 -61 -70 -47 -43 -65 -6 -8 0 1 -5 -79 callgsubr
            -76 75 -112 -66 callgsubr
            133 vlineto
            endchar
          </CharString>
          <CharString index="69">
            143 callsubr
            rcurveline
            124 hlineto
            225 246 rlineto
            -246 36 callsubr
          </CharString>
          <CharString index="70">
            rmoveto
            -17 -26 151 callgsubr
            33 9 28 15 21 hvcurveto
            476 281 rmoveto
            return
          </CharString>
          <CharString index="71">
            -80 -23 callsubr
            return
          </CharString>
          <CharString index="72">
            92 callgsubr
            63 47 42 57 60 41 -46 -61 -75 -47 -39 -66 111 callgsubr
            7 9 -1 8 hhcurveto
            110 94 68 128 105 -70 79 -112 -49 -41 -17 -29 -29 hvcurveto
            126 vlineto
            endchar
          </CharString>
          <CharString index="73">
            -37 -19 -20 -34 -43 vvcurveto
            -72 51 -38 77 -6 vhcurveto
            -79 -8 -57 -44 -79 vvcurveto
            -95 return
          </CharString>
          <CharString index="74">
            rmoveto
            -74 -54 -49 -81 -83 -55 49 75 85 69 34 68 vhcurveto
            81 -1 55 -39 -80 vvcurveto
            172 308 rmoveto
            80 -616 -80 281 -111 vlineto
            -105 -9 -103 -61 -126 vvcurveto
            return
          </CharString>
          <CharString index="75">
            28 -64 rlineto
            -52 callgsubr
            return
          </CharString>
          <CharString index="76">
            -11 callgsubr
            185 -374 -28 callgsubr
          </CharString>
          <CharString index="77">
            -69 -49 45 73 69 50 44 64 22 19 -3 -6 18 177 callsubr
            -18 return
          </CharString>
          <CharString index="78">
            354 rmoveto
            -195 216 195 hlineto
            return
          </CharString>
          <CharString index="79">
            44 hhcurveto
            120 80 return
          </CharString>
          <CharString index="80">
            -56 -20 -33 -76 vhcurveto
            -67 return
          </CharString>
          <CharString index="81">
            -34 callsubr
            85 -66 130 return
          </CharString>
          <CharString index="82">
            hhcurveto
            -77 -68 35 73 -20 hvcurveto
            -73 callgsubr
            -68 -63 -40 -126 -34 vhcurveto
            20 -29 -38 18 -79 hhcurveto
            -110 hlineto
            -104 callgsubr
            80 hlineto
            36 27 -8 -16 17 hvcurveto
            0 vlineto
            -140 34 111 -58 124 hhcurveto
            return
          </CharString>
          <CharString index="83">
            68 callgsubr
            -126 96 -70 106 -59 callgsubr
          </CharString>
          <CharString index="84">
            111 60 callsubr
            return
          </CharString>
          <CharString index="85">
            rmoveto
            -207 -342 hlineto
            -85 -68 -76 -112 -74 -46 34 51 54 46 31 75 vhcurveto
            56 81 -48 hlineto
            -68 -54 23 58 54 45 37 83 hvcurveto
            1 80 return
          </CharString>
          <CharString index="86">
            46 callsubr
            138 -31 callgsubr
            return
          </CharString>
          <CharString index="87">
            rmoveto
            88 hlineto
            89 46 -43 -80 -71 -41 -52 -89 hvcurveto
            -93 hlineto
            247 -342 rmoveto
            123 hlineto
            -176 272 81 29 50 67 2 96 rlinecurve
            127 -85 83 -157 vhcurveto
            -188 -674 103 256 89 hlineto
            endchar
          </CharString>
          <CharString index="88">
            650 rmoveto
            return
          </CharString>
          <CharString index="89">
            -34 -25 -27 -33 return
          </CharString>
          <CharString index="90">
            14 0 vhcurveto
            -82 vlineto
            -8 return
          </CharString>
          <CharString index="91">
            380 rmoveto
            -64 callsubr
            198 213 vlineto
            return
          </CharString>
          <CharString index="92">
            -1 -1 5 vhcurveto
            return
          </CharString>
          <CharString index="93">
            -88 callgsubr
            vlineto
            endchar
          </CharString>
          <CharString index="94">
            vvcurveto
            -62 40 -50 87 33 30 7 14 24 vhcurveto
            72 vlineto
            -13 -18 -28 -11 -28 hhcurveto
            -35 -23 17 34 50 return
          </CharString>
          <CharString index="95">
            -28 -25 -13 -36 -35 vvcurveto
            -71 50 -46 56 -6 vhcurveto
            -73 -7 -49 -47 -73 145 callsubr
            return
          </CharString>
          <CharString index="96">
            150 callsubr
            -19 vhcurveto
            -78 vlineto
            8 15 21 6 20 45 callgsubr
            -117 vlineto
            -26 -6 -18 -22 -29 vvcurveto
            -25 12 -30 15 86 callsubr
            85 134 return
          </CharString>
          <CharString index="97">
            -29 -2 callgsubr
            return
          </CharString>
          <CharString index="98">
            rmoveto
            213 -174 hlineto
            -83 -54 -45 -62 -64 -33 34 86 vhcurveto
            310 182 rmoveto
            153 80 -655 79 callsubr
            307 vlineto
            64 48 41 61 53 38 -32 -48 20 vhcurveto
            74 53 rlineto
            62 -32 -56 43 -85 hhcurveto
            -50 -42 -17 -29 -29 hvcurveto
            endchar
          </CharString>
          <CharString index="99">
            86 callgsubr
            -83 -30 callsubr
            -25 3 -23 hhcurveto
            return
          </CharString>
          <CharString index="100">
            -80 95 105 callsubr
            83 -61 118 return
          </CharString>
          <CharString index="101">
            -75 -54 47 64 -15 vhcurveto
            75 163 callsubr
            return
          </CharString>
          <CharString index="102">
            rmoveto
            109 80 -553 145 callgsubr
            -103 57 -72 92 -31 vhcurveto
            -123 -160 173 callgsubr
            92 129 89 -129 173 callgsubr
            -114 147 37 7 31 11 20 11 rlinecurve
            88 vlineto
            -20 -33 -53 -20 -57 hhcurveto
            -100 -70 48 91 95 76 51 114 25 31 -2 -4 21 hvcurveto
            endchar
          </CharString>
          <CharString index="103">
            143 37 94 64 112 vvcurveto
            return
          </CharString>
          <CharString index="104">
            175 -278 rlineto
            113 hlineto
            -176 279 rlineto
            11 hlineto
            39 4 32 13 23 21 rrcurveto
            30 48 54 24 68 hhcurveto
            59 50 -27 -28 36 hvcurveto
            -168 -55 rlineto
            -48 -16 -23 -29 -38 vvcurveto
            -41 32 -47 34 -30 vhcurveto
            67 23 rlineto
            -16 21 -15 27 23 vvcurveto
            19 10 15 21 9 vhcurveto
            138 53 rlineto
            -250 12 callgsubr
          </CharString>
          <CharString index="105">
            -249 rmoveto
            77 hlineto
            113 198 -12 callgsubr
            return
          </CharString>
          <CharString index="106">
            56 81 -47 hlineto
            -69 -54 19 27 callgsubr
            -69 51 -37 78 -6 vhcurveto
            -79 -8 -57 -45 -73 vvcurveto
            -84 66 -57 103 -12 vhcurveto
            -63 -37 rlineto
            -42 -24 -16 -26 -30 vvcurveto
            -47 42 -45 42 -25 vhcurveto
            60 37 rlineto
            -23 21 -19 23 25 vvcurveto
            12 6 13 14 9 vhcurveto
            return
          </CharString>
          <CharString index="107">
            0 -8 hhcurveto
            -29 -28 -5 -9 -25 hvcurveto
            -210 hlineto
            -174 -100 callsubr
            66 callsubr
            hvcurveto
            104 hlineto
            -16 -28 -9 -34 -38 vvcurveto
            -109 76 -76 112 48 38 18 27 28 vhcurveto
            -137 162 callsubr
            return
          </CharString>
          <CharString index="108">
            45 71 69 50 46 64 22 19 -2 -7 18 hvcurveto
            104 callgsubr
            -122 -83 -85 -112 return
          </CharString>
          <CharString index="109">
            -81 callsubr
            endchar
          </CharString>
          <CharString index="110">
            hlineto
            14 -24 -29 8 -36 12 callsubr
            return
          </CharString>
          <CharString index="111">
            64 59 47 140 173 58 -58 -81 vhcurveto
            -32 -110 -71 callgsubr
            return
          </CharString>
          <CharString index="112">
            hhcurveto
            7 callsubr
          </CharString>
          <CharString index="113">
            160 46 340 -90 callgsubr
            return
          </CharString>
          <CharString index="114">
            39 callgsubr
            87 -377 -28 callgsubr
          </CharString>
          <CharString index="115">
            rmoveto
            -457 -85 335 hlineto
            -340 -508 rlineto
            -81 476 85 -355 vlineto
            341 510 rlineto
            return
          </CharString>
          <CharString index="116">
            -152 97 -112 155 -43 callsubr
            return
          </CharString>
          <CharString index="117">
            185 246 87 rmoveto
            207 164 84 -164 208 103 vlineto
            148 91 -107 -135 -142 -74 -115 -162 hvcurveto
            -210 587 rmoveto
            -296 -80 -84 80 -294 211 vlineto
            218 122 150 194 192 -141 138 -201 hvcurveto
            endchar
          </CharString>
          <CharString index="118">
            rmoveto
            -80 397 40 callsubr
            -102 64 -82 107 -16 hvcurveto
            58 callgsubr
            185 169 118 80 hlineto
            endchar
          </CharString>
          <CharString index="119">
            hhcurveto
            -73 -53 -107 callsubr
            38 35 62 21 return
          </CharString>
          <CharString index="120">
            -84 callsubr
            -102 -84 hlineto
            return
          </CharString>
          <CharString index="121">
            -134 -142 rlineto
            36 callgsubr
            return
          </CharString>
          <CharString index="122">
            rlineto
            19 -26 -22 9 -27 hhcurveto
            -61 -35 -76 -66 -7 hvcurveto
            55 -35 rlineto
            37 14 24 34 31 hhcurveto
            12 12 -5 -9 13 hvcurveto
            124 -85 -209 -39 rlineto
            -54 -10 -24 -30 -38 vvcurveto
            -47 34 -53 19 -22 vhcurveto
            65 15 rlineto
            -7 20 -9 23 22 vvcurveto
            26 10 19 32 7 vhcurveto
            return
          </CharString>
          <CharString index="123">
            hhcurveto
            17 callgsubr
          </CharString>
          <CharString index="124" raw="1">
            433107f7 2d1dd71d 1fe388ae 7c5c1a5b
            606e4344 42a3ad55 1e2e070b 
          </CharString>
          <CharString index="125">
            rmoveto
            133 callsubr
            -82 vlineto
            -8 23 24 -5 31 hhcurveto
            81 50 46 89 hvcurveto
            228 156 -276 vlineto
            -363 -314 rlineto
            133 hlineto
            230 195 rlineto
            -175 119 callsubr
          </CharString>
          <CharString index="126">
            570 rmoveto
            242 85 -339 -371 hlineto
            17 36 57 18 57 hhcurveto
            78 53 -38 -70 -84 -53 -44 -105 -54 -62 16 23 -38 hvcurveto
            -95 vlineto
            -25 49 64 -9 57 hhcurveto
            155 89 86 129 121 -82 77 -136 -22 -23 -3 -5 -23 hvcurveto
            endchar
          </CharString>
          <CharString index="127">
            -38 30 -30 38 37 30 30 38 38 -30 29 -37 -38 -30 -29 -38 vhcurveto
            return
          </CharString>
          <CharString index="128">
            -97 -79 -40 -90 -83 64 -36 118 71 46 -11 -53 -48 -36 -28 108 callgsubr
            55 96 98 -71 41 -112 2 hvcurveto
            -89 1 -25 9 34 vvcurveto
            35 32 13 49 vhcurveto
            return
          </CharString>
          <CharString index="129">
            rmoveto
            -80 392 40 callsubr
            83 callsubr
            hvcurveto
            69 callgsubr
          </CharString>
          <CharString index="130">
            -174 39 220 rmoveto
            -8 23 24 -5 31 hhcurveto
            81 50 46 89 hvcurveto
            228 154 80 -426 133 callsubr
            418 39 rmoveto
            -416 -361 rlineto
            133 hlineto
            328 280 rlineto
            return
          </CharString>
          <CharString index="131">
            13 281 -9 -84 callgsubr
            return
          </CharString>
          <CharString index="132">
            -27 36 48 -16 52 hhcurveto
            104 70 65 91 30 -7 26 -13 21 hvcurveto
            return
          </CharString>
          <CharString index="133">
            rmoveto
            27 callsubr
          </CharString>
          <CharString index="134">
            -69 callsubr
            endchar
          </CharString>
          <CharString index="135">
            hlineto
            -37 -19 -20 -34 -43 vvcurveto
            -72 51 -38 77 -6 vhcurveto
            return
          </CharString>
          <CharString index="136">
            vlineto
            33 callsubr
          </CharString>
          <CharString index="137">
            76 -54 52 -93 -34 -36 -8 -14 -26 vhcurveto
            return
          </CharString>
          <CharString index="138">
            53 -34 -54 31 -65 hhcurveto
            -126 -92 -102 -161 -135 76 -123 140 71 51 32 52 33 hvcurveto
            -77 99 return
          </CharString>
          <CharString index="139">
            88 -20 -72 51 -110 hhcurveto
            -32 -35 -6 -8 -19 hvcurveto
            -82 vlineto
            9 20 31 7 31 hhcurveto
            71 43 -42 -67 -71 -44 -47 -84 -60 -50 20 22 -36 hvcurveto
            -90 vlineto
            -17 29 60 -19 64 hhcurveto
            118 84 74 97 14 hvcurveto
            return
          </CharString>
          <CharString index="140">
            -54 callgsubr
            149 -570 96 -82 callsubr
          </CharString>
          <CharString index="141">
            rmoveto
            -109 hlineto
            120 -162 rlineto
            84 hlineto
            endchar
          </CharString>
          <CharString index="142">
            rmoveto
            499 103 vlineto
            148 90 -107 -135 -142 -74 -115 -161 hvcurveto
            -211 587 rmoveto
            -674 212 vlineto
            218 122 150 194 192 -142 138 -200 hvcurveto
            endchar
          </CharString>
          <CharString index="143">
            97 -82 callsubr
          </CharString>
          <CharString index="144">
            -80 254 hlineto
            22 -21 18 -31 -34 vvcurveto
            -66 -38 -31 -79 vhcurveto
            -42 -82 44 hlineto
            95 54 -39 -62 -73 -54 -33 -86 -49 -46 12 20 -39 hvcurveto
            -89 vlineto
            -14 41 49 -10 50 hhcurveto
            149 82 71 109 return
          </CharString>
          <CharString index="145">
            hvcurveto
            -126 463 rmoveto
            230 -143 rlineto
            -23 -18 -29 -9 -38 hhcurveto
            -41 hlineto
            -67 -37 31 79 hvcurveto
            return
          </CharString>
          <CharString index="146">
            274 79 rmoveto
            -75 -57 68 102 120 61 59 74 57 78 -43 -128 -129 -68 -49 -70 hvcurveto
            return
          </CharString>
          <CharString index="147">
            -90 -95 vlineto
            -151 -81 -89 -117 return
          </CharString>
          <CharString index="148">
            378 507 rmoveto
            87 -58 63 -95 -97 -56 -63 -72 -30 6 -19 6 -16 vhcurveto
            93 hlineto
            -4 13 -8 15 28 vvcurveto
            34 18 30 42 42 18 -31 -38 -79 -86 -41 -171 -39 vhcurveto
            14 return
          </CharString>
          <CharString index="149">
            453 92 callsubr
            108 80 -585 -80 381 -79 -166 vlineto
            -75 -57 -36 -70 return
          </CharString>
          <CharString index="150">
            rmoveto
            -95 162 -12 callgsubr
            120 -162 rlineto
            return
          </CharString>
          <CharString index="151">
            vvcurveto
            117 callsubr
            vhcurveto
            -153 96 -82 callsubr
          </CharString>
          <CharString index="152">
            vvcurveto
            -136 107 -93 146 50 callsubr
            return
          </CharString>
          <CharString index="153">
            -133 80 -99 return
          </CharString>
          <CharString index="154">
            vvcurveto
            -48 -43 -29 -72 -71 -73 24 34 -54 vhcurveto
            -93 vlineto
            29 -15 37 -14 42 -8 -115 -150 rcurveline
            101 callsubr
            -119 return
          </CharString>
          <CharString index="155">
            56 81 -47 hlineto
            -69 -54 18 27 callgsubr
            -72 51 -33 78 -6 vhcurveto
            -79 -6 -57 -49 -73 vvcurveto
            return
          </CharString>
          <CharString index="156">
            -244 hlineto
            -66 -54 -85 -110 -66 -45 32 61 59 46 52 143 vhcurveto
            81 -346 return
          </CharString>
          <CharString index="157">
            130 79 69 91 30 callsubr
            return
          </CharString>
          <CharString index="158">
            hhcurveto
            89 71 46 40 24 hvcurveto
            -189 return
          </CharString>
          <CharString index="159">
            rmoveto
            -63 51 -51 63 64 52 51 63 64 -52 52 -64 -63 -51 -52 -64 vhcurveto
            61 2 rmoveto
            29 23 25 30 31 23 -25 -29 -29 -23 -26 -31 -30 -23 26 29 vhcurveto
            return
          </CharString>
          <CharString index="160">
            122 -89 52 -98 -97 -86 -52 -123 vhcurveto
            -23 97 21 vlineto
            64 34 29 52 53 37 -31 -62 vhcurveto
            -78 -109 -71 callgsubr
            return
          </CharString>
          <CharString index="161">
            -80 102 -123 hlineto
            -67 24 -50 49 -27 vhcurveto
            -54 -28 -37 -50 -68 vvcurveto
            -118 113 -66 128 136 108 71 112 68 -39 50 -56 29 vhcurveto
            return
          </CharString>
          <CharString index="162">
            vlineto
            -96 callgsubr
            156 -570 159 callsubr
          </CharString>
          <CharString index="163">
            -101 hlineto
            -50 callgsubr
            return
          </CharString>
          <CharString index="164">
            vvcurveto
            106 -71 64 -95 21 vhcurveto
            117 vlineto
            endchar
          </CharString>
          <CharString index="165">
            196 634 -196 hlineto
            236 -185 rmoveto
            196 185 -196 hlineto
            return
          </CharString>
          <CharString index="166">
            172 hlineto
            107 callsubr
            return
          </CharString>
          <CharString index="167">
            -570 97 570 return
          </CharString>
          <CharString index="168">
            40 29 44 rrcurveto
            -182 97 -14 callsubr
          </CharString>
          <CharString index="169">
            -80 136 hlineto
            98 callgsubr
            -70 56 -36 64 -4 vhcurveto
            -78 -12 -51 -45 -74 vvcurveto
            -100 87 -51 93 -1 vhcurveto
            -154 -136 rlineto
            return
          </CharString>
          <CharString index="170">
            -81 callgsubr
            -38 -27 -35 -56 -22 vhcurveto
            38 -24 -46 31 -75 hhcurveto
            return
          </CharString>
          <CharString index="171">
            vvcurveto
            57 42 42 51 26 25 -8 -10 17 vhcurveto
            89 vlineto
            return
          </CharString>
          <CharString index="172">
            -287 81 hmoveto
            102 674 -102 hlineto
            return
          </CharString>
          <CharString index="173">
            96 57 50 109 return
          </CharString>
          <CharString index="174">
            -80 203 vlineto
            -67 callsubr
            -42 -110 -18 vhcurveto
            18 -143 84 -81 102 -15 -191 -177 rcurveline
            138 hlineto
            return
          </CharString>
          <CharString index="175">
            98 271 hlineto
            -54 34 53 -30 67 hhcurveto
            134 84 113 151 146 -80 111 -136 -72 -52 -33 -52 -32 hvcurveto
            endchar
          </CharString>
          <CharString index="176">
            162 callgsubr
            -23 -10 callsubr
            184 -277 126 callsubr
            80 hlineto
            endchar
          </CharString>
          <CharString index="177">
            -88 callgsubr
            80 hlineto
            endchar
          </CharString>
          <CharString index="178">
            hhcurveto
            -60 -62 -17 -21 -34 hvcurveto
            -89 vlineto
            20 35 59 23 59 hhcurveto
            74 -1 return
          </CharString>
          <CharString index="179">
            134 184 -60 hlineto
            -345 -303 rlineto
            134 hlineto
            211 186 rlineto
            -146 95 -45 callgsubr
          </CharString>
          <CharString index="180">
            hhcurveto
            69 52 135 callsubr
            111 vlineto
            endchar
          </CharString>
          <CharString index="181">
            -35 26 -26 35 36 27 26 35 35 -27 28 -36 return
          </CharString>
          <CharString index="182">
            808 rmoveto
            -29 -22 -23 -29 -29 22 -22 29 30 return
          </CharString>
          <CharString index="183">
            4 9 4 9 2 rrcurveto
            return
          </CharString>
          <CharString index="184">
            95 -88 callgsubr
            return
          </CharString>
          <CharString index="185">
            -68 vvcurveto
            -155 135 -91 168 31 33 2 8 36 vhcurveto
            77 vlineto
            -8 -25 -40 -4 -28 hhcurveto
            -143 -71 76 90 return
          </CharString>
          <CharString index="186">
            -80 95 -179 hlineto
            99 callgsubr
            return
          </CharString>
          <CharString index="187">
            68 -27 52 -49 30 vhcurveto
            107 vlineto
            endchar
          </CharString>
          <CharString index="188">
            -57 -55 24 57 54 44 31 69 return
          </CharString>
          <CharString index="189">
            rmoveto
            -34 -23 -27 -23 -41 -65 -47 64 -100 hhcurveto
            -61 -54 -40 -54 -39 hvcurveto
            63 -53 rlineto
            44 32 33 20 43 62 56 return
          </CharString>
          <CharString index="190">
            -115 81 -91 129 52 57 19 34 26 return
          </CharString>
          <CharString index="191">
            vhcurveto
            80 vlineto
            -70 callsubr
            return
          </CharString>
          <CharString index="192">
            168 125 105 153 return
          </CharString>
          <CharString index="193">
            -34 vhcurveto
            28 -62 rlineto
            return
          </CharString>
          <CharString index="194">
            231 rmoveto
            321 -130 hlineto
            -35 -8 -26 -24 -15 vhcurveto
            97 -32 -91 21 -53 -15 callgsubr
            return
          </CharString>
          <CharString index="195">
            64 34 30 52 53 37 -31 -63 vhcurveto
            -89 -109 -80 106 callgsubr
            96 -53 callgsubr
            80 -113 return
          </CharString>
          <CharString index="196">
            131 -10 hlineto
            7 76 callsubr
            22 4 8 hlineto
            34 12 -20 -40 hvcurveto
            -158 -232 vlineto
            return
          </CharString>
          <CharString index="197">
            -19 callsubr
            -294 -184 172 172 callsubr
            return
          </CharString>
          <CharString index="198">
            vlineto
            16 -19 14 -29 -38 vvcurveto
            -53 -52 -45 -109 -17 vhcurveto
            return
          </CharString>
          <CharString index="199">
            413 rmoveto
            157 return
          </CharString>
          <CharString index="200">
            329 rmoveto
            -201 85 -136 145 154 79 139 198 205 -87 130 -146 return
          </CharString>
          <CharString index="201">
            vvcurveto
            -62 41 -50 86 34 30 7 14 24 vhcurveto
            72 vlineto
            -13 -19 -27 -11 -28 hhcurveto
            -36 -22 18 33 50 return
          </CharString>
          <CharString index="202">
            vlineto
            -64 -30 -32 -49 -44 17 -44 13 -23 hvcurveto
            79 hlineto
            -7 23 -4 29 20 vvcurveto
            30 8 10 24 vhcurveto
            return
          </CharString>
          <CharString index="203">
            -44 -72 hhcurveto
            -72 -49 46 82 77 54 47 84 hvcurveto
            endchar
          </CharString>
          <CharString index="204">
            102 67 76 107 33 45 -10 -21 33 vhcurveto
            return
          </CharString>
          <CharString index="205">
            441 rmoveto
            -84 callsubr
            return
          </CharString>
          <CharString index="206">
            -10 vlineto
            7 76 callsubr
            5 1 hlineto
            2 8 9 1 8 45 callgsubr
            return
          </CharString>
          <CharString index="207">
            rmoveto
            247 340 rlineto
            -125 hlineto
            -245 -341 255 -333 rlineto
            130 hlineto
            endchar
          </CharString>
          <CharString index="208">
            117 hlineto
            90 51 callgsubr
            return
          </CharString>
          <CharString index="209">
            hlineto
            4 -20 9 -22 11 -24 28 -62 rcurveline
            84 134 return
          </CharString>
          <CharString index="210">
            66 callgsubr
            198 return
          </CharString>
          <CharString index="211">
            81 -346 -81 134 vlineto
            return
          </CharString>
          <CharString index="212">
            -198 hlineto
            -142 return
          </CharString>
          <CharString index="213">
            85 callgsubr
            -85 -76 -56 37 117 callgsubr
            return
          </CharString>
          <CharString index="214">
            82 -37 45 -86 return
          </CharString>
          <CharString index="215">
            rmoveto
            -106 hlineto
            -151 -162 151 -162 rlineto
            106 hlineto
            -146 162 rlineto
            endchar
          </CharString>
          <CharString index="216">
            34 28 27 34 35 -28 27 -34 -34 -27 -27 -35 return
          </CharString>
          <CharString index="217">
            -65 -46 32 61 59 47 52 143 return
          </CharString>
          <CharString index="218">
            rmoveto
            68 -304 -68 vlineto
            return
          </CharString>
          <CharString index="219">
            -205 190 return
          </CharString>
          <CharString index="220">
            130 125 vvcurveto
            132 -96 66 -116 -61 -67 -22 -33 -43 vhcurveto
            -97 vlineto
            35 return
          </CharString>
          <CharString index="221">
            vvcurveto
            32 22 8 28 vhcurveto
            endchar
          </CharString>
          <CharString index="222">
            381 391 rmoveto
            -82 -54 -45 -62 -64 -33 33 87 vhcurveto
            186 213 vlineto
            return
          </CharString>
          <CharString index="223">
            hhcurveto
            -78 -53 44 67 -18 148 callgsubr
            return
          </CharString>
          <CharString index="224">
            -126 101 -84 115 75 60 31 43 37 return
          </CharString>
          <CharString index="225">
            339 rmoveto
            -80 callsubr
            return
          </CharString>
          <CharString index="226">
            96 -45 callgsubr
          </CharString>
          <CharString index="227">
            -2 -7 hvcurveto
            -79 vlineto
            return
          </CharString>
          <CharString index="228">
            -107 -20 vlineto
            -109 -1 -82 -49 -38 -74 rrcurveto
            345 231 rmoveto
            106 80 return
          </CharString>
          <CharString index="229">
            vhcurveto
            68 69 rlineto
            33 -33 -48 19 -56 -15 callgsubr
            endchar
          </CharString>
          <CharString index="230">
            -570 119 callgsubr
          </CharString>
          <CharString index="231">
            1 hlineto
            0 vlineto
            return
          </CharString>
          <CharString index="232">
            hhcurveto
            -93 -89 21 80 84 103 19 106 19 56 -2 -4 19 hvcurveto
            endchar
          </CharString>
          <CharString index="233">
            95 -53 callgsubr
            return
          </CharString>
          <CharString index="234">
            -41 -170 -39 vhcurveto
            return
          </CharString>
          <CharString index="235">
            87 -57 63 -95 return
          </CharString>
          <CharString index="236">
            vlineto
            -14 35 -52 callsubr
            70 109 62 -25 46 return
          </CharString>
          <CharString index="237">
            rmoveto
            -23 callsubr
            111 80 -319 hlineto
            endchar
          </CharString>
          <CharString index="238">
            112 80 vlineto
            endchar
          </CharString>
          <CharString index="239">
            11 -40 hhcurveto
            -97 -69 -66 -85 -81 62 -53 76 17 19 4 6 return
          </CharString>
          <CharString index="240">
            -80 176 -221 vlineto
            -39 -16 -22 -39 -30 -28 14 0 vhcurveto
            return
          </CharString>
          <CharString index="241">
            -52 callgsubr
            hlineto
            endchar
          </CharString>
          <CharString index="242">
            26 40 140 callsubr
            return
          </CharString>
          <CharString index="243">
            hhcurveto
            71 57 26 42 29 hvcurveto
            -187 return
          </CharString>
          <CharString index="244">
            10 16 -31 hvcurveto
            -86 vlineto
            -14 return
          </CharString>
          <CharString index="245">
            -175 -120 -70 -122 return
          </CharString>
          <CharString index="246">
            86 callgsubr
            -84 return
          </CharString>
          <CharString index="247">
            33 hvcurveto
            -155 96 570 return
          </CharString>
          <CharString index="248">
            -127 100 -69 116 return
          </CharString>
          <CharString index="249">
            12 1 1 8 vhcurveto
            return
          </CharString>
          <CharString index="250">
            -178 -196 return
          </CharString>
          <CharString index="251">
            28 rmoveto
            -29 -7 -24 -12 -19 vhcurveto
            -141 121 rlineto
            1 return
          </CharString>
          <CharString index="252">
            vvcurveto
            -108 106 -61 132 85 callsubr
            return
          </CharString>
          <CharString index="253">
            vhcurveto
            -21 12 -19 24 30 vvcurveto
            32 23 8 28 vhcurveto
            endchar
          </CharString>
          <CharString index="254">
            44 callgsubr
            -38 -26 -33 -54 -23 vhcurveto
            return
          </CharString>
          <CharString index="255">
            vvcurveto
            45 27 30 44 1 vhcurveto
            26 30 -10 -10 18 hvcurveto
            return
          </CharString>
          <CharString index="256">
            261 118 callsubr
            return
          </CharString>
          <CharString index="257">
            107 callsubr
            -27 -29 -7 -10 return
          </CharString>
          <CharString index="258">
            -99 85 -24 103 -4 return
          </CharString>
          <CharString index="259">
            123 -168 rlineto
            return
          </CharString>
          <CharString index="260">
            570 rmoveto
            80 return
          </CharString>
          <CharString index="261">
            vvcurveto
            42 37 14 38 vhcurveto
            184 124 callsubr
            return
          </CharString>
          <CharString index="262">
            vvcurveto
            34 18 30 42 42 18 -31 -38 -65 -58 -39 return
          </CharString>
          <CharString index="263">
            -64 114 hhcurveto
            69 57 32 36 22 hvcurveto
            -122 return
          </CharString>
          <CharString index="264">
            11 -18 -25 7 -31 hhcurveto
            -69 -46 -43 -55 -13 hvcurveto
            return
          </CharString>
          <CharString index="265">
            67 15 45 44 76 vvcurveto
            33 -12 33 -20 23 vhcurveto
            return
          </CharString>
          <CharString index="266">
            95 -82 callsubr
          </CharString>
          <CharString index="267">
            -90 hlineto
            153 callgsubr
            return
          </CharString>
          <CharString index="268">
            29 24 -9 -8 17 vhcurveto
            return
          </CharString>
          <CharString index="269">
            97 301 vlineto
            return
          </CharString>
          <CharString index="270">
            -92 callgsubr
            -14 21 vhcurveto
            return
          </CharString>
          <CharString index="271">
            hlineto
            -235 -417 rlineto
            -85 296 -153 return
          </CharString>
          <CharString index="272">
            173 callsubr
            -29 return
          </CharString>
          <CharString index="273">
            hhcurveto
            -30 -19 20 30 35 21 32 25 22 hvcurveto
            return
          </CharString>
          <CharString index="274">
            -80 442 -79 -214 vlineto
            -74 -57 -36 -70 return
          </CharString>
          <CharString index="275">
            -187 119 callsubr
          </CharString>
          <CharString index="276">
            hvcurveto
            -4 callsubr
            endchar
          </CharString>
          <CharString index="277">
            -72 160 callsubr
            return
          </CharString>
          <CharString index="278">
            40 53 vhcurveto
            -95 hlineto
            -114 return
          </CharString>
          <CharString index="279">
            vlineto
            107 callsubr
            return
          </CharString>
          <CharString index="280">
            -22 29 30 142 callgsubr
            -30 return
          </CharString>
          <CharString index="281">
            -218 vlineto
            -10 -3 -8 -4 -7 -6 rrcurveto
            return
          </CharString>
          <CharString index="282">
            18 46 25 26 -5 -9 26 vhcurveto
            -618 return
          </CharString>
          <CharString index="283">
            -35 26 -27 36 35 28 27 35 35 -28 return
          </CharString>
          <CharString index="284">
            vhcurveto
            85 vlineto
            4 return
          </CharString>
        <CharString name=".notdef">
          202 171 hmoveto
          410 701 -410 hlineto
          66 -61 rmoveto
          279 -579 -279 hlineto
          endchar
        </CharString>
        <CharString name="A">
          109 222 251 -93 callsubr
        </CharString>
        <CharString name="AE">
          346 266 251 rmoveto
          19 34 84 149 58 109 32 65 rlinecurve
          -357 vlineto
          100 -165 rmoveto
          208 249 86 -249 208 281 86 -455 vlineto
          -366 -674 rlineto
          108 hlineto
          91 165 rlineto
          241 -165 386 86 hlineto
          endchar
        </CharString>
        <CharString name="Aacute">
          109 502 887 10 callgsubr
          -160 -474 -93 callsubr
        </CharString>
        <CharString name="Abreve">
          109 426 887 14 callgsubr
          -282 -636 -93 callsubr
        </CharString>
        <CharString name="Acircumflex">
          109 332 827 2 callgsubr
          -28 -474 -93 callsubr
        </CharString>
        <CharString name="Adieresis">
          109 445 747 -62 callgsubr
          -3 -496 -93 callsubr
        </CharString>
        <CharString name="Agrave">
          109 369 725 43 callsubr
          -63 -474 -93 callsubr
        </CharString>
        <CharString name="Amacron">
          109 486 841 120 callgsubr
          -264 -522 -93 callsubr
        </CharString>
        <CharString name="Aogonek">
          105 219 251 rmoveto
          11 34 rlineto
          88 265 10 46 0 vvcurveto
          0 11 -46 86 -265 vhcurveto
          11 -34 rlineto
          -39 423 rmoveto
          -136 hlineto
          -232 -674 rlineto
          109 hlineto
          53 165 rlineto
          273 hlineto
          50 -157 rlineto
          -45 -33 -39 -49 -61 94 callsubr
          53 45 61 32 hvcurveto
          endchar
        </CharString>
        <CharString name="Aring">
          109 333 885 1 callgsubr
          -111 -464 -93 callsubr
        </CharString>
        <CharString name="Atilde">
          109 453 868 -71 callsubr
          -287 -575 -93 callsubr
        </CharString>
        <CharString name="B">
          30 176 85 rmoveto
          213 122 vlineto
          92 45 -42 -66 -69 -45 -36 -82 hvcurveto
          -132 504 rmoveto
          110 hlineto
          92 39 -43 -54 -60 -42 -50 -106 hvcurveto
          -93 hlineto
          -103 292 rmoveto
          -674 259 vlineto
          135 73 77 104 99 -64 50 -66 12 hvcurveto
          65 16 47 60 76 vvcurveto
          107 -85 73 -143 vhcurveto
          endchar
        </CharString>
        <CharString name="C">
          54 560 646 -55 callgsubr
          endchar
        </CharString>
        <CharString name="CR">
          -551 endchar
        </CharString>
        <CharString name="Cacute">
          54 560 646 -55 callgsubr
          -237 180 -42 callsubr
          endchar
        </CharString>
        <CharString name="Ccaron">
          54 560 646 -55 callgsubr
          -142 180 -79 callsubr
          endchar
        </CharString>
        <CharString name="Ccedilla">
          54 328 -51 rmoveto
          14 -21 11 -21 -27 vvcurveto
          -41 -28 -25 -54 -3 vhcurveto
          -68 vlineto
          108 2 51 62 70 vvcurveto
          24 -6 31 -12 17 vhcurveto
          148 697 -55 callgsubr
          endchar
        </CharString>
        <CharString name="D">
          116 178 87 35 callsubr
        </CharString>
        <CharString name="Dcaron">
          116 355 725 -79 callsubr
          -87 -638 35 callsubr
        </CharString>
        <CharString name="Dcroat">
          10 callsubr
        </CharString>
        <CharString name="E">
          -37 176 86 -49 callsubr
        </CharString>
        <CharString name="Eacute">
          -37 442 887 10 callgsubr
          -146 -639 -49 callsubr
        </CharString>
        <CharString name="Ecaron">
          -37 319 725 -79 callsubr
          -53 -639 -49 callsubr
        </CharString>
        <CharString name="Ecircumflex">
          -37 272 827 2 callgsubr
          -14 -639 -49 callsubr
        </CharString>
        <CharString name="Edieresis">
          -37 379 746 -62 callgsubr
          17 -660 -49 callsubr
        </CharString>
        <CharString name="Edotaccent">
          -37 277 748 rmoveto
          35 25 26 34 34 -25 26 -35 -35 -26 -26 -34 -34 26 -26 35 hvcurveto
          -101 -662 -49 callsubr
        </CharString>
        <CharString name="Egrave">
          -37 327 725 43 callsubr
          -67 -639 -49 callsubr
        </CharString>
        <CharString name="Emacron">
          -37 418 842 120 callgsubr
          -242 -688 -49 callsubr
        </CharString>
        <CharString name="Eogonek">
          -37 462 hmoveto
          86 -286 208 249 86 -249 208 281 86 -384 -674 208 vlineto
          -42 -33 -36 -46 -56 -13 callsubr
          54 45 60 32 hvcurveto
          endchar
        </CharString>
        <CharString name="Eth">
          10 callsubr
        </CharString>
        <CharString name="Euro">
          49 560 633 rmoveto
          19 -35 -42 9 -56 hhcurveto
          -131 -109 -80 -142 -39 hvcurveto
          -100 -67 88 hlineto
          -1 -16 -1 -16 -17 vvcurveto
          -14 1 -14 1 -13 vhcurveto
          -88 -67 99 hlineto
          -137 36 106 -86 136 hhcurveto
          63 37 9 18 35 hvcurveto
          98 vlineto
          -21 -32 -42 -12 -50 hhcurveto
          -82 -68 46 85 -31 hvcurveto
          196 67 -211 hlineto
          -1 13 -1 13 14 vvcurveto
          18 1 16 2 16 vhcurveto
          210 67 -194 hlineto
          83 31 67 45 86 hhcurveto
          49 39 -11 -20 31 hvcurveto
          endchar
        </CharString>
        <CharString name="F">
          -57 455 588 rmoveto
          86 -382 -674 103 281 245 86 -245 221 vlineto
          endchar
        </CharString>
        <CharString name="G">
          130 615 385 -47 callsubr
        </CharString>
        <CharString name="Gbreve">
          130 467 887 14 callgsubr
          70 -502 -47 callsubr
        </CharString>
        <CharString name="H">
          105 479 674 rmoveto
          -290 -303 290 -103 -674 103 295 303 -295 103 674 vlineto
          endchar
        </CharString>
        <CharString name="I">
          65 callsubr
          endchar
        </CharString>
        <CharString name="Iacute">
          65 callsubr
          13 51 -42 callsubr
          endchar
        </CharString>
        <CharString name="Icircumflex">
          -287 88 887 -16 callgsubr
          -97 -887 rmoveto
          102 674 -102 hlineto
          endchar
        </CharString>
        <CharString name="Idieresis">
          65 callsubr
          -117 133 -63 callsubr
          endchar
        </CharString>
        <CharString name="Idotaccent">
          65 callsubr
          -9 134 30 callgsubr
        </CharString>
        <CharString name="Igrave">
          65 callsubr
          -7 213 34 callsubr
        </CharString>
        <CharString name="Imacron">
          65 callsubr
          203 98 111 callsubr
          endchar
        </CharString>
        <CharString name="Iogonek">
          -287 183 674 rmoveto
          -102 -663 hlineto
          -49 -33 -45 -50 -63 -13 callsubr
          54 45 60 32 hvcurveto
          endchar
        </CharString>
        <CharString name="J">
          -183 30 21 rmoveto
          -14 25 42 -7 32 hhcurveto
          97 71 52 130 hvcurveto
          492 -103 -496 vlineto
          -60 -29 -27 -53 -30 -29 11 14 -23 vhcurveto
          endchar
        </CharString>
        <CharString name="K">
          48 73 hmoveto
          103 674 -103 hlineto
          239 -340 100 callsubr
        </CharString>
        <CharString name="L">
          -71 176 91 114 callgsubr
        </CharString>
        <CharString name="Lacute">
          -71 460 887 10 callgsubr
          -164 -51 rmoveto
          -103 -674 379 91 -276 hlineto
          endchar
        </CharString>
        <CharString name="Lcaron">
          -71 447 701 rmoveto
          -109 hlineto
          -81 -198 rlineto
          77 hlineto
          -158 -412 114 callgsubr
        </CharString>
        <CharString name="Lslash">
          -33 207 91 rmoveto
          208 vlineto
          154 99 rlineto
          90 vlineto
          -154 -99 rlineto
          285 -102 -351 vlineto
          -71 -46 rlineto
          -90 vlineto
          71 46 rlineto
          -233 378 91 vlineto
          endchar
        </CharString>
        <CharString name="M">
          317 64 hmoveto
          102 hlineto
          20 264 rlineto
          9 125 7 115 26 vvcurveto
          0 36 -110 55 -156 vhcurveto
          91 -251 rlineto
          81 hlineto
          94 251 rlineto
          53 143 45 127 0 vvcurveto
          0 8 -127 13 -143 vhcurveto
          24 -264 rlineto
          102 hlineto
          -62 674 rlineto
          -122 hlineto
          -94 -246 rlineto
          -55 -146 -46 -136 0 vvcurveto
          0 -44 140 -53 142 vhcurveto
          -90 246 rlineto
          -122 hlineto
          endchar
        </CharString>
        <CharString name="N">
          129 73 hmoveto
          27 callsubr
        </CharString>
        <CharString name="NULL">
          -551 endchar
        </CharString>
        <CharString name="Nacute">
          129 319 725 -42 callsubr
          -341 -887 26 callsubr
        </CharString>
        <CharString name="Ncaron">
          129 73 hmoveto
          -69 callsubr
          325 51 -79 callsubr
          endchar
        </CharString>
        <CharString name="Ntilde">
          129 73 hmoveto
          -69 callsubr
          396 194 -71 callsubr
          endchar
        </CharString>
        <CharString name="O">
          6 callsubr
          endchar
        </CharString>
        <CharString name="OE">
          437 351 88 rmoveto
          -122 -75 96 156 155 71 96 125 128 70 -96 -155 -156 -70 -96 -127 hvcurveto
          295 -2 rmoveto
          208 254 86 -254 208 286 86 -384 -66 vlineto
          50 -49 -68 29 -81 hhcurveto
          -189 -115 -138 -209 -210 117 -138 188 80 67 29 51 50 hvcurveto
          -72 389 86 vlineto
          endchar
        </CharString>
        <CharString name="Oacute">
          160 320 725 -42 callsubr
          -369 -547 -90 callgsubr
          endchar
        </CharString>
        <CharString name="Ocircumflex">
          160 154 340 rmoveto
          155 76 96 125 128 74 -96 -155 -156 -74 -96 -127 -122 -80 96 156 vhcurveto
          -108 hmoveto
          -210 122 -138 188 190 119 138 210 209 -116 138 -194 -189 -120 -138 -209 vhcurveto
          271 547 -16 callgsubr
          endchar
        </CharString>
        <CharString name="Odieresis">
          160 190 807 -63 callsubr
          -365 -467 -90 callgsubr
          endchar
        </CharString>
        <CharString name="Ograve">
          6 callsubr
          158 547 34 callsubr
        </CharString>
        <CharString name="Ohungarumlaut">
          160 413 725 4 callgsubr
          -296 -547 -90 callgsubr
          endchar
        </CharString>
        <CharString name="Omacron">
          160 508 772 111 callsubr
          -158 -432 -90 callgsubr
          endchar
        </CharString>
        <CharString name="Oslash">
          135 520 497 rmoveto
          22 -41 12 -53 -63 vvcurveto
          -158 -74 -98 -129 -44 -38 12 22 -31 vhcurveto
          -56 64 rmoveto
          -23 41 -13 53 64 vvcurveto
          157 77 98 127 45 39 -11 -22 30 vhcurveto
          197 124 rmoveto
          -104 hlineto
          -35 -46 rlineto
          30 -47 -58 17 -67 hhcurveto
          -190 -120 -138 -209 -100 28 -84 49 -60 hvcurveto
          -77 -104 rlineto
          104 hlineto
          36 48 rlineto
          -31 47 58 -17 66 hhcurveto
          190 119 138 210 100 -27 83 -48 60 hvcurveto
          endchar
        </CharString>
        <CharString name="Otilde">
          6 callsubr
          324 529 -71 callsubr
          endchar
        </CharString>
        <CharString name="P">
          -1 176 324 rmoveto
          265 93 vlineto
          94 -2 51 -58 -74 vvcurveto
          -71 -49 -57 -90 -3 vhcurveto
          -202 350 rmoveto
          -674 103 239 96 vlineto
          145 101 87 129 126 -95 93 -157 hvcurveto
          endchar
        </CharString>
        <CharString name="Q">
          168 154 340 rmoveto
          155 76 96 125 128 74 -96 -155 -156 -74 -96 -127 -122 -80 96 156 vhcurveto
          545 -439 rmoveto
          -202 121 rlineto
          106 52 62 114 152 vvcurveto
          209 -116 138 -194 -189 -120 -138 -209 -210 122 -138 188 11 10 0 1 11 vhcurveto
          197 -137 rlineto
          endchar
        </CharString>
        <CharString name="R">
          17 176 588 -20 callsubr
        </CharString>
        <CharString name="Racute">
          17 440 887 10 callgsubr
          -144 -137 -20 callsubr
        </CharString>
        <CharString name="Rcaron">
          17 335 725 -79 callsubr
          -69 -137 -20 callsubr
        </CharString>
        <CharString name="S">
          -30 437 647 -83 callgsubr
          endchar
        </CharString>
        <CharString name="Sacute">
          -30 234 725 -42 callsubr
          108 -240 -83 callgsubr
          endchar
        </CharString>
        <CharString name="Scaron">
          -30 437 647 -83 callgsubr
          -128 180 -79 callsubr
          endchar
        </CharString>
        <CharString name="T">
          -51 478 674 80 callgsubr
        </CharString>
        <CharString name="Tcaron">
          -51 296 725 -79 callsubr
          272 -51 80 callgsubr
        </CharString>
        <CharString name="Thorn">
          -7 176 205 rmoveto
          264 83 vlineto
          108 42 -61 -75 -71 -44 -57 -100 hvcurveto
          -89 349 rmoveto
          120 -103 -674 103 120 91 vlineto
          150 96 87 128 127 -90 92 -162 hvcurveto
          endchar
        </CharString>
        <CharString name="U">
          101 478 256 3 callgsubr
        </CharString>
        <CharString name="Uacute">
          101 297 725 -42 callsubr
          86 -631 3 callgsubr
        </CharString>
        <CharString name="Ucircumflex">
          101 478 256 -75 callsubr
          -196 213 -16 callgsubr
          endchar
        </CharString>
        <CharString name="Udieresis">
          101 157 807 -63 callsubr
          100 -551 3 callgsubr
        </CharString>
        <CharString name="Ugrave">
          101 478 256 -75 callsubr
          -201 213 34 callsubr
        </CharString>
        <CharString name="Uhungarumlaut">
          101 478 256 -75 callsubr
          -109 51 4 callgsubr
          endchar
        </CharString>
        <CharString name="Umacron">
          101 478 256 -75 callsubr
          5 98 111 callsubr
          endchar
        </CharString>
        <CharString name="Uogonek">
          101 478 674 rmoveto
          -418 vlineto
          -127 -65 -43 -88 -84 -67 43 122 vhcurveto
          423 -103 -424 vlineto
          -159 86 -87 136 -12 vhcurveto
          -35 -31 -26 -41 -48 -13 callsubr
          53 44 60 32 hvcurveto
          96 33 58 83 136 vvcurveto
          416 vlineto
          endchar
        </CharString>
        <CharString name="Uring">
          101 214 829 52 callsubr
          203 -575 3 callgsubr
        </CharString>
        <CharString name="V">
          92 613 674 rmoveto
          -110 hlineto
          -87 -268 rlineto
          -64 -194 -32 -120 0 vvcurveto
          0 -31 120 -62 194 vhcurveto
          -86 268 rlineto
          -110 hlineto
          227 -674 rlineto
          122 hlineto
          endchar
        </CharString>
        <CharString name="W">
          396 432 664 rmoveto
          -69 -239 rlineto
          -43 -148 -45 -168 0 vvcurveto
          0 -42 189 -32 127 vhcurveto
          -63 249 rlineto
          -107 hlineto
          177 -674 rlineto
          124 hlineto
          62 213 rlineto
          61 206 23 95 0 vvcurveto
          0 25 -95 62 -206 vhcurveto
          64 -213 rlineto
          123 hlineto
          165 674 rlineto
          -104 hlineto
          -59 -250 rlineto
          -32 -135 -37 -182 0 vvcurveto
          0 -54 189 -37 128 vhcurveto
          -71 240 rlineto
          endchar
        </CharString>
        <CharString name="X">
          77 251 341 rmoveto
          -216 -341 rlineto
          123 hlineto
          17 31 119 190 17 32 160 -253 rcurveline
          121 hlineto
          -223 340 204 334 rlineto
          -123 hlineto
          -16 -29 -110 -184 -15 -29 -143 242 rcurveline
          -119 hlineto
          endchar
        </CharString>
        <CharString name="Y">
          57 585 674 -1 callgsubr
        </CharString>
        <CharString name="Yacute">
          57 482 887 10 callgsubr
          223 -51 -1 callgsubr
        </CharString>
        <CharString name="Ydieresis">
          57 417 746 -62 callgsubr
          388 -72 -1 callgsubr
        </CharString>
        <CharString name="Z">
          33 516 674 8 callsubr
          endchar
        </CharString>
        <CharString name="Zacute">
          33 266 725 -42 callsubr
          155 -213 8 callsubr
          endchar
        </CharString>
        <CharString name="Zcaron">
          33 516 674 8 callsubr
          -177 130 -79 callsubr
          endchar
        </CharString>
        <CharString name="Zdotaccent">
          33 516 674 8 callsubr
          -274 213 30 callgsubr
        </CharString>
        <CharString name="a">
          -52 336 226 -98 callgsubr
        </CharString>
        <CharString name="aacute">
          -52 419 720 10 callgsubr
          37 -332 -98 callgsubr
        </CharString>
        <CharString name="abreve">
          -52 347 719 14 callgsubr
          -89 -493 -98 callgsubr
        </CharString>
        <CharString name="acircumflex">
          -52 254 660 2 callgsubr
          164 -332 -98 callgsubr
        </CharString>
        <CharString name="acute">
          -107 121 636 -42 callsubr
          endchar
        </CharString>
        <CharString name="adieresis">
          -52 366 578 -62 callgsubr
          190 -352 -98 callgsubr
        </CharString>
        <CharString name="ae">
          265 341 175 rmoveto
          -62 -45 -39 -58 -58 -29 29 44 50 43 28 80 vhcurveto
          67 hlineto
          340 65 rmoveto
          -244 hlineto
          98 12 58 44 62 hhcurveto
          68 42 -45 -79 2 hvcurveto
          89 -95 rmoveto
          3 17 3 30 15 vvcurveto
          156 -77 82 -131 -72 -62 -30 -53 -36 vhcurveto
          53 -22 -55 32 -83 hhcurveto
          -63 -56 -15 -20 -33 hvcurveto
          -93 vlineto
          25 38 56 19 53 hhcurveto
          81 27 -40 -65 hvcurveto
          -28 -82 vlineto
          -133 -78 -58 -97 -90 65 -58 103 97 59 47 54 23 hvcurveto
          -65 40 81 -36 82 hhcurveto
          47 59 11 21 37 hvcurveto
          88 vlineto
          -24 -34 -50 -14 -50 hhcurveto
          -85 -68 46 90 -15 hvcurveto
          endchar
        </CharString>
        <CharString name="agrave">
          -52 301 558 43 callsubr
          119 -332 -98 callgsubr
        </CharString>
        <CharString name="amacron">
          -52 403 673 120 callgsubr
          -67 -379 -98 callgsubr
        </CharString>
        <CharString name="ampersand">
          164 276 290 rmoveto
          0 93 -88 90 -85 vhcurveto
          -26 -39 -48 -13 -51 hhcurveto
          -91 -68 40 63 50 36 31 77 29 hvcurveto
          49 313 rmoveto
          66 34 -42 -53 -48 -31 -40 -82 -40 hvcurveto
          -52 55 -28 38 43 vvcurveto
          57 41 30 52 vhcurveto
          388 -604 rmoveto
          -32 30 -46 43 -49 46 30 45 18 54 3 59 rrcurveto
          -92 hlineto
          -2 -37 -9 -31 -15 -27 -148 142 rcurveline
          114 53 40 61 74 vvcurveto
          104 -77 74 -122 -115 -80 -66 -107 -63 36 -51 50 -52 vhcurveto
          -105 -37 -50 -55 -81 vvcurveto
          -105 101 -81 160 83 68 23 40 52 vhcurveto
          59 -55 rlineto
          endchar
        </CharString>
        <CharString name="aogonek">
          -54 336 225 rmoveto
          -60 vlineto
          -50 -41 -41 -62 -58 -29 29 44 50 43 28 80 vhcurveto
          167 97 rmoveto
          126 -61 67 -138 -62 -61 -15 -20 -33 vhcurveto
          -93 vlineto
          25 38 56 19 53 hhcurveto
          81 27 -40 -65 hvcurveto
          -28 -82 vlineto
          -133 -78 -58 -97 -87 62 -60 97 66 45 30 37 26 hvcurveto
          -48 vlineto
          -52 -33 -48 -52 -65 94 callsubr
          54 45 60 32 hvcurveto
          endchar
        </CharString>
        <CharString name="apostrophemod">
          123 callgsubr
        </CharString>
        <CharString name="approxequal">
          58 499 306 82 callsubr
          -66 89 hhcurveto
          68 45 41 51 33 hvcurveto
          -67 251 82 callsubr
          -65 89 hhcurveto
          68 45 40 51 33 hvcurveto
          endchar
        </CharString>
        <CharString name="aring">
          -52 256 718 1 callgsubr
          80 -322 -98 callgsubr
        </CharString>
        <CharString name="asciicircum">
          -81 428 332 rmoveto
          -142 262 rlineto
          -100 hlineto
          -145 -262 rlineto
          96 hlineto
          99 190 97 -190 rlineto
          endchar
        </CharString>
        <CharString name="asciitilde">
          64 510 341 rmoveto
          -35 -24 -28 -24 -43 -68 -47 66 -106 hhcurveto
          -63 -57 -42 -57 -40 hvcurveto
          66 -56 rlineto
          46 34 34 20 44 66 57 -67 94 hhcurveto
          71 47 44 52 34 hvcurveto
          endchar
        </CharString>
        <CharString name="asterisk">
          -114 276 471 rmoveto
          11 14 1 5 15 hvcurveto
          92 30 -25 76 -92 -29 -18 -6 -13 -8 -10 -8 rlinecurve
          5 12 3 15 18 vvcurveto
          97 -80 -97 vlineto
          -19 4 -15 5 -13 vhcurveto
          -10 9 -14 8 -17 6 -93 30 rcurveline
          -24 -76 92 -31 rlineto
          -5 15 13 -1 12 hhcurveto
          6 hlineto
          -12 -8 -11 -10 -10 -14 -58 -78 rcurveline
          65 -47 58 78 10 14 7 13 3 13 rlinecurve
          4 -12 6 -14 10 -14 57 -78 rcurveline
          64 47 -56 79 -11 15 -11 10 -11 7 rlinecurve
          endchar
        </CharString>
        <CharString name="at">
          375 442 89 rmoveto
          -53 -41 43 68 85 49 62 66 59 33 -37 -66 10 hvcurveto
          -1 -18 -1 -17 -1 -16 rrcurveto
          -68 -20 -51 -36 -49 hhcurveto
          173 -144 rmoveto
          -32 -60 -65 -12 -59 hhcurveto
          -150 -136 99 196 197 156 155 195 167 135 -95 -192 -102 -42 -66 -54 -44 -18 34 69 21 2 35 5 64 hvcurveto
          10 103 rlineto
          -80 hlineto
          -1 -22 -2 -21 -1 -20 rrcurveto
          44 -25 -40 23 -54 hhcurveto
          -109 -88 -91 -127 -105 60 -87 104 65 54 35 60 30 hvcurveto
          -46 14 35 -47 79 hhcurveto
          91 94 90 162 226 -178 137 -206 -243 -202 -184 -249 -211 137 -168 239 54 71 9 27 56 hvcurveto
          endchar
        </CharString>
        <CharString name="atilde">
          -52 373 701 -71 callsubr
          -93 -433 -98 callgsubr
        </CharString>
        <CharString name="b">
          31 308 79 rmoveto
          -70 -68 49 129 128 78 43 57 74 61 -59 -120 -102 -58 -68 -74 hvcurveto
          -138 628 rmoveto
          -99 -707 99 77 hlineto
          -52 33 51 -32 70 hhcurveto
          141 76 123 135 161 -92 102 -126 -65 -54 -31 -53 -34 hvcurveto
          endchar
        </CharString>
        <CharString name="backslash">
          -131 65 707 rmoveto
          -102 hlineto
          364 -810 rlineto
          101 hlineto
          endchar
        </CharString>
        <CharString name="bar">
          -308 76 -194 rmoveto
          91 889 -91 hlineto
          endchar
        </CharString>
        <CharString name="braceleft">
          -203 46 212 rmoveto
          5 11 0 -1 9 hvcurveto
          61 -9 26 -49 -54 -43 -18 -43 -49 vvcurveto
          -96 62 -62 76 17 18 3 6 18 vhcurveto
          94 vlineto
          -6 -11 -12 -3 -10 hhcurveto
          -38 -21 30 39 hvcurveto
          46 18 45 54 vvcurveto
          75 -45 60 -75 11 vhcurveto
          75 11 45 59 75 54 -18 45 47 vvcurveto
          38 21 30 38 10 12 -3 -6 11 vhcurveto
          94 vlineto
          6 -18 -18 3 -17 hhcurveto
          -76 -62 -62 -96 hvcurveto
          -49 18 -43 -43 vvcurveto
          -54 -29 -51 -58 -6 vhcurveto
          -1 -11 -9 0 -5 hhcurveto
          endchar
        </CharString>
        <CharString name="braceright">
          -203 17 610 rmoveto
          6 10 12 3 10 hhcurveto
          38 22 -30 -38 hvcurveto
          -47 -18 -45 -54 vvcurveto
          -75 45 -59 74 -11 vhcurveto
          -74 -11 -45 -60 -75 -54 18 -45 -46 vvcurveto
          -39 -22 -30 -38 -10 -12 3 6 -10 vhcurveto
          -94 vlineto
          -6 18 17 -3 17 hhcurveto
          77 61 62 96 hvcurveto
          49 -18 43 43 vvcurveto
          54 27 49 61 9 vhcurveto
          1 8 12 0 5 hhcurveto
          96 vlineto
          -5 -10 0 1 -10 hvcurveto
          -59 6 -29 51 54 43 18 43 49 vvcurveto
          96 -61 62 -77 -17 -17 -3 -6 -18 vhcurveto
          endchar
        </CharString>
        <CharString name="bracketleft">
          -226 319 620 rmoveto
          87 -246 -893 246 87 -150 719 vlineto
          endchar
        </CharString>
        <CharString name="bracketright">
          -226 252 707 rmoveto
          -245 -87 150 -719 -150 -87 245 hlineto
          endchar
        </CharString>
        <CharString name="breve">
          -107 48 798 rmoveto
          -104 61 -61 113 113 61 61 104 vhcurveto
          -78 hlineto
          -56 -30 -42 -66 -66 -30 42 56 vhcurveto
          endchar
        </CharString>
        <CharString name="brokenbar">
          -308 167 367 rmoveto
          333 -91 -333 vlineto
          91 -527 rmoveto
          333 -91 -333 vlineto
          endchar
        </CharString>
        <CharString name="bullet">
          -109 88 356 rmoveto
          -75 56 -58 77 74 58 58 75 75 -58 58 -75 -76 -56 -58 -75 vhcurveto
          endchar
        </CharString>
        <CharString name="c">
          -80 142 251 rmoveto
          97 callsubr
          90 vlineto
          -32 callgsubr
          endchar
        </CharString>
        <CharString name="cacute">
          -80 253 557 -42 callsubr
          -206 -468 rmoveto
          97 callsubr
          90 vlineto
          -32 callgsubr
          endchar
        </CharString>
        <CharString name="caron">
          -107 267 636 -79 callsubr
          endchar
        </CharString>
        <CharString name="ccaron">
          -80 427 488 rmoveto
          -32 callgsubr
          97 callsubr
          -106 160 -79 callsubr
          endchar
        </CharString>
        <CharString name="ccedilla">
          -80 142 251 rmoveto
          97 callsubr
          90 vlineto
          -32 callgsubr
          206 -374 -13 callgsubr
        </CharString>
        <CharString name="cedilla">
          -107 301 -123 -13 callgsubr
        </CharString>
        <CharString name="cent">
          -91 420 488 rmoveto
          -27 13 -27 7 -25 3 rrcurveto
          106 -84 -108 vlineto
          -138 -22 -77 -111 -1 -124 rrcurveto
          -130 82 -106 134 -21 vhcurveto
          -106 84 105 vlineto
          27 4 27 7 25 12 rrcurveto
          88 vlineto
          -18 -31 -38 -10 -33 hhcurveto
          -112 -62 76 98 -2 hvcurveto
          102 1 69 74 106 hhcurveto
          34 36 -9 -18 32 hvcurveto
          endchar
        </CharString>
        <CharString name="circumflex">
          -107 177 798 -16 callgsubr
          endchar
        </CharString>
        <CharString name="colon">
          -301 58 391 rmoveto
          125 callgsubr
          -325 vmoveto
          125 callgsubr
          endchar
        </CharString>
        <CharString name="comma">
          -306 -8 -124 150 callgsubr
        </CharString>
        <CharString name="copyright">
          221 41 337 rmoveto
          -189 156 -157 189 189 156 157 189 189 -156 156 -189 -189 -156 -156 -189 vhcurveto
          75 -1 rmoveto
          151 119 120 152 150 119 -120 -151 -151 -119 -119 -150 -152 -119 119 151 vhcurveto
          189 -1 rmoveto
          69 48 43 61 24 32 -7 -15 23 vhcurveto
          73 vlineto
          16 -29 -33 5 -23 hhcurveto
          -118 -67 -86 -98 -101 73 -80 109 31 35 8 13 22 hvcurveto
          74 vlineto
          -15 -21 -30 -10 -29 hhcurveto
          -63 -44 47 64 -1 hvcurveto
          endchar
        </CharString>
        <CharString name="currency">
          0 56 310 rmoveto
          -46 12 -43 23 -33 vhcurveto
          -59 -58 61 -59 58 58 rlineto
          -22 34 42 -11 47 hhcurveto
          46 43 12 23 34 hvcurveto
          62 -60 60 59 -61 60 rlineto
          23 34 15 44 46 vvcurveto
          45 -14 42 -21 33 vhcurveto
          58 58 -60 59 -58 -57 rlineto
          21 -35 -41 13 -47 hhcurveto
          -47 -43 -13 -24 -35 hvcurveto
          -60 60 -61 -59 60 -60 rlineto
          -22 -34 -14 -43 -45 vvcurveto
          84 2 rmoveto
          77 56 60 80 80 56 -60 -77 -78 -56 -59 -80 -80 -56 60 77 vhcurveto
          endchar
        </CharString>
        <CharString name="d">
          29 39 callsubr
          138 628 rmoveto
          -277 vlineto
          31 callsubr
          707 vlineto
          endchar
        </CharString>
        <CharString name="dagger">
          -17 495 509 rmoveto
          -186 165 -89 -165 -182 -83 182 -426 89 426 186 hlineto
          endchar
        </CharString>
        <CharString name="daggerdbl">
          -4 502 426 rmoveto
          83 -187 165 -89 -165 -181 -83 181 -170 -181 -84 181 -172 89 172 187 84 -187 170 vlineto
          endchar
        </CharString>
        <CharString name="danda">
          -169 176 hmoveto
          97 650 -97 hlineto
          endchar
        </CharString>
        <CharString name="dcaron">
          134 39 callsubr
          138 351 rmoveto
          31 callsubr
          707 -99 vlineto
          234 hmoveto
          -81 -197 rlineto
          77 hlineto
          113 197 rlineto
          endchar
        </CharString>
        <CharString name="dcroat">
          29 39 callsubr
          304 564 rmoveto
          -67 64 -99 -64 -181 -63 181 -150 hlineto
          31 callsubr
          580 67 vlineto
          endchar
        </CharString>
        <CharString name="degree">
          -171 30 520 rmoveto
          -91 68 -66 91 90 71 68 91 90 -69 67 -90 -91 -70 -69 -90 vhcurveto
          75 1 rmoveto
          48 36 39 48 48 38 -39 -48 -48 -36 -39 -48 -48 -38 39 48 vhcurveto
          endchar
        </CharString>
        <CharString name="dieresis">
          -107 51 719 -63 callsubr
          endchar
        </CharString>
        <CharString name="divide">
          13 221 518 rmoveto
          -32 27 -28 32 32 27 28 32 32 -27 27 -32 -32 -27 -27 -32 vhcurveto
          -168 -222 rmoveto
          457 88 -457 hlineto
          168 -222 rmoveto
          -32 27 -27 32 32 27 27 32 32 -27 28 -32 -32 -27 -28 -32 vhcurveto
          endchar
        </CharString>
        <CharString name="dollar">
          -44 426 647 rmoveto
          -30 15 -36 9 -35 5 rrcurveto
          109 -85 -107 vlineto
          -113 -11 -80 -67 -107 vvcurveto
          -107 78 -45 77 -35 vhcurveto
          80 -35 72 -24 -67 vvcurveto
          -61 -48 -35 -72 -65 -67 21 38 -51 vhcurveto
          -107 vlineto
          38 -22 50 -14 51 -5 rrcurveto
          -107 84 107 vlineto
          110 12 77 67 110 vvcurveto
          114 -87 44 -82 36 vhcurveto
          -71 31 -64 27 62 vvcurveto
          53 43 36 74 53 60 -17 -25 39 vhcurveto
          endchar
        </CharString>
        <CharString name="dotaccent">
          -107 161 720 30 callgsubr
        </CharString>
        <CharString name="dotlessi">
          65 callgsubr
          endchar
        </CharString>
        <CharString name="dottedcircle">
          109 139 517 rmoveto
          -26 18 -19 26 26 18 19 26 25 -18 19 -26 -26 -18 -19 -25 vhcurveto
          -82 -110 rmoveto
          -25 20 -19 26 24 20 19 25 25 -20 19 -24 -26 -20 -19 -25 vhcurveto
          -13 -126 rmoveto
          -25 19 -18 25 26 18 18 175 callgsubr
          52 -116 rmoveto
          -26 18 -18 26 25 19 18 26 25 -19 19 -25 -26 -18 -19 -25 vhcurveto
          101 -75 rmoveto
          -26 19 -20 26 25 19 20 26 24 -19 20 -25 -26 -19 -20 -24 vhcurveto
          127 -16 rmoveto
          -26 18 -18 26 26 19 18 26 26 -19 18 -26 -26 -18 -18 -26 vhcurveto
          121 53 rmoveto
          -26 19 -18 25 25 20 18 26 25 -20 19 -25 -25 -19 -19 -25 vhcurveto
          73 98 rmoveto
          -25 19 -19 26 24 19 19 25 26 -19 19 -24 -26 -19 -19 -26 vhcurveto
          10 134 rmoveto
          -26 18 -18 26 25 19 18 26 26 -19 18 -25 -26 -18 -18 -26 vhcurveto
          -50 118 rmoveto
          -25 19 -19 25 26 18 19 175 callgsubr
          -95 68 rmoveto
          -24 19 -20 26 25 18 20 24 26 -18 19 -25 -26 -19 -19 -26 vhcurveto
          -126 15 rmoveto
          -26 18 -18 26 26 18 18 26 26 -18 18 -26 -26 -18 -18 -26 vhcurveto
          endchar
        </CharString>
        <CharString name="doubledanda">
          57 176 hmoveto
          97 650 -97 hlineto
          226 -650 rmoveto
          97 650 -97 hlineto
          endchar
        </CharString>
        <CharString name="dvA">
          120 696 -19 callsubr
          -295 -91 callsubr
          112 hlineto
          endchar
        </CharString>
        <CharString name="dvAA">
          390 965 -19 callsubr
          -564 -91 callsubr
          173 -570 -28 callgsubr
        </CharString>
        <CharString name="dvAI">
          10 586 -19 callsubr
          -87 hlineto
          -103 158 rlineto
          63 -41 -48 27 -71 -17 callgsubr
          -418 -44 callsubr
        </CharString>
        <CharString name="dvAU">
          391 858 -19 callsubr
          -108 171 rlineto
          -85 callsubr
          60 49 -26 -42 59 hvcurveto
          -329 -91 callsubr
          174 123 callsubr
        </CharString>
        <CharString name="dvAbbreviationsign">
          -97 59 308 rmoveto
          -93 75 -75 93 92 75 75 93 92 -75 75 -92 -93 136 callgsubr
          47 46 38 -38 -46 -47 -38 137 callgsubr
          endchar
        </CharString>
        <CharString name="dvAnusvara">
          -551 -198 793 rmoveto
          74 callsubr
          -35 -26 -28 -35 vhcurveto
          endchar
        </CharString>
        <CharString name="dvAnusvara.amI">
          -551 -56 871 rmoveto
          74 callsubr
          -35 -26 -28 -35 vhcurveto
          endchar
        </CharString>
        <CharString name="dvAvagraha">
          -60 247 -3 rmoveto
          148 64 85 88 hvcurveto
          177 -322 76 95 vvcurveto
          32 24 13 30 vhcurveto
          238 87 -248 hlineto
          -93 -53 -49 -78 hvcurveto
          -172 325 -62 -121 vvcurveto
          -44 -34 -40 -78 -70 -86 31 39 -60 vhcurveto
          -102 vlineto
          -24 42 75 -31 98 hhcurveto
          endchar
        </CharString>
        <CharString name="dvB">
          -167 408 -19 callsubr
          -432 -80 432 hlineto
          -36 -390 -82 callgsubr
          294 -97 rmoveto
          -14 -20 -15 -21 -18 -17 -98 callsubr
          115 79 62 81 49 hvcurveto
          endchar
        </CharString>
        <CharString name="dvBA">
          69 369 183 -37 callsubr
          -669 -80 461 -268 hlineto
          20 callgsubr
        </CharString>
        <CharString name="dvBH">
          -216 431 356 rmoveto
          -232 -63 callgsubr
          232 hlineto
          endchar
        </CharString>
        <CharString name="dvBHA">
          14 383 356 rmoveto
          -184 -63 callgsubr
          184 -277 126 callsubr
          80 -207 hlineto
          endchar
        </CharString>
        <CharString name="dvBH_LA">
          523 1098 -19 callsubr
          -790 -80 582 56 callsubr
          -80 -57 -45 -71 -25 hvcurveto
          -197 -63 callgsubr
          182 -13 hlineto
          9 callsubr
          vhcurveto
          -96 callsubr
        </CharString>
        <CharString name="dvBH_NA">
          21 390 -19 callsubr
          -248 -184 126 vlineto
          82 -37 45 -85 -28 -29 -7 -10 -18 vhcurveto
          -78 vlineto
          8 14 21 6 21 hhcurveto
          33 13 -20 -40 hvcurveto
          -117 vlineto
          -27 -6 -17 -22 -10 callsubr
          184 -82 hlineto
          -233 -149 rlineto
          -35 -22 -15 -24 -28 vvcurveto
          -51 52 -48 42 -21 vhcurveto
          59 37 rlineto
          -24 20 -24 28 26 vvcurveto
          15 9 13 15 10 vhcurveto
          154 98 rlineto
          -145 119 callsubr
        </CharString>
        <CharString name="dvBH_R">
          -173 211 402 rmoveto
          126 vlineto
          -11 callsubr
          197 hlineto
          -341 -363 rlineto
          130 hlineto
          323 363 rlineto
          79 vlineto
          endchar
        </CharString>
        <CharString name="dvBH_RA">
          26 394 -19 callsubr
          1 -248 rlineto
          -184 126 hlineto
          -11 callsubr
          184 -60 hlineto
          -345 -303 rlineto
          134 hlineto
          211 186 rlineto
          -146 77 callsubr
          80 vlineto
          endchar
        </CharString>
        <CharString name="dvBH_R_YA">
          434 803 -106 callsubr
          -469 80 rmoveto
          -80 196 vlineto
          -81 callgsubr
          -32 -18 -28 -38 -22 vhcurveto
          -293 126 hlineto
          -11 callsubr
          197 hlineto
          -341 -363 rlineto
          130 hlineto
          246 276 rlineto
          -76 45 74 -41 83 -103 callsubr
          80 vlineto
          endchar
        </CharString>
        <CharString name="dvBH_VA">
          363 939 -19 callsubr
          -631 -80 423 -73 callsubr
          -94 -72 -51 -75 -27 hvcurveto
          -188 -63 callgsubr
          176 hlineto
          -121 4 94 -67 104 hhcurveto
          -59 callgsubr
        </CharString>
        <CharString name="dvBH_YA">
          412 780 342 38 callgsubr
          2 -13 rlineto
          -180 -63 callgsubr
          201 hlineto
          -103 41 85 -55 96 -103 callsubr
          80 vlineto
          endchar
        </CharString>
        <CharString name="dvB_BA">
          462 762 183 rmoveto
          -17 -26 151 callgsubr
          33 9 28 15 21 hvcurveto
          -190 -189 -82 callgsubr
          869 281 rmoveto
          -1062 -80 854 11 callgsubr
          -132 -91 -89 -122 -14 1 -14 3 -13 hvcurveto
          -9 -12 -10 -12 -11 -10 -98 callsubr
          89 67 37 54 48 hvcurveto
          -57 40 67 -34 73 hhcurveto
          75 60 31 43 37 hvcurveto
          -153 96 -82 callsubr
        </CharString>
        <CharString name="dvB_BHA">
          402 372 180 -82 callgsubr
          602 281 rmoveto
          -294 -184 172 172 callsubr
          -19 -20 -4 -5 -17 vhcurveto
          4 -432 -80 414 -10 vlineto
          8 14 21 6 20 45 callgsubr
          -162 162 callgsubr
          -23 -29 vvcurveto
          -11 2 -12 4 -12 vhcurveto
          -11 -16 -13 -15 -14 -14 -98 callsubr
          94 69 41 59 50 hvcurveto
          16 -36 rlineto
          84 134 184 -277 126 callsubr
          80 hlineto
          endchar
        </CharString>
        <CharString name="dvB_BH_RA">
          389 372 180 -82 callgsubr
          588 281 rmoveto
          1 -248 rlineto
          -184 126 hlineto
          107 callsubr
          -14 -15 -2 -3 -14 vhcurveto
          0 -432 -80 400 -10 vlineto
          8 76 callsubr
          6 1 hlineto
          2 8 8 1 8 45 callgsubr
          -117 vlineto
          -26 -6 -18 -22 -29 vvcurveto
          -22 10 -26 12 -30 vhcurveto
          -12 -17 -13 -16 -15 -15 -98 callsubr
          99 72 46 64 49 hvcurveto
          80 72 callsubr
        </CharString>
        <CharString name="dvB_DA">
          396 372 180 -82 callgsubr
          685 32 rmoveto
          169 118 80 -996 -80 781 40 callsubr
          -14 1 -14 3 -13 hvcurveto
          -6 -7 -6 -6 -6 -6 -98 callsubr
          80 63 30 46 47 hvcurveto
          -53 36 61 -34 79 hhcurveto
          52 57 19 34 26 hvcurveto
          -80 callgsubr
          endchar
        </CharString>
        <CharString name="dvB_DHA">
          475 372 180 -82 callgsubr
          881 281 -22 callsubr
          -703 -80 534 28 callsubr
          -71 -7 -54 -37 -9 -65 -10 -12 -10 -12 -11 -11 -98 callsubr
          80 63 30 46 47 hvcurveto
          -55 32 69 -34 91 hhcurveto
          85 69 37 48 33 hvcurveto
          -151 12 callgsubr
        </CharString>
        <CharString name="dvB_DH_VA">
          837 372 180 -82 callgsubr
          1243 281 rmoveto
          -571 -80 363 -8 callsubr
          -122 -83 -85 -112 -21 3 -20 5 -18 hvcurveto
          -49 -51 -60 -30 -78 -65 callsubr
          -703 -80 534 28 callsubr
          -71 -7 -54 -37 -9 -65 -10 -12 -10 -12 -11 -11 -98 callsubr
          80 63 30 46 47 hvcurveto
          -55 32 70 -34 94 hhcurveto
          101 79 38 49 57 hvcurveto
          -42 38 56 -22 59 74 callgsubr
        </CharString>
        <CharString name="dvB_JA">
          490 372 180 -82 callgsubr
          897 281 rmoveto
          -1090 -80 882 -115 -375 126 callgsubr
          -24 -22 3 6 -21 hvcurveto
          22 21 18 23 16 26 -54 50 rcurveline
          -14 -20 -15 -21 -18 -17 -98 callsubr
          57 48 15 25 40 hvcurveto
          -36 -31 callsubr
        </CharString>
        <CharString name="dvB_JHA">
          582 652 322 rmoveto
          -6 callgsubr
          161 -248 vlineto
          -577 -142 -82 callgsubr
          989 281 rmoveto
          -1182 -80 716 -66 -78 hlineto
          -101 -75 -44 -92 151 callsubr
          hvcurveto
          75 -4 35 -27 -45 vvcurveto
          -49 -35 -28 -51 -58 -54 39 53 -23 vhcurveto
          -28 hlineto
          11 13 10 14 9 15 -54 50 rcurveline
          -14 -20 -15 -21 -18 -17 -98 callsubr
          61 50 17 29 42 hvcurveto
          -174 95 104 vlineto
          25 callsubr
          137 -245 98 31 callgsubr
        </CharString>
        <CharString name="dvB_J_YA">
          857 1225 342 rmoveto
          -88 -60 -51 -86 -6 callsubr
          171 hlineto
          -853 -390 -82 callgsubr
          1263 281 rmoveto
          -1456 -80 976 44 callgsubr
          -36 -24 -32 -49 -23 vhcurveto
          19 -17 -54 43 -121 hhcurveto
          -233 126 callgsubr
          -24 -23 3 6 -20 hvcurveto
          21 21 19 23 15 26 -54 50 rcurveline
          -14 -20 -15 -21 -18 -17 -98 callsubr
          57 49 15 26 40 hvcurveto
          -37 -11 callgsubr
          47 hlineto
          54 32 -12 -10 18 hvcurveto
          -151 24 99 -82 119 hhcurveto
          71 57 26 42 30 169 callgsubr
        </CharString>
        <CharString name="dvB_JxA">
          501 372 180 -82 callgsubr
          908 281 rmoveto
          -1101 -80 893 -115 -375 126 callgsubr
          -27 -25 4 8 -23 hvcurveto
          21 20 17 22 15 25 -54 50 rcurveline
          -14 -20 -15 -21 -18 -17 -98 callsubr
          62 52 18 30 42 hvcurveto
          -44 -31 callsubr
        </CharString>
        <CharString name="dvB_LA">
          584 372 180 -82 callgsubr
          990 281 rmoveto
          -1183 -80 975 56 callsubr
          -110 -67 -86 -122 -7 0 -7 1 -6 hvcurveto
          -9 -11 -8 -10 -10 -9 -98 callsubr
          79 62 29 45 47 hvcurveto
          -93 36 82 -60 114 -78 callgsubr
        </CharString>
        <CharString name="dvB_L_YA">
          918 1287 -106 callsubr
          -915 -390 -82 callgsubr
          1325 281 rmoveto
          -1518 -80 1038 44 callgsubr
          -20 -7 -19 -15 -16 vhcurveto
          29 -29 -40 19 -54 hhcurveto
          -73 -53 -29 callgsubr
          -110 -67 -86 -122 -7 0 -7 1 -6 hvcurveto
          -9 -11 -8 -10 -10 -9 -98 callsubr
          79 62 29 45 47 hvcurveto
          -93 36 82 -60 114 hhcurveto
          -102 callsubr
          84 38 35 62 19 16 -5 -8 14 vhcurveto
          -20 -7 -23 -6 -26 -4 rrcurveto
          -162 20 103 -88 122 -103 callsubr
          vlineto
          endchar
        </CharString>
        <CharString name="dvB_NA">
          75 374 182 rmoveto
          -16 -25 151 callgsubr
          32 8 28 16 22 hvcurveto
          475 281 rmoveto
          -674 -80 466 -268 hlineto
          -30 -10 -29 -17 -24 vhcurveto
          -198 185 rlineto
          -94 callgsubr
          -29 4 -28 hhcurveto
          -133 -90 -89 -122 -111 78 -78 97 -17 hvcurveto
          -44 -25 rlineto
          -42 -23 -15 -28 -29 vvcurveto
          -50 46 -45 39 -22 vhcurveto
          59 36 rlineto
          -19 19 -22 24 25 vvcurveto
          14 6 14 13 10 vhcurveto
          157 118 rlineto
          0 vlineto
          13 10 11 10 10 11 rrcurveto
          -152 97 -14 callsubr
        </CharString>
        <CharString name="dvB_R">
          -176 399 -19 callsubr
          -423 -80 423 hlineto
          -25 -387 rmoveto
          -17 -26 -31 139 callgsubr
          32 8 28 16 22 hvcurveto
          280 -88 rmoveto
          -12 -23 -14 -21 -14 -17 -198 184 rcurveline
          -94 callgsubr
          -29 4 -28 hhcurveto
          -133 -90 -89 -122 -113 83 -80 102 -10 hvcurveto
          -165 -151 rlineto
          133 hlineto
          300 276 rlineto
          endchar
        </CharString>
        <CharString name="dvB_RA">
          75 375 183 107 callgsubr
          -675 -80 467 -270 hlineto
          61 callgsubr
          -133 -90 -89 -122 -113 83 -79 100 -11 hvcurveto
          -163 -151 rlineto
          133 hlineto
          235 218 rlineto
          -153 96 -82 callsubr
        </CharString>
        <CharString name="dvB_SA">
          497 660 118 callsubr
          181 -231 vlineto
          -493 -159 -82 callgsubr
          903 281 rmoveto
          -1096 -80 612 81 callgsubr
          -67 -73 hlineto
          21 -30 -9 -12 -10 -12 -11 -10 48 callgsubr
          70 43 61 49 hvcurveto
          124 -183 rlineto
          117 hlineto
          -185 268 rlineto
          -5 34 51 -4 72 hhcurveto
          163 -259 96 31 callgsubr
        </CharString>
        <CharString name="dvB_SHA">
          536 408 -19 callsubr
          -432 -80 432 hlineto
          -36 -390 -82 callgsubr
          411 72 rmoveto
          13 callsubr
          6 -7 -7 -9 -8 -9 -9 -8 48 callgsubr
          71 43 62 49 hvcurveto
          165 -184 -40 callsubr
          416 209 rmoveto
          -650 97 -45 callgsubr
        </CharString>
        <CharString name="dvB_TA">
          426 372 180 -82 callgsubr
          832 281 rmoveto
          -1025 -80 817 -112 -95 hlineto
          -169 -82 -90 -125 -5 hvcurveto
          -8 -10 -8 -10 -10 -9 -98 callsubr
          75 60 26 41 46 hvcurveto
          -87 27 72 -59 106 5 callsubr
        </CharString>
        <CharString name="dvB_VA">
          420 372 180 -82 callgsubr
          827 281 rmoveto
          -1020 -80 812 7 callgsubr
          -17 2 -16 3 -15 hvcurveto
          -6 -8 -7 -8 -8 -7 -98 callsubr
          85 65 34 50 48 hvcurveto
          -48 38 60 -26 64 hhcurveto
          -59 callgsubr
        </CharString>
        <CharString name="dvB_YA">
          443 811 -106 callsubr
          -439 -390 -82 callgsubr
          849 281 rmoveto
          -1042 -80 562 hlineto
          -91 callgsubr
          6 -47 13 -41 18 -34 -9 -12 -9 -11 -11 -10 -98 callsubr
          96 72 44 62 49 hvcurveto
          -44 44 56 -22 62 -103 callsubr
          vlineto
          endchar
        </CharString>
        <CharString name="dvC">
          -152 423 -19 callsubr
          -447 -80 447 hlineto
          62 -268 rmoveto
          -65 -28 -71 -62 -90 -46 callgsubr
          124 90 76 74 29 vhcurveto
          endchar
        </CharString>
        <CharString name="dvCA">
          91 666 -19 callsubr
          -690 -80 482 49 callsubr
          -81 134 vlineto
          -42 -22 -29 -39 -59 vvcurveto
          -98 77 -64 110 vhcurveto
          95 1 58 61 callsubr
        </CharString>
        <CharString name="dvCH">
          82 657 153 callsubr
          -681 -80 140 vlineto
          -12 callsubr
          107 -67 70 -118 112 callgsubr
          vhcurveto
          -40 callgsubr
          37 82 -31 hlineto
          21 callgsubr
          endchar
        </CharString>
        <CharString name="dvCHA">
          88 424 489 -75 callgsubr
          -687 -80 140 vlineto
          -12 callsubr
          68 -27 52 -49 30 vhcurveto
          107 vlineto
          endchar
        </CharString>
        <CharString name="dvCH_RA">
          93 429 489 rmoveto
          77 callgsubr
          19 3 16 -51 callsubr
          38 82 -32 hlineto
          110 callgsubr
          hlineto
          239 hmoveto
          80 -692 -80 145 vlineto
          25 callgsubr
          80 callsubr
        </CharString>
        <CharString name="dvCH_R_YA">
          668 1036 282 rmoveto
          -83 -50 -60 -87 -66 -47 34 57 -14 vhcurveto
          71 23 59 52 67 vvcurveto
          72 -50 54 -133 -50 -87 -13 -25 -59 vhcurveto
          -4 3 rlineto
          107 517 vlineto
          -735 -263 rmoveto
          82 -32 vlineto
          110 callgsubr
          -81 hlineto
          77 callgsubr
          19 3 16 -51 callsubr
          989 343 rmoveto
          -1276 -80 145 hlineto
          25 callgsubr
          31 -6 29 -11 24 vhcurveto
          15 49 54 10 40 116 callgsubr
          71 52 30 38 26 168 callgsubr
        </CharString>
        <CharString name="dvCH_YA">
          665 1033 95 callgsubr
          -51 -87 -14 -24 -60 vhcurveto
          -5 3 rlineto
          107 519 vlineto
          -738 -263 rmoveto
          82 -31 vlineto
          110 callgsubr
          -81 hlineto
          1 -6 -7 0 -6 hhcurveto
          -20 -26 -2 -5 -14 hvcurveto
          -40 callgsubr
          992 343 rmoveto
          -1274 -80 140 hlineto
          -12 callsubr
          31 -6 28 -11 24 vhcurveto
          16 50 55 10 41 hhcurveto
          48 37 -16 -32 -53 -67 -27 -80 -15 hvcurveto
          -156 19 95 -69 114 hhcurveto
          71 52 30 38 25 hvcurveto
          -122 96 570 121 vlineto
          endchar
        </CharString>
        <CharString name="dvC_CA">
          459 1035 -19 callsubr
          -1059 -80 851 -244 hlineto
          -66 -54 -85 -111 110 callsubr
          vhcurveto
          81 -317 -81 105 vlineto
          -42 -22 -30 -39 -59 vvcurveto
          -3 vlineto
          -46 -36 -57 -35 -68 -46 callgsubr
          82 67 33 44 45 vhcurveto
          -48 31 59 -29 74 hhcurveto
          94 1 59 61 callsubr
        </CharString>
        <CharString name="dvC_CHA">
          485 821 489 -75 callgsubr
          -1084 -80 537 vlineto
          -28 -25 -13 -36 -35 vvcurveto
          -71 50 -46 56 -6 vhcurveto
          -60 -6 -44 -32 -13 -52 rrcurveto
          -45 -33 -60 -41 -72 -46 callgsubr
          75 63 28 38 44 vhcurveto
          -70 32 88 -38 105 hhcurveto
          85 callsubr
          68 -27 52 -49 30 hvcurveto
          107 vlineto
          endchar
        </CharString>
        <CharString name="dvC_CH_VA">
          499 846 489 rmoveto
          77 callgsubr
          19 3 16 hhcurveto
          66 36 -38 -63 -99 -86 -65 -115 -98 -68 35 62 42 38 30 64 hvcurveto
          38 82 -32 hlineto
          -52 -41 27 53 39 18 31 37 23 hvcurveto
          229 hlineto
          -5 -577 rmoveto
          -73 -56 -67 -84 -70 -48 38 69 69 50 36 70 vhcurveto
          0 9 vlineto
          46 44 8 16 39 hvcurveto
          233 481 rmoveto
          80 -1098 -80 531 vlineto
          -28 -25 -13 -33 -35 vvcurveto
          -71 50 -43 56 -6 vhcurveto
          -65 -6 -51 -40 -5 -63 rrcurveto
          -39 -34 -56 -34 -65 -46 callgsubr
          76 63 29 39 44 vhcurveto
          19 -30 30 -23 38 -17 rrcurveto
          -44 -31 -27 -47 -56 vvcurveto
          -121 96 -65 105 72 52 29 43 30 vhcurveto
          -156 95 456 vlineto
          47 43 29 58 67 vvcurveto
          67 -27 52 -49 29 vhcurveto
          107 vlineto
          endchar
        </CharString>
        <CharString name="dvC_MA">
          416 785 -29 callsubr
          206 80 rmoveto
          -1015 -80 519 -220 hlineto
          -27 -7 -17 -19 -28 vvcurveto
          -11 3 -13 4 -15 vhcurveto
          -46 -35 -58 -36 -69 -46 callgsubr
          87 71 38 48 44 vhcurveto
          18 -41 rlineto
          134 callsubr
        </CharString>
        <CharString name="dvC_NA">
          96 672 -19 callsubr
          -696 -80 488 -244 hlineto
          -66 -54 -85 -111 110 callsubr
          vhcurveto
          81 -347 -81 135 vlineto
          -43 -22 -29 -39 -59 vvcurveto
          -83 56 -59 85 -16 vhcurveto
          -68 -38 rlineto
          -34 -20 -15 -24 -30 vvcurveto
          -50 47 -47 42 -25 vhcurveto
          59 39 rlineto
          -22 22 -25 32 26 vvcurveto
          13 6 10 13 8 vhcurveto
          168 111 26 15 19 19 13 20 rlinecurve
          -182 96 -82 callsubr
        </CharString>
        <CharString name="dvC_R">
          -134 442 -19 callsubr
          -466 -80 466 hlineto
          51 -257 rmoveto
          -74 -43 -72 -64 -82 hhcurveto
          110 callsubr
          hvcurveto
          81 -347 -81 135 vlineto
          -42 -22 -30 -39 -59 vvcurveto
          -91 70 -60 89 -7 vhcurveto
          -164 -146 rlineto
          132 hlineto
          322 283 rlineto
          endchar
        </CharString>
        <CharString name="dvC_RA">
          93 669 -19 callsubr
          -693 -80 485 -254 hlineto
          -68 -65 -73 -100 110 callsubr
          vhcurveto
          81 -347 -81 135 vlineto
          -42 -22 -30 -39 -59 vvcurveto
          -88 64 -59 91 -11 vhcurveto
          -165 -146 rlineto
          131 hlineto
          249 219 rlineto
          -174 97 -14 callsubr
        </CharString>
        <CharString name="dvC_YA">
          473 841 -106 callsubr
          87 callgsubr
          -1072 -80 592 hlineto
          -91 callgsubr
          5 -38 9 -34 13 -30 rrcurveto
          -51 -35 -61 -41 -73 -46 callgsubr
          99 77 48 57 42 vhcurveto
          -54 45 64 -29 69 -103 callsubr
          vlineto
          endchar
        </CharString>
        <CharString name="dvCandrabindu">
          24 callgsubr
        </CharString>
        <CharString name="dvD">
          7 628 -245 29 callgsubr
          -535 895 22 callsubr
        </CharString>
        <CharString name="dvDA">
          7 -24 650 22 callsubr
        </CharString>
        <CharString name="dvDA_mvR">
          -67 389 570 rmoveto
          119 80 -532 -80 318 -76 hlineto
          2 -17 -19 1 -18 hhcurveto
          -108 -65 -50 -73 -64 44 -38 70 -6 hvcurveto
          -75 -7 -46 -44 -68 vvcurveto
          -94 98 -46 117 64 64 19 21 34 vhcurveto
          89 vlineto
          -27 -38 -61 -24 -63 hhcurveto
          -67 -51 19 48 45 40 28 73 hvcurveto
          67 82 -63 hlineto
          -75 -33 24 37 41 41 19 61 1 hvcurveto
          35 55 -6 -12 31 hvcurveto
          endchar
        </CharString>
        <CharString name="dvDD">
          -27 214 -67 5 callgsubr
          96 637 75 callgsubr
          -90 -79 -43 -95 76 callgsubr
          hvcurveto
          -94 callsubr
        </CharString>
        <CharString name="dvDDA">
          -27 409 570 75 callgsubr
          -90 -79 -43 -95 76 callgsubr
          hvcurveto
          -94 callsubr
        </CharString>
        <CharString name="dvDDH">
          7 494 -218 29 callgsubr
          -111 426 -53 callsubr
          endchar
        </CharString>
        <CharString name="dvDDHA">
          7 266 208 -53 callsubr
          endchar
        </CharString>
        <CharString name="dvDDH_DDHA">
          31 462 570 rmoveto
          144 80 -630 -80 390 -66 hlineto
          1 -13 -14 0 -13 hhcurveto
          -150 -1 -119 -73 -129 vvcurveto
          -83 53 -58 71 -31 vhcurveto
          -73 -32 -44 -58 -67 vvcurveto
          -125 120 -69 138 124 101 60 88 71 -59 43 -94 -39 -44 -10 -14 -26 vhcurveto
          -75 vlineto
          13 23 44 13 35 hhcurveto
          41 26 -16 -30 -40 -63 -24 -66 -95 -68 45 70 81 72 35 87 13 hvcurveto
          116 102 52 87 76 -63 42 -92 -44 -39 -10 -13 -25 hvcurveto
          -75 vlineto
          13 25 38 12 38 hhcurveto
          43 25 -17 -28 -46 -54 -15 -73 -88 -75 42 79 85 86 43 113 36 41 -5 -6 31 hvcurveto
          endchar
        </CharString>
        <CharString name="dvDDH_R">
          9 249 -191 5 callgsubr
          93 761 -24 callgsubr
        </CharString>
        <CharString name="dvDDH_RA">
          9 441 570 -24 callgsubr
        </CharString>
        <CharString name="dvDDH_YA">
          564 601 414 rmoveto
          62 40 -14 -37 -53 -67 -21 -80 -16 hvcurveto
          -155 20 94 156 callsubr
          -61 callsubr
          80 -1164 -80 369 -92 vlineto
          -174 -16 -124 -73 -148 vvcurveto
          -133 109 -91 144 50 callsubr
          -75 vlineto
          13 18 33 11 31 hhcurveto
          42 26 -24 -32 -52 -51 -28 -62 -92 -65 61 85 126 134 27 168 12 hvcurveto
          5 55 56 2 42 hhcurveto
          -160 156 rmoveto
          491 -288 hlineto
          -83 -50 -60 -86 -67 -46 29 56 -14 vhcurveto
          71 23 58 48 67 vvcurveto
          79 -58 51 -133 -41 -69 -1 -5 -56 vhcurveto
          endchar
        </CharString>
        <CharString name="dvDDHxA">
          7 266 208 -53 callsubr
          -29 -412 rmoveto
          -34 25 -25 34 33 27 25 34 33 -27 27 -33 -18 callsubr
          vhcurveto
          endchar
        </CharString>
        <CharString name="dvDD_DDA">
          7 440 432 rmoveto
          138 142 80 -606 -80 368 -58 -109 vlineto
          -93 -82 -33 -92 -60 46 -54 108 hvcurveto
          34 40 6 46 hhcurveto
          42 23 -17 -29 -42 -51 -15 -76 -66 -93 25 33 -52 hvcurveto
          -93 vlineto
          17 -9 22 -8 25 -8 rrcurveto
          -27 -17 -17 -32 -31 vvcurveto
          -65 58 -42 94 vhcurveto
          20 64 8 28 hhcurveto
          42 -1 20 -18 -27 vvcurveto
          -41 -48 -20 -68 -76 -92 22 35 -57 vhcurveto
          -92 vlineto
          -29 58 89 -17 75 hhcurveto
          130 85 55 94 66 -48 50 -97 2 hvcurveto
          -31 -63 -7 -18 hhcurveto
          -53 1 -14 17 22 vvcurveto
          23 17 18 28 8 vhcurveto
          -2 17 17 -1 17 hhcurveto
          128 91 46 96 1 hvcurveto
          68 -47 51 -89 vhcurveto
          -56 -40 -5 -27 hhcurveto
          -62 -15 18 21 30 28 12 54 hvcurveto
          endchar
        </CharString>
        <CharString name="dvDD_DDHA">
          9 448 432 rmoveto
          138 136 80 -608 -80 375 -58 -108 vlineto
          -92 -84 -34 -91 -65 54 -51 99 hvcurveto
          33 40 7 48 hhcurveto
          41 25 -16 -29 -42 -51 -15 -77 -65 -93 25 33 -53 hvcurveto
          -93 vlineto
          21 -11 29 -10 32 -8 rrcurveto
          -55 -32 -34 -51 -64 vvcurveto
          -121 103 -72 137 124 88 60 88 73 -61 41 -87 -35 -40 -11 -14 -26 vhcurveto
          -75 vlineto
          14 18 39 13 32 hhcurveto
          41 25 -16 -30 -41 -49 -23 -66 -91 -53 44 70 82 62 35 86 14 hvcurveto
          113 6 82 47 88 vvcurveto
          68 -46 52 -99 vhcurveto
          -52 -49 -6 -25 hhcurveto
          -52 -13 18 21 30 31 12 50 hvcurveto
          endchar
        </CharString>
        <CharString name="dvDD_R">
          -24 208 -209 5 callgsubr
          104 779 -27 callgsubr
        </CharString>
        <CharString name="dvDD_RA">
          -24 411 570 -27 callgsubr
        </CharString>
        <CharString name="dvDD_VA">
          10 372 22 rmoveto
          -76 -38 -58 -80 -56 -43 33 60 60 39 40 67 4 vhcurveto
          -1 9 9 0 8 hhcurveto
          28 30 3 6 27 hvcurveto
          86 339 rmoveto
          138 127 80 -609 -80 385 -58 -118 vlineto
          -93 -83 -39 -92 -63 48 -51 106 hvcurveto
          34 39 6 48 hhcurveto
          42 27 -17 -31 hvcurveto
          -47 -1 -56 -13 -70 hhcurveto
          -66 -97 25 33 -53 hvcurveto
          -93 vlineto
          17 -9 22 -8 25 -7 rrcurveto
          -46 -26 -28 -43 -59 vvcurveto
          -103 84 -65 102 56 43 21 35 29 vhcurveto
          -114 93 384 vlineto
          26 23 17 31 42 vvcurveto
          67 -50 53 -94 vhcurveto
          -66 -42 -5 -30 hhcurveto
          -46 -13 18 23 30 30 14 51 hvcurveto
          endchar
        </CharString>
        <CharString name="dvDD_YA">
          530 898 282 rmoveto
          -78 -50 -65 -86 -63 -49 31 55 -14 vhcurveto
          74 20 54 51 65 vvcurveto
          81 -58 51 -135 vhcurveto
          -160 77 487 hlineto
          87 callgsubr
          -1129 -80 339 -76 160 callsubr
          -84 67 -53 85 -3 hvcurveto
          88 7 rlineto
          46 -1 28 -23 -39 vvcurveto
          -56 -50 -24 -69 -69 -72 24 34 -53 vhcurveto
          -93 vlineto
          -25 48 68 -21 81 hhcurveto
          118 95 60 101 1 hvcurveto
          83 -51 57 -110 2 vhcurveto
          -87 -6 rlineto
          -40 1 -26 22 39 vvcurveto
          41 38 15 37 vhcurveto
          338 hlineto
          70 31 -20 -36 -49 -67 -20 -78 -12 hvcurveto
          -151 19 97 -72 110 hhcurveto
          70 57 32 36 22 hvcurveto
          -122 12 callgsubr
        </CharString>
        <CharString name="dvDDxA">
          -27 247 -75 -101 callgsubr
          162 645 75 callgsubr
          -90 -79 -43 -95 76 callgsubr
          hvcurveto
          -94 callsubr
        </CharString>
        <CharString name="dvDH">
          -126 512 278 rmoveto
          -80 -59 -72 -51 -102 -55 callsubr
          135 96 67 73 55 vhcurveto
          endchar
        </CharString>
        <CharString name="dvDHA">
          86 661 650 -22 callsubr
          -314 -80 145 hlineto
          -34 callsubr
          84 -66 127 85 69 37 48 33 vhcurveto
          -151 12 callgsubr
        </CharString>
        <CharString name="dvDH_MA">
          429 798 356 rmoveto
          -194 214 194 hlineto
          -377 80 rmoveto
          -80 87 -218 vlineto
          -26 -7 -17 -22 -29 vvcurveto
          -17 5 -19 8 -21 vhcurveto
          -56 -52 -64 -34 -83 -55 callsubr
          104 81 40 52 57 vhcurveto
          8 -17 rlineto
          83 130 194 -271 96 70 callsubr
        </CharString>
        <CharString name="dvDH_NA">
          91 667 133 callgsubr
          29 52 48 49 30 71 vhcurveto
          -1 callsubr
          180 131 rlineto
          1 vlineto
          20 13 16 16 12 17 rrcurveto
          -167 12 callgsubr
        </CharString>
        <CharString name="dvDH_N_YA">
          457 825 342 38 callgsubr
          6 -47 13 -41 18 -34 rrcurveto
          -49 -48 -56 -36 -75 hhcurveto
          -75 -45 29 52 48 49 30 71 hvcurveto
          -1 callsubr
          176 128 35 19 31 25 28 27 rlinecurve
          -45 44 58 -24 63 -103 callsubr
          80 vlineto
          endchar
        </CharString>
        <CharString name="dvDH_R">
          -106 511 314 rmoveto
          -93 -61 -77 -59 -93 hhcurveto
          -75 -45 28 50 51 50 31 70 hvcurveto
          48 callsubr
          -91 79 -58 112 -2 vhcurveto
          -155 -129 rlineto
          136 hlineto
          340 298 rlineto
          endchar
        </CharString>
        <CharString name="dvDH_RA">
          91 667 133 callgsubr
          28 50 51 50 31 70 vhcurveto
          48 callsubr
          -86 71 -56 107 -9 vhcurveto
          -151 -129 rlineto
          134 hlineto
          237 205 rlineto
          -160 159 callsubr
        </CharString>
        <CharString name="dvDH_VA">
          457 1032 -19 callsubr
          -571 -80 363 -8 callsubr
          -122 -83 -85 -112 -18 2 -17 4 -16 hvcurveto
          -54 -52 -62 -33 -82 -55 callsubr
          104 81 40 52 57 vhcurveto
          -45 38 58 -24 61 74 callgsubr
        </CharString>
        <CharString name="dvDH_YA">
          479 847 138 callgsubr
          -6 callsubr
          170 hlineto
          -418 80 rmoveto
          -80 146 -74 callgsubr
          6 -49 13 -42 20 -35 rrcurveto
          -60 -54 -65 -36 -86 -55 callsubr
          118 88 51 61 57 vhcurveto
          -39 43 54 -20 59 136 callsubr
          97 -45 callgsubr
        </CharString>
        <CharString name="dvD_BA">
          42 416 144 callsubr
          5 4 1 4 hhcurveto
          8 hlineto
          51 62 19 34 26 hvcurveto
          -51 -210 rmoveto
          -15 -22 -27 -8 -27 hhcurveto
          -60 -46 33 56 26 10 24 18 16 167 callgsubr
          -641 -80 432 -90 -108 vlineto
          -151 -91 134 callgsubr
          -94 82 -63 103 59 50 23 37 33 vhcurveto
          3 -3 rlineto
          -92 96 482 -94 vlineto
          -69 -5 -53 -39 -74 hhcurveto
          -74 177 callgsubr
        </CharString>
        <CharString name="dvD_BHA">
          183 638 401 rmoveto
          169 120 80 -782 -80 565 135 callgsubr
          -87 47 -74 78 -30 hvcurveto
          -98 -52 -41 78 rlineto
          45 -24 -30 24 -41 hhcurveto
          -43 -45 -26 -37 -25 hvcurveto
          35 -63 rlineto
          17 12 24 22 23 hhcurveto
          19 11 -12 -24 12 hvcurveto
          36 -70 rlineto
          -11 -10 -6 -13 -13 vvcurveto
          -33 45 -36 67 -45 vhcurveto
          65 35 -50 96 204 109 34 8 30 16 17 22 rlinecurve
          -131 96 271 -94 vlineto
          -68 -4 88 callgsubr
        </CharString>
        <CharString name="dvD_B_RA">
          39 414 144 callsubr
          4 4 1 5 hhcurveto
          7 hlineto
          52 62 19 34 26 hvcurveto
          -51 -210 rmoveto
          -15 -22 -28 -8 -27 hhcurveto
          -60 -45 33 56 26 10 23 18 17 167 callgsubr
          -639 -80 429 -90 -107 vlineto
          -152 -90 134 callgsubr
          -80 59 -58 82 -15 vhcurveto
          -124 -100 rlineto
          123 hlineto
          156 129 rlineto
          -1 hlineto
          11 8 11 10 9 10 4 -4 rcurveline
          -92 95 482 -93 vlineto
          -69 -5 -53 -39 -75 hhcurveto
          -73 177 callgsubr
        </CharString>
        <CharString name="dvD_DA">
          -15 435 570 rmoveto
          126 80 -585 -80 363 -69 hlineto
          3 -23 -25 2 -23 hhcurveto
          -127 -73 -53 -80 -59 42 -44 69 -3 hvcurveto
          -68 -6 -47 -51 -64 vvcurveto
          -87 78 -52 92 57 63 26 38 22 vhcurveto
          -106 96 241 -94 vlineto
          -82 -10 -58 -39 -61 hhcurveto
          -53 -35 26 43 44 41 31 66 hvcurveto
          45 81 -49 hlineto
          -57 -38 17 41 39 44 22 65 53 59 -11 -14 45 hvcurveto
          endchar
        </CharString>
        <CharString name="dvD_DHA">
          191 296 112 rmoveto
          23 -18 28 -14 33 -7 rrcurveto
          -73 -14 -40 -40 -43 166 callsubr
          366 302 rmoveto
          169 120 80 -790 -80 573 135 callgsubr
          -39 9 -36 17 -31 hvcurveto
          -11 -9 rlineto
          -15 -18 -27 -7 -21 hhcurveto
          -28 -22 14 28 54 46 6 1 79 hvcurveto
          -79 27 rlineto
          -1 -89 -54 -14 -69 vvcurveto
          -67 50 -36 59 14 16 2 6 14 vhcurveto
          -22 -22 -9 -31 -31 vvcurveto
          -66 54 -42 66 82 74 62 121 24 vhcurveto
          44 5 45 18 22 29 rrcurveto
          -131 96 271 -94 vlineto
          -68 -4 88 callgsubr
        </CharString>
        <CharString name="dvD_GA">
          15 472 54 callgsubr
          -614 -80 399 135 callgsubr
          -90 50 -76 84 -28 hvcurveto
          -81 vlineto
          -38 -10 -17 -36 -29 -25 13 0 vhcurveto
          -77 vlineto
          -8 21 22 -5 29 hhcurveto
          75 44 41 82 hvcurveto
          79 vlineto
          48 3 48 18 24 31 rrcurveto
          -131 96 271 115 callgsubr
          88 callgsubr
        </CharString>
        <CharString name="dvD_GHA">
          179 277 119 rmoveto
          23 -21 29 -15 33 -8 rrcurveto
          -69 -15 -39 -37 -41 166 callsubr
          -53 166 rmoveto
          -35 8 -33 14 -29 vhcurveto
          -12 -10 rlineto
          -13 -17 -23 -8 -22 hhcurveto
          -30 -26 15 34 43 48 33 60 5 hvcurveto
          424 125 rmoveto
          169 120 80 -779 -80 562 -90 -95 vlineto
          -119 -75 -54 -80 -27 hvcurveto
          -95 -1 -111 -53 -107 vvcurveto
          -67 52 -39 59 14 16 2 5 14 vhcurveto
          -22 -22 -8 -30 -31 vvcurveto
          -67 53 -42 66 80 73 59 116 25 vhcurveto
          47 3 47 19 23 30 rrcurveto
          -131 96 271 115 callgsubr
          -48 -44 -73 hhcurveto
          -72 -48 46 82 77 53 47 85 hvcurveto
          endchar
        </CharString>
        <CharString name="dvD_G_RA">
          58 475 401 rmoveto
          169 158 80 -657 -80 402 40 callsubr
          -83 42 -68 72 -34 hvcurveto
          -87 vlineto
          -38 -9 -17 -36 -29 -24 13 0 vhcurveto
          -75 vlineto
          -8 20 22 -4 28 hhcurveto
          73 44 39 80 hvcurveto
          76 vlineto
          -1 7 6 0 7 hhcurveto
          27 26 5 7 22 hvcurveto
          -130 vlineto
          -244 -190 rlineto
          121 hlineto
          123 99 rlineto
          -77 87 367 vlineto
          60 -158 rlineto
          95 hlineto
          -104 271 rlineto
          -84 hlineto
          -69 -5 -48 -43 -76 hhcurveto
          -73 -49 46 82 77 54 47 84 hvcurveto
          endchar
        </CharString>
        <CharString name="dvD_MA">
          214 583 113 rmoveto
          -152 200 -93 hlineto
          -58 -7 -50 -34 -53 hhcurveto
          -55 -43 33 59 69 52 33 83 hvcurveto
          165 155 153 hlineto
          206 80 rmoveto
          -813 -80 357 -75 -74 hlineto
          -145 -82 -71 -112 -103 75 -70 103 54 50 23 35 21 hvcurveto
          -88 162 callgsubr
          -22 -29 vvcurveto
          -32 26 -45 30 -55 vhcurveto
          83 109 152 -186 95 727 111 hlineto
          endchar
        </CharString>
        <CharString name="dvD_NA">
          17 475 54 callgsubr
          -617 -80 402 40 callsubr
          -97 57 -80 96 -22 hvcurveto
          -66 -39 rlineto
          -40 -24 -18 -25 -32 vvcurveto
          -45 39 -44 47 -28 vhcurveto
          59 37 rlineto
          -23 21 -19 23 25 vvcurveto
          16 9 13 13 9 vhcurveto
          165 115 rlineto
          1 vlineto
          10 6 9 8 7 9 rrcurveto
          -80 callgsubr
          endchar
        </CharString>
        <CharString name="dvD_R">
          12 514 -291 29 callgsubr
          -421 941 11 callsubr
        </CharString>
        <CharString name="dvD_RA">
          12 -24 650 11 callsubr
        </CharString>
        <CharString name="dvD_VA">
          16 393 71 callgsubr
          -616 -80 399 -90 -89 vlineto
          -152 -86 -86 -117 -74 34 -64 63 -34 hvcurveto
          49 callgsubr
        </CharString>
        <CharString name="dvD_YA">
          117 485 303 rmoveto
          -107 -100 -59 -105 -62 -57 17 44 48 58 12 64 vhcurveto
          45 82 -45 hlineto
          -68 -45 16 40 33 26 24 60 33 39 -6 -12 34 hvcurveto
          135 123 vlineto
          87 callgsubr
          -716 -80 290 -55 hlineto
          1 -11 -12 1 -12 hhcurveto
          -100 -60 -51 -67 -63 55 -32 63 -4 hvcurveto
          -67 -2 -58 -38 -65 vvcurveto
          -94 98 -45 115 98 76 42 44 34 vhcurveto
          -142 12 callgsubr
        </CharString>
        <CharString name="dvE">
          10 586 -19 callsubr
          -610 -44 callsubr
        </CharString>
        <CharString name="dvEcandra">
          10 396 904 rmoveto
          -53 -33 -40 -64 -65 -32 171 callsubr
          83 -53 109 103 88 57 110 vhcurveto
          96 -254 rmoveto
          -610 -44 callsubr
        </CharString>
        <CharString name="dvEight">
          -9 269 75 rmoveto
          -84 -38 46 51 56 35 52 87 3 hvcurveto
          88 -2 37 -48 -54 vvcurveto
          -54 -39 -50 -86 vhcurveto
          -1 504 rmoveto
          80 32 -50 -53 -70 -49 -34 -60 -62 -51 31 72 53 37 51 73 hvcurveto
          114 -250 rmoveto
          60 28 37 50 66 vvcurveto
          130 -101 60 -110 -109 -101 -67 -124 -69 38 -50 61 -26 vhcurveto
          -65 -25 -44 -53 -81 vvcurveto
          -110 94 -67 126 128 98 70 112 85 -45 49 -67 22 vhcurveto
          endchar
        </CharString>
        <CharString name="dvEyelash">
          -357 9 382 rmoveto
          -85 vlineto
          -16 31 40 -11 54 hhcurveto
          75 62 23 20 37 hvcurveto
          -23 80 rlineto
          -23 -40 -52 -22 -61 hhcurveto
          -59 -40 18 16 -24 hvcurveto
          209 188 rmoveto
          80 -242 -80 vlineto
          endchar
        </CharString>
        <CharString name="dvEyelash_HA">
          179 646 92 callsubr
          109 80 -779 -80 575 -79 -167 vlineto
          -74 -57 -36 -70 -4 0 -4 1 -4 hvcurveto
          -14 -34 -40 -11 -44 hhcurveto
          -59 -44 18 16 -24 hvcurveto
          -85 vlineto
          -16 31 45 -11 53 hhcurveto
          61 51 14 15 37 hvcurveto
          11 -12 13 -9 10 -7 rrcurveto
          -43 -32 -21 -44 -46 vvcurveto
          -88 80 -95 173 41 36 3 13 58 vhcurveto
          81 vlineto
          -14 -54 -40 -4 -35 hhcurveto
          -117 -46 46 57 48 44 43 87 61 28 -30 -35 -14 -2 -21 -10 -16 hvcurveto
          94 hlineto
          9 18 2 22 17 vvcurveto
          72 -62 66 -118 -35 -32 -4 -8 -27 vhcurveto
          -21 12 -20 24 31 vvcurveto
          32 22 8 29 vhcurveto
          endchar
        </CharString>
        <CharString name="dvEyelash_YA">
          252 620 138 callgsubr
          -6 callsubr
          170 hlineto
          208 80 rmoveto
          -852 -80 372 hlineto
          -58 callsubr
          -52 -44 -108 -19 vhcurveto
          0 vlineto
          -5 -23 -25 -2 -24 hhcurveto
          -50 -48 10 22 -39 hvcurveto
          -84 vlineto
          -18 35 48 -9 51 hhcurveto
          35 32 4 6 25 hvcurveto
          -114 38 88 -59 102 136 callsubr
          97 -14 callsubr
        </CharString>
        <CharString name="dvFive">
          -26 190 19 callsubr
        </CharString>
        <CharString name="dvFour">
          22 147 238 rmoveto
          198 359 rlineto
          -359 vlineto
          189 hmoveto
          -92 417 -158 164 callsubr
          97 153 92 vlineto
          endchar
        </CharString>
        <CharString name="dvG">
          -241 334 -19 callsubr
          -358 -80 167 -221 hlineto
          -96 callgsubr
          95 vlineto
          endchar
        </CharString>
        <CharString name="dvGA">
          26 -24 650 rmoveto
          -30 callgsubr
          156 -570 95 131 callgsubr
        </CharString>
        <CharString name="dvGH">
          -192 428 241 rmoveto
          -49 -36 -59 -25 -64 hhcurveto
          81 callsubr
          hvcurveto
          56 83 -46 hlineto
          40 callgsubr
          170 80 -407 -80 130 hlineto
          -10 callgsubr
          84 72 33 53 45 vhcurveto
          endchar
        </CharString>
        <CharString name="dvGHA">
          90 458 53 callgsubr
          -689 -80 130 hlineto
          -10 callgsubr
          86 75 36 50 37 vhcurveto
          -172 12 callgsubr
        </CharString>
        <CharString name="dvGH_MA">
          369 738 -29 callsubr
          -412 -237 rmoveto
          83 -46 vlineto
          40 callgsubr
          235 -220 hlineto
          -27 -7 -17 -19 -28 vvcurveto
          -18 7 -22 10 -24 vhcurveto
          -43 -36 -56 -22 -60 hhcurveto
          81 callsubr
          hvcurveto
          674 317 rmoveto
          -968 -80 130 hlineto
          -10 callgsubr
          78 68 29 46 45 vhcurveto
          9 -19 rlineto
          134 callsubr
        </CharString>
        <CharString name="dvGH_NA">
          93 461 333 rmoveto
          -95 -81 -71 -108 81 callsubr
          vhcurveto
          56 83 -46 hlineto
          -65 -50 21 55 34 18 25 30 19 hvcurveto
          245 hlineto
          87 callgsubr
          -692 -80 133 hlineto
          98 callgsubr
          -68 56 -38 64 -4 vhcurveto
          -75 -9 -53 -48 -74 vvcurveto
          -85 64 -56 93 -13 vhcurveto
          -62 -36 rlineto
          -34 -21 -15 -23 -29 vvcurveto
          -51 50 -48 43 -24 vhcurveto
          60 39 rlineto
          -25 25 -25 30 25 vvcurveto
          13 6 12 14 9 vhcurveto
          170 112 25 13 20 18 14 19 rlinecurve
          -172 12 callgsubr
        </CharString>
        <CharString name="dvGH_R">
          -150 492 326 rmoveto
          -70 -33 -77 -89 -107 hhcurveto
          -57 -56 24 57 54 44 31 70 hvcurveto
          56 83 -46 hlineto
          40 callgsubr
          206 80 -449 62 callsubr
          132 hlineto
          320 276 rlineto
          endchar
        </CharString>
        <CharString name="dvGH_RA">
          95 464 333 rmoveto
          -95 -82 -71 -107 -57 -56 24 57 54 44 31 70 vhcurveto
          56 83 -46 hlineto
          40 callgsubr
          245 hlineto
          87 callgsubr
          -695 62 callsubr
          130 hlineto
          243 215 rlineto
          -170 159 callsubr
        </CharString>
        <CharString name="dvGH_YA">
          436 804 -106 callsubr
          -478 -237 rmoveto
          83 -46 vlineto
          40 callgsubr
          318 hlineto
          -91 callgsubr
          6 -46 12 -40 18 -34 rrcurveto
          -52 -41 -56 -30 -71 hhcurveto
          81 callsubr
          hvcurveto
          741 317 rmoveto
          -1035 -80 130 hlineto
          -10 callgsubr
          96 72 41 62 52 vhcurveto
          -46 44 58 -24 64 -103 callsubr
          vlineto
          endchar
        </CharString>
        <CharString name="dvG_BA">
          370 670 183 -37 callsubr
          -970 -80 167 -221 hlineto
          -96 callgsubr
          499 -268 vlineto
          20 callgsubr
        </CharString>
        <CharString name="dvG_BHA">
          316 685 90 callsubr
          -15 -15 -2 -4 -14 vhcurveto
          1 -358 -30 callgsubr
          65 -10 vlineto
          7 4 9 4 9 2 rrcurveto
          5 1 hlineto
          2 8 9 1 8 hhcurveto
          34 12 -20 -40 hvcurveto
          -162 69 callsubr
        </CharString>
        <CharString name="dvG_BH_YA">
          682 1050 28 callgsubr
          -409 80 rmoveto
          -80 137 91 callsubr
          2 -13 rlineto
          -134 59 callsubr
          -20 -21 -4 -6 -17 vhcurveto
          5 -358 -30 callgsubr
          79 -10 vlineto
          8 14 21 6 20 -41 callgsubr
          155 hlineto
          -103 42 84 -55 96 -103 callsubr
          80 vlineto
          endchar
        </CharString>
        <CharString name="dvG_DA">
          320 778 54 callgsubr
          -920 -30 callgsubr
          442 40 callsubr
          83 callsubr
          hvcurveto
          -80 callgsubr
          endchar
        </CharString>
        <CharString name="dvG_DHA">
          378 953 650 -22 callsubr
          -606 -80 167 -221 hlineto
          -96 callgsubr
          174 vlineto
          -34 callsubr
          84 -66 127 85 69 37 48 33 vhcurveto
          -151 12 callgsubr
        </CharString>
        <CharString name="dvG_DH_VA">
          766 1341 -19 callsubr
          -570 -80 362 86 callgsubr
          -83 -69 -50 45 73 69 51 44 63 22 20 -3 -6 17 177 callsubr
          -17 174 callgsubr
          -23 3 -20 6 -19 hvcurveto
          -48 -50 -59 -28 -76 -65 callsubr
          -637 -80 167 -221 hlineto
          -96 callgsubr
          205 vlineto
          -26 callsubr
          99 79 36 49 56 vhcurveto
          -41 38 55 -21 58 74 callgsubr
        </CharString>
        <CharString name="dvG_DH_YA">
          779 1147 -106 callsubr
          -403 80 rmoveto
          -80 130 -74 callgsubr
          7 -56 17 -47 24 -38 rrcurveto
          -51 -51 -60 -30 -79 -65 callsubr
          -637 -80 167 -221 hlineto
          -96 callgsubr
          205 vlineto
          -26 callsubr
          111 84 45 56 57 vhcurveto
          -31 41 49 -17 53 -103 callsubr
          80 vlineto
          endchar
        </CharString>
        <CharString name="dvG_GA">
          335 911 -19 callsubr
          -935 -80 167 -221 hlineto
          -96 callgsubr
          213 -221 55 callsubr
        </CharString>
        <CharString name="dvG_GHA">
          392 760 53 callgsubr
          -991 -80 167 -221 hlineto
          -96 callgsubr
          169 vlineto
          -10 callgsubr
          86 75 36 50 37 vhcurveto
          -172 12 callgsubr
        </CharString>
        <CharString name="dvG_JA">
          416 991 -19 callsubr
          -1015 -80 167 -221 hlineto
          -96 callgsubr
          544 -115 -375 -81 vlineto
          -104 callsubr
          185 -374 -61 callsubr
          hlineto
          endchar
        </CharString>
        <CharString name="dvG_LA">
          499 1074 -19 callsubr
          -1098 -80 167 -221 hlineto
          -96 callgsubr
          627 -101 vlineto
          5 -15 -17 3 -19 hhcurveto
          -75 -52 -107 callsubr
          38 35 65 16 15 -3 -4 13 vhcurveto
          -392 -61 callsubr
          vlineto
          endchar
        </CharString>
        <CharString name="dvG_MA">
          323 692 -29 callsubr
          206 80 rmoveto
          -922 -80 167 -221 hlineto
          -96 callgsubr
          163 -220 vlineto
          -60 callsubr
          hlineto
          endchar
        </CharString>
        <CharString name="dvG_NA">
          32 172 callgsubr
          172 -221 vlineto
          -39 -16 -22 -39 -30 -27 -17 callsubr
          22 25 -5 30 hhcurveto
          81 50 46 89 hvcurveto
          228 156 -327 vlineto
          -238 -146 rlineto
          -35 -21 -16 -23 -29 vvcurveto
          -52 56 -47 40 -22 vhcurveto
          58 38 rlineto
          -22 20 -29 28 26 vvcurveto
          12 6 11 12 8 vhcurveto
          168 103 rlineto
          -149 119 callsubr
        </CharString>
        <CharString name="dvG_NNA">
          519 642 346 -64 callgsubr
          453 80 rmoveto
          -1119 -80 167 -221 hlineto
          -96 callgsubr
          143 -220 29 callsubr
        </CharString>
        <CharString name="dvG_N_YA">
          658 1027 -106 callsubr
          87 callgsubr
          -1258 -80 167 -221 hlineto
          -96 callgsubr
          515 vlineto
          -81 callgsubr
          -40 -30 -36 -62 -23 vhcurveto
          20 -30 -50 21 -74 hhcurveto
          -96 94 callgsubr
          60 hlineto
          57 26 -16 -10 11 hvcurveto
          -131 33 94 -70 109 -103 callsubr
          vlineto
          endchar
        </CharString>
        <CharString name="dvG_R">
          23 callsubr
          endchar
        </CharString>
        <CharString name="dvG_RA">
          36 -24 650 18 callsubr
        </CharString>
        <CharString name="dvG_R_YA">
          439 807 -106 callsubr
          87 callgsubr
          -1038 -80 176 -221 hlineto
          -39 -16 -22 -39 -30 -28 -17 callsubr
          23 24 -5 31 hhcurveto
          81 50 46 89 hvcurveto
          228 286 -74 callgsubr
          3 -22 4 -21 6 -20 -376 -326 rcurveline
          133 hlineto
          282 241 rlineto
          -67 46 70 -35 77 -103 callsubr
          vlineto
          endchar
        </CharString>
        <CharString name="dvG_SA">
          431 594 118 callsubr
          181 -231 vlineto
          207 311 rmoveto
          -1030 -80 167 -221 hlineto
          -96 callgsubr
          283 -130 vlineto
          -27 callsubr
          -73 hlineto
          -101 callsubr
          163 -259 96 31 callgsubr
        </CharString>
        <CharString name="dvG_VA">
          344 920 -19 callsubr
          -944 -80 167 -221 hlineto
          -96 callgsubr
          473 -263 vlineto
          -24 callsubr
        </CharString>
        <CharString name="dvG_YA">
          399 767 -106 callsubr
          87 callgsubr
          -998 -80 167 -221 hlineto
          -96 callgsubr
          255 -74 callgsubr
          -162 20 103 -88 122 -103 callsubr
          vlineto
          endchar
        </CharString>
        <CharString name="dvGx">
          -231 139 87 -101 callgsubr
          206 563 rmoveto
          -369 -80 167 -221 hlineto
          -96 callgsubr
          106 vlineto
          endchar
        </CharString>
        <CharString name="dvGxA">
          26 139 87 -101 callgsubr
          -163 563 rmoveto
          -30 callgsubr
          156 -570 95 131 callgsubr
        </CharString>
        <CharString name="dvGx_R">
          23 callsubr
          -103 -227 -101 callgsubr
          endchar
        </CharString>
        <CharString name="dvGx_RA">
          36 311 -25 -101 callgsubr
          -335 675 18 callsubr
        </CharString>
        <CharString name="dvH">
          -75 561 239 rmoveto
          78 -269 vlineto
          -35 -31 -4 -8 -27 hvcurveto
          -21 12 -21 24 32 vvcurveto
          32 23 8 28 vhcurveto
          245 157 48 80 -525 -80 381 -79 -166 hlineto
          -75 -57 -36 -70 -62 42 -35 26 -16 hvcurveto
          -42 -32 -22 -44 -47 vvcurveto
          -93 83 -90 171 152 callgsubr
          vhcurveto
          81 vlineto
          -14 -55 -39 -4 -35 hhcurveto
          -115 -48 43 60 51 43 40 87 hvcurveto
          endchar
        </CharString>
        <CharString name="dvHA">
          -15 42 callsubr
          -62 42 -35 27 -16 hvcurveto
          -43 -32 -22 -45 -46 vvcurveto
          -88 80 -95 174 152 callgsubr
          vhcurveto
          -74 callsubr
        </CharString>
        <CharString name="dvHA_mU">
          -16 42 callsubr
          -62 42 -33 26 -16 hvcurveto
          -43 -33 -21 -46 -46 vvcurveto
          -109 84 -63 109 -6 vhcurveto
          4 10 -1 1 4 hvcurveto
          10 14 22 8 18 hhcurveto
          38 31 -17 -41 -37 -29 -32 -65 -61 -84 34 38 -53 hvcurveto
          -95 vlineto
          -34 52 79 -22 70 hhcurveto
          119 66 66 87 77 -58 55 -94 -26 -33 -10 -9 -15 hvcurveto
          -71 3 -34 40 56 vvcurveto
          48 43 46 87 61 28 -28 -37 -14 -3 -17 -9 -13 vhcurveto
          95 hlineto
          6 15 3 18 17 vvcurveto
          70 -55 69 -124 -36 -32 -5 -8 -27 vhcurveto
          -21 12 -19 22 30 vvcurveto
          32 23 8 28 vhcurveto
          endchar
        </CharString>
        <CharString name="dvHA_mUU">
          -15 42 callsubr
          -61 40 -34 27 -17 hvcurveto
          -42 -32 -21 -44 -45 vvcurveto
          -63 38 -56 65 -24 vhcurveto
          -26 -24 -15 -32 -36 vvcurveto
          -95 73 -45 85 12 20 1 6 16 vhcurveto
          76 vlineto
          -5 -12 -12 -2 -14 hhcurveto
          -40 -35 21 41 36 28 24 41 105 46 -101 -110 1 hvcurveto
          89 hlineto
          110 -46 179 -195 vhcurveto
          -78 2 -49 39 57 vvcurveto
          46 39 42 84 66 31 -29 -36 -14 -3 -21 -10 -16 vhcurveto
          95 hlineto
          8 18 2 22 17 vvcurveto
          74 -64 64 -124 -33 -29 -4 -7 -25 146 callsubr
        </CharString>
        <CharString name="dvHA_mvR">
          -24 418 92 callsubr
          133 80 -575 -80 346 -79 -134 vlineto
          -74 -58 -36 -70 -61 41 -35 26 -16 hvcurveto
          -48 -39 -24 -55 -56 vvcurveto
          -147 135 -79 162 29 28 3 7 29 vhcurveto
          75 vlineto
          -7 -26 -30 -2 -23 hhcurveto
          -143 -64 72 74 72 57 58 87 27 6 -10 -13 hvcurveto
          -27 -64 -37 -44 vvcurveto
          -55 56 -23 54 47 43 11 15 29 vhcurveto
          76 vlineto
          -19 -29 -39 -11 -32 hhcurveto
          -23 -14 5 15 hvcurveto
          28 66 38 49 vvcurveto
          47 -39 33 -80 -42 -37 -6 -12 -31 vhcurveto
          -19 13 -16 23 28 114 callsubr
        </CharString>
        <CharString name="dvH_LA">
          66 508 92 callsubr
          134 80 -666 -80 436 -79 -213 vlineto
          -75 -57 -36 -70 -65 46 -35 25 -15 hvcurveto
          -55 -45 -27 -65 -72 vvcurveto
          -162 123 -102 174 24 29 2 4 19 vhcurveto
          76 vlineto
          -4 -16 -25 -2 -23 hhcurveto
          -136 -74 80 104 95 59 70 122 59 43 -16 -29 26 hvcurveto
          -4 hlineto
          -35 -30 -20 -30 -7 hvcurveto
          25 -7 -28 22 -41 hhcurveto
          -60 -38 -46 -67 -86 62 -48 87 hvcurveto
          8 9 1 7 hhcurveto
          55 vlineto
          -1 -5 -7 0 -7 hhcurveto
          -54 -32 27 51 35 13 21 22 27 9 -19 -30 hvcurveto
          -30 69 28 vlineto
          35 12 22 33 9 9 -2 -2 7 vhcurveto
          3 -12 1 -13 -14 vvcurveto
          -51 -12 -50 -16 -36 vhcurveto
          89 hlineto
          18 39 10 51 52 vvcurveto
          131 -100 86 -149 -49 -43 -8 -13 -35 146 callsubr
        </CharString>
        <CharString name="dvH_MA">
          220 589 192 rmoveto
          -132 13 hlineto
          71 -59 48 -103 -30 -28 -4 -7 -25 vhcurveto
          -20 11 -18 19 30 vvcurveto
          32 22 8 28 vhcurveto
          214 157 151 hlineto
          206 80 rmoveto
          -819 -80 366 -79 -135 hlineto
          -74 -58 -36 -70 -62 41 -30 27 -15 hvcurveto
          -47 -36 -26 -55 -63 vvcurveto
          -152 125 -105 161 24 27 3 5 23 vhcurveto
          79 vlineto
          -4 -18 -22 -2 -21 hhcurveto
          -122 -80 74 97 80 51 48 74 49 23 -19 -29 hvcurveto
          -9 vlineto
          -25 -6 -17 -20 -28 vvcurveto
          -28 27 -42 27 -49 vhcurveto
          81 90 132 -155 95 618 111 hlineto
          endchar
        </CharString>
        <CharString name="dvH_NA">
          71 504 92 callsubr
          142 80 -670 -80 432 -79 -211 vlineto
          -74 -58 -36 -70 -64 48 -38 27 -18 hvcurveto
          -59 -41 -27 -62 -66 vvcurveto
          -154 142 -92 161 31 22 0 8 37 vhcurveto
          77 vlineto
          -7 -26 -29 -2 -28 hhcurveto
          -133 -80 76 90 79 57 68 124 37 30 -6 -11 24 hvcurveto
          -118 -55 rlineto
          -37 -17 -18 -22 -30 vvcurveto
          -45 49 -49 25 -19 vhcurveto
          63 29 rlineto
          -24 28 -16 29 18 vvcurveto
          14 7 8 14 6 vhcurveto
          114 52 rlineto
          8 -16 4 -16 -18 vvcurveto
          -28 -5 -24 -6 -17 vhcurveto
          90 hlineto
          6 16 4 31 29 vvcurveto
          100 -80 92 -166 -49 -41 -6 -12 -36 vhcurveto
          -25 15 -22 25 33 114 callsubr
        </CharString>
        <CharString name="dvH_NNA">
          73 372 129 rmoveto
          -40 -8 -16 -30 -29 -11 16 41 vhcurveto
          113 vlineto
          1 12 12 1 14 hhcurveto
          14 14 -1 -2 12 hvcurveto
          141 171 rmoveto
          157 135 80 -672 167 callsubr
          -66 46 -35 25 -15 hvcurveto
          -54 -40 -28 -59 78 callsubr
          55 21 45 47 26 hvcurveto
          -92 vlineto
          -84 39 -33 68 72 36 39 78 vhcurveto
          88 vlineto
          35 -23 17 -36 -50 vvcurveto
          -25 -4 -28 -6 -17 vhcurveto
          89 hlineto
          6 18 4 32 25 vvcurveto
          132 -100 77 -144 -48 -41 -7 -12 -36 vhcurveto
          -21 12 -21 24 32 114 callsubr
        </CharString>
        <CharString name="dvH_RA">
          68 513 92 callsubr
          130 80 -667 167 callsubr
          -64 44 -35 26 -16 hvcurveto
          -54 -40 -27 -60 78 callsubr
          85 60 63 106 29 25 -3 -7 21 hvcurveto
          -168 -199 rlineto
          111 hlineto
          122 153 rlineto
          14 -21 7 -26 -32 vvcurveto
          -25 -4 -28 -7 -17 vhcurveto
          89 hlineto
          6 18 5 32 25 vvcurveto
          132 -100 77 -145 -45 -39 -6 -12 -34 vhcurveto
          -21 12 -19 24 31 114 callsubr
        </CharString>
        <CharString name="dvH_VA">
          53 511 92 callsubr
          117 80 -652 -80 439 -79 -213 vlineto
          -74 -58 -36 -70 -65 46 -35 26 -15 hvcurveto
          -57 -43 -29 -64 -70 vvcurveto
          -155 120 -106 179 33 30 3 9 39 vhcurveto
          77 vlineto
          -8 -27 -34 -4 -29 hhcurveto
          -126 -89 60 115 90 60 71 111 94 45 -48 -69 11 hvcurveto
          -1 1 rlineto
          -54 -7 -44 -30 -45 hhcurveto
          -39 -22 16 32 32 26 16 27 12 12 -3 -4 10 hvcurveto
          61 vlineto
          5 -12 -17 4 -20 hhcurveto
          -69 -60 -45 -68 -67 53 -48 78 46 39 17 30 28 hvcurveto
          -4 -18 -5 -18 -5 -13 rrcurveto
          90 hlineto
          11 29 11 58 37 vvcurveto
          124 -79 102 -159 -45 -39 -7 -12 -34 vhcurveto
          -21 13 -20 23 32 114 callsubr
        </CharString>
        <CharString name="dvH_YA">
          230 599 206 rmoveto
          -88 -58 -47 -68 -42 -34 19 28 -15 vhcurveto
          53 15 39 40 52 vvcurveto
          82 -73 36 -94 -38 -35 -7 -13 -31 vhcurveto
          -14 12 -10 16 22 vvcurveto
          32 23 8 28 vhcurveto
          217 157 152 hlineto
          206 80 rmoveto
          -829 -80 375 -79 -138 hlineto
          -74 -58 -36 -70 -54 32 -30 25 -17 hvcurveto
          -42 -37 -26 -53 -64 vvcurveto
          -162 137 -101 162 18 22 3 4 16 vhcurveto
          79 vlineto
          -3 -11 -19 -2 -14 hhcurveto
          -116 -98 74 103 89 61 53 89 41 22 -15 -29 -38 -42 -19 -65 -11 hvcurveto
          -111 19 89 -50 81 hhcurveto
          59 50 21 38 28 hvcurveto
          -101 95 618 111 vlineto
          endchar
        </CharString>
        <CharString name="dvI">
          -56 412 570 rmoveto
          107 80 -543 -80 340 -71 -76 16 callgsubr
          172 124 callsubr
          endchar
        </CharString>
        <CharString name="dvII">
          -56 408 570 rmoveto
          111 80 -130 hlineto
          -15 19 -21 35 34 vvcurveto
          40 24 29 43 29 29 -8 -11 19 vhcurveto
          88 vlineto
          12 -25 -29 5 -32 hhcurveto
          -92 -64 -60 -87 -45 17 -33 16 -18 hvcurveto
          -312 -80 335 -71 -71 16 callgsubr
          168 124 callsubr
          endchar
        </CharString>
        <CharString name="dvII_Anusvara">
          -34 422 570 rmoveto
          120 80 -139 hlineto
          -21 20 -31 43 53 64 callsubr
          10 -22 -33 7 -30 hhcurveto
          -103 -71 -73 -95 -58 24 -46 27 -31 hvcurveto
          -328 -80 350 -70 -88 hlineto
          -90 -79 -45 -94 -80 67 -54 85 -4 hvcurveto
          86 7 rlineto
          43 -2 25 -27 -38 vvcurveto
          -50 -38 -33 -50 -61 -51 40 52 -20 vhcurveto
          -88 -235 95 108 hlineto
          -26 35 47 -15 50 hhcurveto
          103 73 66 92 84 -50 59 -101 4 hvcurveto
          -86 -5 rlineto
          -40 1 -26 24 33 vvcurveto
          42 38 16 36 vhcurveto
          181 124 callsubr
          -17 335 rmoveto
          -29 22 -22 29 30 22 22 29 29 -22 23 -30 -29 -22 -23 -29 vhcurveto
          endchar
        </CharString>
        <CharString name="dvJ">
          -130 446 -19 callsubr
          -470 -80 470 hlineto
          108 -115 rmoveto
          -460 -81 hlineto
          -104 callsubr
          270 hlineto
          endchar
        </CharString>
        <CharString name="dvJA">
          101 172 callgsubr
          493 -115 -375 -81 vlineto
          -104 callsubr
          185 -374 119 callgsubr
        </CharString>
        <CharString name="dvJH">
          -16 660 322 rmoveto
          -376 hlineto
          -6 callgsubr
          140 80 -584 -80 348 -66 -78 vlineto
          -101 -75 -44 -92 151 callsubr
          hvcurveto
          -51 callgsubr
          216 hlineto
          endchar
        </CharString>
        <CharString name="dvJHA">
          214 284 322 rmoveto
          -6 callgsubr
          161 -248 vlineto
          209 328 rmoveto
          -814 -80 348 -66 -78 hlineto
          -101 -75 -44 -92 151 callsubr
          hvcurveto
          -51 callgsubr
          137 -245 98 31 callgsubr
        </CharString>
        <CharString name="dvJH_MA">
          557 926 -29 callsubr
          -506 -146 rmoveto
          2 vlineto
          0 vlineto
          144 216 -220 vlineto
          -18 -5 -13 -9 -7 -14 rrcurveto
          -314 hlineto
          -17 1 rlineto
          -67 3 -33 10 36 vvcurveto
          37 33 15 51 vhcurveto
          881 226 rmoveto
          -1156 -80 348 -66 -78 hlineto
          -101 -75 -44 -92 151 callsubr
          hvcurveto
          -51 callgsubr
          160 hlineto
          4 -12 6 -14 6 -13 70 callgsubr
        </CharString>
        <CharString name="dvJH_NA">
          320 307 326 rmoveto
          -18 1 rlineto
          -71 5 -35 11 35 vvcurveto
          33 31 16 54 vhcurveto
          189 143 236 -244 hlineto
          202 324 rmoveto
          -919 -80 385 -65 -99 hlineto
          -103 -73 -43 -88 -96 90 -28 104 -4 hvcurveto
          74 -4 29 -27 -45 vvcurveto
          -47 -38 -29 -50 -59 -54 38 54 -23 vhcurveto
          -88 -230 95 105 hlineto
          -27 36 51 -16 50 hhcurveto
          101 75 63 92 30 -5 25 -12 21 hvcurveto
          231 -36 hlineto
          -228 -203 rlineto
          -30 -26 -12 -27 -25 vvcurveto
          -45 39 -41 51 -23 vhcurveto
          56 35 rlineto
          -26 23 -23 24 24 vvcurveto
          13 7 11 14 15 vhcurveto
          152 145 rlineto
          -113 91 -14 callsubr
        </CharString>
        <CharString name="dvJH_R">
          62 718 246 rmoveto
          77 -444 vlineto
          113 callgsubr
          207 80 -662 -80 359 -65 -83 vlineto
          34 callgsubr
          263 -7 rmoveto
          -395 -363 rlineto
          130 hlineto
          319 294 rlineto
          endchar
        </CharString>
        <CharString name="dvJH_RA">
          303 274 323 rmoveto
          113 callgsubr
          239 -247 vlineto
          209 327 rmoveto
          -903 -80 359 -65 -83 hlineto
          34 callgsubr
          221 -46 hlineto
          -353 -324 rlineto
          130 hlineto
          223 217 rlineto
          -93 36 callsubr
        </CharString>
        <CharString name="dvJH_YA">
          609 977 -106 callsubr
          -693 -248 rmoveto
          -6 callgsubr
          284 -74 callgsubr
          2 -16 3 -16 4 -15 rrcurveto
          601 328 rmoveto
          -1208 -80 348 -66 -78 hlineto
          -101 -75 -44 -92 151 callsubr
          hvcurveto
          -51 callgsubr
          168 hlineto
          -82 45 76 -44 86 -103 callsubr
          vlineto
          endchar
        </CharString>
        <CharString name="dvJ_BA">
          502 802 183 -37 callsubr
          -1102 -80 894 11 callgsubr
          -61 -52 -19 -32 -38 hvcurveto
          6 -460 -81 vlineto
          -104 callsubr
          215 hlineto
          -11 -26 -6 -28 -31 44 callsubr
        </CharString>
        <CharString name="dvJ_DA">
          433 891 54 callgsubr
          -1027 -80 812 -90 -95 vlineto
          -56 -47 -12 -22 -36 hvcurveto
          9 -460 -81 vlineto
          -104 callsubr
          201 hlineto
          -16 -29 -8 -34 -37 vvcurveto
          83 callsubr
          vhcurveto
          -80 callgsubr
          endchar
        </CharString>
        <CharString name="dvJ_DDA">
          404 840 160 callgsubr
          -1004 -80 768 -72 -90 hlineto
          -51 -47 -14 -29 -32 hvcurveto
          -430 -81 hlineto
          -104 callsubr
          202 hlineto
          -1 -5 0 -4 -5 vvcurveto
          76 callgsubr
          vhcurveto
          -94 callsubr
        </CharString>
        <CharString name="dvJ_JA">
          501 1077 -19 callsubr
          -1101 -80 893 -115 -775 -81 hlineto
          -104 callsubr
          210 hlineto
          -104 callsubr
          185 -374 -61 callsubr
          hlineto
          endchar
        </CharString>
        <CharString name="dvJ_JHA">
          636 706 322 rmoveto
          -6 callgsubr
          161 -248 vlineto
          209 328 rmoveto
          -1236 -80 770 -66 -78 hlineto
          -61 -51 -16 -33 -32 hvcurveto
          -430 -81 hlineto
          -104 callsubr
          208 -6 hlineto
          151 callsubr
          vhcurveto
          -51 callgsubr
          137 -245 98 31 callgsubr
        </CharString>
        <CharString name="dvJ_J_NYA">
          638 1224 -19 callsubr
          -1248 -80 1028 -75 -321 hlineto
          -54 -48 -13 -27 -33 hvcurveto
          -454 -81 hlineto
          -104 callsubr
          223 hlineto
          -4 0 -3 -4 vvcurveto
          -83 64 -44 118 71 46 -15 -52 -49 -36 -32 -53 -61 -54 43 51 -21 vhcurveto
          42 callgsubr
          hlineto
          endchar
        </CharString>
        <CharString name="dvJ_J_VA">
          851 1427 -19 callsubr
          -1451 -80 1243 -73 callsubr
          -42 -37 -10 -18 -31 hvcurveto
          1 -864 -81 vlineto
          -104 callsubr
          214 hlineto
          -104 callsubr
          195 hlineto
          -13 -26 -7 -31 -32 -66 callsubr
        </CharString>
        <CharString name="dvJ_J_YA">
          898 1266 -106 callsubr
          87 callgsubr
          -1497 -80 1017 44 callgsubr
          -35 -22 -31 -47 -23 vhcurveto
          18 -20 -61 42 -115 hhcurveto
          -664 -81 hlineto
          -104 callsubr
          227 hlineto
          103 62 -43 -81 -70 -49 -37 -71 -42 -36 10 16 -31 hvcurveto
          -86 129 callsubr
          -45 26 hvcurveto
          51 hlineto
          63 31 -11 -12 21 hvcurveto
          -151 25 100 -81 117 -103 callsubr
          vlineto
          endchar
        </CharString>
        <CharString name="dvJ_KA">
          662 1238 153 callsubr
          -1262 -80 798 -297 vlineto
          -105 callgsubr
          -46 -43 -12 -23 -34 hvcurveto
          18 -460 -81 vlineto
          -104 callsubr
          211 hlineto
          -15 -27 -8 -33 -37 vvcurveto
          -109 76 -76 112 48 38 18 27 28 vhcurveto
          -92 callsubr
        </CharString>
        <CharString name="dvJ_MA">
          458 827 -29 callsubr
          206 80 rmoveto
          -1057 -80 561 -115 -443 -81 hlineto
          -104 callsubr
          253 -24 hlineto
          -60 callsubr
          hlineto
          endchar
        </CharString>
        <CharString name="dvJ_NA">
          96 172 callgsubr
          487 -115 -375 -81 vlineto
          104 62 -43 -76 -70 -49 -34 -72 -41 -36 11 16 -32 hvcurveto
          -86 vlineto
          -14 35 44 -9 44 hhcurveto
          116 84 71 104 62 -26 43 -43 25 hvcurveto
          185 -209 hlineto
          -196 -119 rlineto
          -35 -23 -14 -25 -27 vvcurveto
          -52 53 -45 40 -21 vhcurveto
          60 38 rlineto
          -24 21 -26 23 27 vvcurveto
          14 6 12 13 8 vhcurveto
          123 79 rlineto
          -75 97 -45 callgsubr
        </CharString>
        <CharString name="dvJ_NY">
          -29 546 -19 callsubr
          -576 -80 576 hlineto
          158 -173 rmoveto
          80 -455 vlineto
          21 callsubr
          endchar
        </CharString>
        <CharString name="dvJ_NYA">
          181 -30 -19 callsubr
          -80 600 -75 -321 vlineto
          -97 -79 -42 -90 -83 64 -44 118 71 46 -15 -52 -49 -36 -32 -53 -61 -54 43 51 -21 hvcurveto
          42 callgsubr
          80 hlineto
          endchar
        </CharString>
        <CharString name="dvJ_NY_YA">
          573 941 -106 callsubr
          87 callgsubr
          -1178 -80 698 44 callgsubr
          -35 -23 -32 -47 -22 vhcurveto
          47 -39 -65 35 -122 hhcurveto
          -153 hlineto
          21 callsubr
          133 hlineto
          81 45 -11 -34 28 hvcurveto
          -151 25 100 -82 118 -103 callsubr
          vlineto
          endchar
        </CharString>
        <CharString name="dvJ_R">
          157 callgsubr
          -390 -670 rmoveto
          129 hlineto
          350 301 -53 64 rlineto
          -438 190 rmoveto
          -21 callgsubr
          345 81 hlineto
          endchar
        </CharString>
        <CharString name="dvJ_RA">
          106 172 callgsubr
          498 -115 -375 -21 callgsubr
          182 -164 hlineto
          -363 -310 rlineto
          129 hlineto
          234 200 rlineto
          -100 97 -45 callgsubr
        </CharString>
        <CharString name="dvJ_TA">
          467 1042 -19 callsubr
          -1066 -80 858 -112 -95 hlineto
          -4 0 -641 -81 hlineto
          103 62 -41 -81 -70 -49 -38 -71 -42 -36 11 16 -31 hvcurveto
          -86 vlineto
          -14 35 44 -9 -28 callsubr
          71 108 61 -24 46 -43 26 hvcurveto
          244 hlineto
          -32 -38 -15 -50 -57 -83 callsubr
        </CharString>
        <CharString name="dvJ_TTA">
          365 834 570 rmoveto
          106 80 -964 -80 762 -107 -20 hlineto
          -25 -23 -3 -5 -22 hvcurveto
          -554 -81 hlineto
          -104 callsubr
          228 hlineto
          -29 -36 -16 -45 -51 -72 callgsubr
        </CharString>
        <CharString name="dvJ_VA">
          456 1031 -19 callsubr
          -1055 -80 847 -73 callsubr
          -46 -40 -12 -20 -32 hvcurveto
          5 -460 -81 vlineto
          -104 callsubr
          203 hlineto
          -13 -26 -7 -31 -32 -66 callsubr
        </CharString>
        <CharString name="dvJ_YA">
          467 835 342 rmoveto
          -88 -60 -51 -86 -6 callsubr
          171 hlineto
          87 callgsubr
          -1066 -80 586 44 callgsubr
          -36 -24 -32 -49 -23 vhcurveto
          19 -17 -54 43 -121 hhcurveto
          -233 -81 hlineto
          -104 callsubr
          47 hlineto
          54 32 -12 -10 18 hvcurveto
          -151 24 99 -82 119 hhcurveto
          71 57 26 42 30 169 callgsubr
        </CharString>
        <CharString name="dvJx">
          -122 446 -19 callsubr
          -470 -80 470 hlineto
          -286 -595 -101 callgsubr
          394 480 rmoveto
          -460 -81 hlineto
          -104 callsubr
          270 hlineto
          endchar
        </CharString>
        <CharString name="dvJxA">
          101 160 -25 -101 callgsubr
          -184 675 rmoveto
          -80 493 -115 -375 -81 vlineto
          -104 callsubr
          185 -374 119 callgsubr
        </CharString>
        <CharString name="dvJx_JxA">
          533 160 -25 -101 callgsubr
          431 hmoveto
          -18 callsubr
          -34 25 -25 34 33 27 25 34 33 -27 27 -33 hvcurveto
          517 675 rmoveto
          -1132 -80 924 -115 -806 -81 hlineto
          -104 callsubr
          241 hlineto
          -104 callsubr
          185 -374 -61 callsubr
          hlineto
          endchar
        </CharString>
        <CharString name="dvJx_R">
          157 callgsubr
          15 -573 -101 callgsubr
          -405 -97 rmoveto
          129 hlineto
          350 301 -53 64 rlineto
          -438 190 rmoveto
          -21 callgsubr
          345 81 hlineto
          endchar
        </CharString>
        <CharString name="dvJx_RA">
          106 409 -63 -101 callgsubr
          -433 713 rmoveto
          -80 498 -115 -375 -21 callgsubr
          182 -164 hlineto
          -363 -310 rlineto
          129 hlineto
          234 200 rlineto
          -100 97 -45 callgsubr
        </CharString>
        <CharString name="dvJx_YA">
          467 160 -25 -101 callgsubr
          675 367 -106 callgsubr
          87 callgsubr
          -1066 -80 586 44 callgsubr
          -26 -12 -24 -26 -20 vhcurveto
          41 -460 -81 vlineto
          -104 callsubr
          175 hlineto
          -9 -2 -9 -2 -9 -1 rrcurveto
          -162 20 103 -88 122 -103 callsubr
          vlineto
          endchar
        </CharString>
        <CharString name="dvK">
          -24 440 570 rmoveto
          111 80 -575 -58 callgsubr
          45 43 54 38 29 -17 -26 16 122 callsubr
        </CharString>
        <CharString name="dvKA">
          231 807 153 callsubr
          -831 -80 367 -297 vlineto
          -60 -46 -43 -54 -64 -41 47 61 70 47 44 65 6 8 -1 -1 5 vhcurveto
          80 vlineto
          2 -7 -8 0 -8 hhcurveto
          -114 -91 -73 -122 -109 76 -76 112 17 callgsubr
        </CharString>
        <CharString name="dvKH">
          45 537 291 rmoveto
          -99 callsubr
          118 326 80 -644 128 callgsubr
          vlineto
          -67 callgsubr
          180 122 119 146 124 -81 71 -114 -54 callsubr
          endchar
        </CharString>
        <CharString name="dvKHA">
          246 822 -19 callsubr
          -846 -80 239 -129 hlineto
          -55 -32 -36 -81 vhcurveto
          -70 -78 hlineto
          211 -272 -89 callsubr
        </CharString>
        <CharString name="dvKH_KHA">
          819 1186 463 rmoveto
          21 -29 -37 132 callsubr
          17 hvcurveto
          71 vlineto
          -6 -13 -12 -2 -12 hhcurveto
          -35 147 callgsubr
          -95 -71 -117 -121 -93 80 102 -27 hvcurveto
          1 9 1 3 hhcurveto
          83 8 27 51 89 vvcurveto
          118 324 vlineto
          -649 -279 rmoveto
          -99 callsubr
          118 472 -101 vlineto
          -62 -10 -27 -61 vhcurveto
          74 -28 -67 41 -87 -49 callgsubr
          857 430 rmoveto
          -1418 -59 callsubr
          131 101 63 91 44 hvcurveto
          -91 63 96 -63 127 hhcurveto
          92 76 34 54 50 hvcurveto
          -123 97 -14 callsubr
        </CharString>
        <CharString name="dvKH_MA">
          619 988 -29 callsubr
          -451 -279 rmoveto
          -99 callsubr
          118 404 -200 vlineto
          80 -25 -70 45 -90 -49 callgsubr
          657 430 rmoveto
          -1218 -59 callsubr
          135 102 67 95 43 hvcurveto
          24 -55 rlineto
          134 callsubr
        </CharString>
        <CharString name="dvKH_NA">
          251 618 463 rmoveto
          21 -29 -36 11 -40 -49 callgsubr
          71 vlineto
          -6 -12 -13 -2 -11 hhcurveto
          -36 147 callgsubr
          -94 -71 -118 -120 -93 80 102 -28 hvcurveto
          2 9 1 2 hhcurveto
          83 8 27 51 89 vvcurveto
          118 324 35 callgsubr
          -850 128 callgsubr
          hlineto
          -63 -9 -26 -63 vhcurveto
          -67 -78 hlineto
          40 -120 85 -100 122 -34 -109 -45 rcurveline
          -49 -16 -19 -27 -34 vvcurveto
          -46 37 -50 29 -26 vhcurveto
          67 21 rlineto
          -17 28 -17 34 22 vvcurveto
          16 8 10 17 7 vhcurveto
          276 118 rlineto
          0 vlineto
          35 15 30 22 24 26 rrcurveto
          -123 97 -14 callsubr
        </CharString>
        <CharString name="dvKH_R">
          27 530 295 -26 callgsubr
        </CharString>
        <CharString name="dvKH_RA">
          244 611 462 -48 callgsubr
          -843 -80 215 -99 hlineto
          -62 -8 -24 -63 vhcurveto
          -67 -78 hlineto
          8 callgsubr
        </CharString>
        <CharString name="dvKH_SHA">
          767 811 98 callsubr
          -61 hlineto
          105 -12 -77 59 -104 18 callgsubr
          118 326 80 -644 128 callgsubr
          vlineto
          -67 callgsubr
          143 107 76 104 37 hvcurveto
          193 -215 -40 callsubr
          416 209 rmoveto
          -650 97 -45 callgsubr
        </CharString>
        <CharString name="dvKH_TA">
          606 973 458 rmoveto
          -95 hlineto
          -85 -63 -23 -38 -43 hvcurveto
          63 -30 -64 35 -80 18 callgsubr
          118 679 35 callgsubr
          -1205 -59 callsubr
          100 81 36 58 54 hvcurveto
          -78 31 69 -51 99 5 callsubr
        </CharString>
        <CharString name="dvKH_VA">
          608 976 307 rmoveto
          -99 callgsubr
          -63 -53 -23 -38 -36 hvcurveto
          48 -34 -57 26 -69 18 callgsubr
          118 682 35 callgsubr
          -1208 -59 callsubr
          115 92 49 74 51 hvcurveto
          -45 38 58 -24 62 hhcurveto
          -59 callgsubr
        </CharString>
        <CharString name="dvKH_YA">
          649 1017 -106 callsubr
          -723 hmoveto
          450 44 callgsubr
          -38 -27 -35 -56 -22 vhcurveto
          68 -29 -66 38 -83 18 callgsubr
          930 198 rmoveto
          -1248 -59 callsubr
          135 102 67 94 43 hvcurveto
          -50 45 61 -27 67 -103 callsubr
          vlineto
          endchar
        </CharString>
        <CharString name="dvKHx">
          44 91 43 -101 callgsubr
          446 248 rmoveto
          -99 callsubr
          118 326 80 -644 128 callgsubr
          vlineto
          -67 callgsubr
          180 122 119 146 124 -81 71 -114 -54 callsubr
          endchar
        </CharString>
        <CharString name="dvKHxA">
          246 81 18 -101 callgsubr
          741 632 rmoveto
          -846 -80 239 -129 hlineto
          -55 -32 -36 -81 vhcurveto
          -70 -78 hlineto
          211 -272 -89 callsubr
        </CharString>
        <CharString name="dvKHx_MA">
          609 91 43 -101 callgsubr
          887 311 rmoveto
          -195 216 195 hlineto
          -441 -279 rmoveto
          -99 callsubr
          118 394 -174 vlineto
          64 -31 -64 35 -80 -49 callgsubr
          647 430 rmoveto
          -1208 -59 callsubr
          130 99 62 89 46 hvcurveto
          19 -44 rlineto
          134 callsubr
        </CharString>
        <CharString name="dvKHx_R">
          27 547 -60 -101 callgsubr
          -17 355 -26 callgsubr
        </CharString>
        <CharString name="dvKHx_RA">
          244 530 -35 -101 callgsubr
          81 497 -48 callgsubr
          -843 -80 215 -99 hlineto
          -62 -8 -24 -63 vhcurveto
          -67 -78 hlineto
          8 callgsubr
        </CharString>
        <CharString name="dvKHx_SA">
          710 91 43 -101 callgsubr
          782 296 rmoveto
          -80 callsubr
          181 -231 vlineto
          -541 -48 rmoveto
          -99 callsubr
          118 507 -130 vlineto
          -56 -20 -33 -76 vhcurveto
          -2 hlineto
          92 -19 -74 52 -97 -49 callgsubr
          748 430 rmoveto
          -1309 -59 callsubr
          138 104 70 98 41 hvcurveto
          137 -203 rlineto
          117 hlineto
          -185 268 rlineto
          -5 34 51 -4 72 hhcurveto
          163 -259 96 31 callgsubr
        </CharString>
        <CharString name="dvKHx_SHA">
          744 91 43 -101 callgsubr
          697 398 rmoveto
          -84 callsubr
          -38 hlineto
          105 -12 -77 59 -104 18 callgsubr
          118 326 80 -644 128 callgsubr
          vlineto
          -67 callgsubr
          135 103 67 95 42 hvcurveto
          177 -197 -40 callsubr
          416 209 rmoveto
          -650 97 -45 callgsubr
        </CharString>
        <CharString name="dvKHx_TA">
          608 91 43 -101 callgsubr
          885 415 rmoveto
          -95 hlineto
          -87 -63 -24 -39 -43 hvcurveto
          64 -30 -64 36 -81 18 callgsubr
          118 682 35 callgsubr
          -1208 -59 callsubr
          101 83 37 59 53 hvcurveto
          -79 31 69 -52 100 5 callsubr
        </CharString>
        <CharString name="dvKHx_VA">
          614 91 43 -101 callgsubr
          891 264 rmoveto
          -99 callgsubr
          -65 -54 -24 -40 -37 hvcurveto
          50 -34 -57 27 -71 18 callgsubr
          118 688 35 callgsubr
          -1214 -59 callsubr
          118 92 51 76 51 hvcurveto
          -48 37 60 -25 64 hhcurveto
          -59 callgsubr
        </CharString>
        <CharString name="dvKHx_YA">
          659 91 43 -101 callgsubr
          936 299 -106 callgsubr
          -733 hmoveto
          460 44 callgsubr
          -40 -30 -36 -62 -22 vhcurveto
          70 -28 -67 39 -84 18 callgsubr
          940 198 rmoveto
          -1258 -59 callsubr
          138 104 70 99 41 hvcurveto
          -56 46 64 -29 70 -103 callsubr
          vlineto
          endchar
        </CharString>
        <CharString name="dvK_CA">
          618 986 316 rmoveto
          -66 -54 -84 -111 -65 -46 32 60 60 47 51 143 vhcurveto
          81 -257 vlineto
          20 -26 -32 12 -43 hhcurveto
          -45 -34 -15 -24 -23 hvcurveto
          127 546 35 callgsubr
          -1218 -58 callgsubr
          31 43 54 36 19 -15 -20 17 vhcurveto
          89 hlineto
          -42 -22 -28 -39 -59 vvcurveto
          -97 78 -65 110 vhcurveto
          94 1 59 40 29 44 rrcurveto
          -172 96 -82 callsubr
        </CharString>
        <CharString name="dvK_DA">
          520 769 498 rmoveto
          -47 -44 -12 -25 -32 hvcurveto
          14 -27 -31 7 -35 -15 callgsubr
          133 419 -72 vlineto
          96 72 rmoveto
          140 80 -1119 -58 callgsubr
          45 43 54 25 22 -8 -12 16 vhcurveto
          -1 -8 -1 -8 -8 vvcurveto
          76 callgsubr
          vhcurveto
          -94 callsubr
        </CharString>
        <CharString name="dvK_JA">
          618 658 455 rmoveto
          17 -29 -36 10 -40 -15 callgsubr
          133 546 -115 vlineto
          208 195 rmoveto
          -1218 -58 callgsubr
          45 43 54 30 25 -11 -18 17 vhcurveto
          -1 1 vlineto
          4 -4 3 -4 3 -5 12 12 rcurveline
          89 -6 53 -42 -75 -56 callgsubr
        </CharString>
        <CharString name="dvK_KA">
          751 863 273 rmoveto
          -105 callgsubr
          -37 -34 -8 -14 -30 hvcurveto
          21 -30 -39 11 -43 -15 callgsubr
          133 423 vlineto
          464 hmoveto
          80 -1351 -80 367 -297 vlineto
          -107 callgsubr
          60 45 43 54 21 19 -5 -10 15 vhcurveto
          -21 -30 -12 -38 -44 vvcurveto
          -109 76 -76 112 48 38 18 27 28 vhcurveto
          -92 callsubr
        </CharString>
        <CharString name="dvK_KHA">
          828 797 441 rmoveto
          -51 -28 -35 -69 -4 vhcurveto
          82 -13 -65 49 -75 140 callgsubr
          131 357 vlineto
          607 80 rmoveto
          -1428 22 callgsubr
          42 42 55 46 30 -34 -46 1 vhcurveto
          -52 vlineto
          211 -272 -89 callsubr
        </CharString>
        <CharString name="dvK_LA">
          736 1103 469 rmoveto
          -50 callgsubr
          -38 -32 -10 -18 -27 hvcurveto
          24 -32 -41 14 -48 -15 callgsubr
          133 663 35 callgsubr
          -1335 -58 callgsubr
          45 43 54 33 26 -13 -20 17 vhcurveto
          -14 -31 -7 -36 -40 vvcurveto
          9 callsubr
          vhcurveto
          -96 callsubr
        </CharString>
        <CharString name="dvK_MA">
          561 930 -29 callsubr
          -490 hmoveto
          200 -106 hlineto
          12 -26 -29 6 -32 -15 callgsubr
          696 213 rmoveto
          -1160 -58 callgsubr
          45 43 54 38 29 -17 -26 16 vhcurveto
          18 18 rlineto
          -29 vlineto
          -60 callsubr
          hlineto
          endchar
        </CharString>
        <CharString name="dvK_NA">
          244 819 153 callsubr
          -843 -80 379 -292 vlineto
          -61 -46 -42 -53 -65 -40 44 60 71 47 42 65 6 7 -1 -1 6 84 callsubr
          -114 -92 -72 -121 -89 50 -65 78 -21 hvcurveto
          -64 -44 rlineto
          -33 -22 -14 -25 -25 vvcurveto
          -52 60 -48 43 -21 vhcurveto
          56 43 rlineto
          -24 22 -33 30 27 vvcurveto
          9 5 9 11 9 vhcurveto
          147 108 rlineto
          0 vlineto
          7 5 7 6 6 6 rrcurveto
          -141 162 callsubr
          60 46 43 54 64 41 -47 -61 -70 -47 -43 -65 -7 -7 0 1 -5 -79 callgsubr
          -76 75 -112 -48 -39 -19 -27 -27 hvcurveto
          134 vlineto
          endchar
        </CharString>
        <CharString name="dvK_NNA">
          756 879 346 -64 callgsubr
          -439 hmoveto
          179 -98 hlineto
          7 -20 -22 3 -24 -15 callgsubr
          892 213 rmoveto
          -1356 -58 callgsubr
          45 43 54 36 28 -15 -23 16 vhcurveto
          -16 29 callsubr
        </CharString>
        <CharString name="dvK_PA">
          556 923 -46 callsubr
          -483 hmoveto
          173 -96 hlineto
          5 -19 -20 3 -21 -15 callgsubr
          692 213 rmoveto
          -1156 -58 callgsubr
          45 43 54 32 25 -12 -19 17 vhcurveto
          -141 1 68 -58 113 hhcurveto
          -42 callgsubr
        </CharString>
        <CharString name="dvK_PHA">
          803 923 -16 callsubr
          -483 hmoveto
          173 -96 hlineto
          5 -19 -20 3 -21 -15 callgsubr
          938 133 rmoveto
          80 -1402 -80 367 -297 vlineto
          -107 callgsubr
          60 45 43 54 32 25 -12 -19 17 vhcurveto
          -1 vlineto
          -142 67 -53 115 57 42 20 32 29 vhcurveto
          -100 callgsubr
        </CharString>
        <CharString name="dvK_P_RA">
          558 925 -36 callgsubr
          -485 hmoveto
          175 -97 hlineto
          6 -19 -21 3 -22 -15 callgsubr
          694 213 rmoveto
          -1158 -58 callgsubr
          45 43 54 33 27 -13 -21 17 vhcurveto
          5 -109 50 -53 83 -12 -38 callsubr
        </CharString>
        <CharString name="dvK_R">
          -3 450 570 rmoveto
          122 80 -596 -80 376 -297 hlineto
          -60 callgsubr
          38 28 -17 -26 17 122 callsubr
        </CharString>
        <CharString name="dvK_RA">
          241 816 153 callsubr
          -840 -80 376 -297 vlineto
          -60 -45 -43 -54 -65 -40 47 61 70 47 44 65 6 7 -1 -1 6 vhcurveto
          80 vlineto
          2 -7 -8 0 -8 hhcurveto
          -114 -91 -73 -122 -98 62 -69 91 -13 hvcurveto
          -134 -142 rlineto
          -39 callsubr
        </CharString>
        <CharString name="dvK_SA">
          698 861 118 callsubr
          181 -231 vlineto
          -626 231 rmoveto
          349 -130 hlineto
          -50 -16 -31 -57 -7 vhcurveto
          93 -25 -66 37 -78 140 callgsubr
          833 211 rmoveto
          -1297 22 callgsubr
          40 42 56 46 37 -24 -51 6 vhcurveto
          1 -51 hlineto
          -101 callsubr
          163 -259 96 31 callgsubr
        </CharString>
        <CharString name="dvK_SHA">
          698 440 570 rmoveto
          111 80 -575 -58 callgsubr
          45 43 54 38 29 -17 -26 16 vhcurveto
          68 69 -4 4 -4 4 -4 3 rlinecurve
          64 hlineto
          13 callsubr
          221 -247 -41 callsubr
          -14 2 -15 4 -15 hvcurveto
          12 -25 -30 6 -32 -15 callgsubr
          625 213 rmoveto
          -650 97 -45 callgsubr
        </CharString>
        <CharString name="dvK_SS">
          -10 273 578 -62 callsubr
          384 -257 rmoveto
          77 -265 vlineto
          -97 callsubr
          endchar
        </CharString>
        <CharString name="dvK_SSA">
          213 273 578 -62 callsubr
          308 72 rmoveto
          -252 -189 vlineto
          -97 callsubr
          239 -321 98 70 callsubr
        </CharString>
        <CharString name="dvK_SS_MA">
          545 914 -29 callsubr
          -641 8 -62 callsubr
          223 72 rmoveto
          -80 128 -172 -232 vlineto
          -97 callsubr
          243 hlineto
          -3 -7 -2 -9 -9 -48 callsubr
          80 hlineto
          endchar
        </CharString>
        <CharString name="dvK_SS_M_YA">
          914 1283 -106 callsubr
          -572 143 callgsubr
          299 -74 callgsubr
          2 -13 rlineto
          -609 222 -62 callsubr
          1217 72 rmoveto
          -1002 -80 128 -172 -224 hlineto
          -97 callsubr
          236 hlineto
          -4 -8 -2 -9 -10 vvcurveto
          -25 13 -31 15 -34 vhcurveto
          28 -63 rlineto
          83 130 194 hlineto
          -99 42 83 -53 95 -103 callsubr
          vlineto
          endchar
        </CharString>
        <CharString name="dvK_SS_VA">
          539 273 578 -62 callsubr
          841 72 rmoveto
          -601 -80 393 -8 callsubr
          -76 -60 -33 -51 -35 hvcurveto
          -193 hlineto
          -97 callsubr
          212 hlineto
          -2 -12 -1 -12 -12 vvcurveto
          -126 96 -70 105 69 52 26 40 33 vhcurveto
          -155 97 -14 callsubr
        </CharString>
        <CharString name="dvK_SS_YA">
          559 927 -106 callsubr
          -654 8 -62 callsubr
          236 72 rmoveto
          -80 145 vlineto
          -81 callgsubr
          -34 -20 -30 -43 -22 vhcurveto
          -229 hlineto
          -97 callsubr
          191 hlineto
          -131 33 94 -71 109 -103 callsubr
          80 vlineto
          endchar
        </CharString>
        <CharString name="dvK_S_DDA">
          505 273 578 -62 callsubr
          668 -8 75 callgsubr
          -77 -69 -31 -69 -18 hvcurveto
          -199 hlineto
          -97 callsubr
          249 hlineto
          19 -68 72 -28 95 -3 rrcurveto
          -94 callsubr
        </CharString>
        <CharString name="dvK_S_P_LA">
          1452 1819 469 rmoveto
          -50 callgsubr
          -100 -65 -71 -105 -10 hvcurveto
          -27 -29 -36 -16 -41 103 callsubr
          710 vlineto
          -986 -231 rmoveto
          -80 callsubr
          155 -195 vlineto
          -13 1 -12 1 -11 vhcurveto
          -574 87 callsubr
          1587 213 rmoveto
          -2051 -58 callgsubr
          47 43 55 33 39 -11 -42 20 vhcurveto
          -36 -73 hlineto
          -101 callsubr
          159 hlineto
          -59 28 56 -26 77 hhcurveto
          46 40 13 20 34 hvcurveto
          -122 21 91 -85 135 -78 callgsubr
        </CharString>
        <CharString name="dvK_S_P_RA">
          978 1345 -36 callgsubr
          -512 -231 rmoveto
          -80 callsubr
          178 -179 vlineto
          -19 1 -17 3 -16 vhcurveto
          -599 87 callsubr
          1114 213 rmoveto
          -1578 -58 callgsubr
          47 43 55 33 39 -11 -42 20 vhcurveto
          -36 -73 hlineto
          -101 callsubr
          192 hlineto
          24 -36 36 -20 47 -7 -38 callsubr
        </CharString>
        <CharString name="dvK_S_TA">
          550 273 578 -62 callsubr
          852 72 rmoveto
          -601 -80 394 -112 -96 hlineto
          -84 -62 -22 -38 -42 hvcurveto
          -242 hlineto
          -97 callsubr
          240 hlineto
          -10 -27 -5 -30 -32 130 callgsubr
          -6 -9 0 -6 hhcurveto
          -91 -42 -4 callgsubr
          88 -377 96 31 callgsubr
        </CharString>
        <CharString name="dvK_S_TTA">
          460 273 578 -62 callsubr
          656 -8 rmoveto
          106 80 -525 -80 322 -107 -20 hlineto
          -77 -1 -63 -24 -43 -40 rrcurveto
          -237 hlineto
          -97 callsubr
          234 hlineto
          -9 -24 -5 -27 -28 vvcurveto
          -141 106 -83 158 54 62 16 17 33 vhcurveto
          88 vlineto
          -19 -30 -60 -20 -53 hhcurveto
          -100 -71 48 91 95 76 51 114 20 39 -2 -4 19 hvcurveto
          endchar
        </CharString>
        <CharString name="dvK_TA">
          367 942 153 callsubr
          -966 -80 471 -115 -381 -81 64 vlineto
          41 hlineto
          -43 -36 -21 -53 -64 vvcurveto
          -136 90 -83 129 12 142 callsubr
          83 62 callgsubr
          -1 -6 hhcurveto
          -86 -46 54 85 98 57 53 115 hvcurveto
          70 -375 97 267 hlineto
          63 53 45 59 73 53 -48 -83 -93 -47 -46 -70 -8 -12 1 1 -7 vhcurveto
          -80 vlineto
          -2 7 16 -1 8 hhcurveto
          122 88 84 137 119 -82 89 -127 -54 -43 -18 -29 -29 hvcurveto
          164 vlineto
          endchar
        </CharString>
        <CharString name="dvK_THA">
          686 1054 -19 callsubr
          85 callgsubr
          -86 46 callgsubr
          -26 6 -16 3 -10 vhcurveto
          93 hlineto
          -3 9 -5 10 24 155 callsubr
          -116 -34 vhcurveto
          66 -22 -52 46 -75 140 callgsubr
          131 133 80 -597 -80 367 -297 vlineto
          -107 callgsubr
          60 40 43 54 45 25 -27 -39 10 vhcurveto
          -157 19 114 -78 123 51 callsubr
          96 570 107 80 vlineto
          endchar
        </CharString>
        <CharString name="dvK_TTA">
          482 440 570 rmoveto
          415 -107 -20 hlineto
          -56 -1 -48 -13 -39 -22 rrcurveto
          36 -33 -50 19 -56 -15 callgsubr
          511 133 rmoveto
          106 80 -1081 -58 callgsubr
          45 43 54 37 27 -13 -26 19 vhcurveto
          -24 -34 -14 -42 -47 -72 callgsubr
        </CharString>
        <CharString name="dvK_T_RA">
          561 928 388 rmoveto
          56 -47 -66 29 -76 hhcurveto
          -32 -32 -5 -7 -28 hvcurveto
          14 -27 -32 7 -35 -15 callgsubr
          133 488 35 callgsubr
          -1160 -58 callgsubr
          45 43 54 16 15 -3 -6 13 vhcurveto
          -49 vlineto
          10 6 13 6 14 6 2 -3 rcurveline
          6 6 rlineto
          12 32 38 10 38 hhcurveto
          74 -1 53 -38 33 -52 -294 -181 rcurveline
          73 callgsubr
        </CharString>
        <CharString name="dvK_T_VA">
          893 1261 307 rmoveto
          -99 callgsubr
          -39 -35 -9 -15 -29 hvcurveto
          -186 hlineto
          -54 -45 -9 -16 -36 hvcurveto
          33 -34 -48 16 -51 -15 callgsubr
          133 821 35 callgsubr
          -1493 -58 callgsubr
          45 43 54 29 25 -10 -18 18 vhcurveto
          -31 -39 -15 -49 -56 vvcurveto
          -133 80 -99 138 13 11 1 1 9 vhcurveto
          -68 callsubr
          97 hlineto
          -14 -27 -7 -31 -34 -66 callsubr
        </CharString>
        <CharString name="dvK_T_YA">
          865 1242 -106 callsubr
          -802 hmoveto
          529 44 callgsubr
          -28 -14 -25 -29 -21 vhcurveto
          21 -24 -46 27 -72 hhcurveto
          -51 -43 -9 -16 -35 hvcurveto
          34 -35 -43 15 -54 -15 callgsubr
          1009 213 rmoveto
          -1473 -58 callgsubr
          45 43 54 29 25 -11 -16 18 vhcurveto
          -31 -39 -16 -50 -56 90 callgsubr
          96 62 50 89 15 13 -2 -4 11 hvcurveto
          -13 -2 rlineto
          -162 20 103 -88 122 -103 callsubr
          vlineto
          endchar
        </CharString>
        <CharString name="dvK_VA">
          558 926 307 rmoveto
          -99 callgsubr
          -43 -37 -10 -19 -32 hvcurveto
          19 -29 -37 10 -41 -15 callgsubr
          133 483 35 callgsubr
          -1155 -58 callgsubr
          45 43 54 22 19 -6 -9 15 vhcurveto
          -18 -30 -10 -35 -39 -66 callsubr
        </CharString>
        <CharString name="dvK_V_YA">
          904 1272 -106 callsubr
          -426 -95 rmoveto
          4 -17 -25 3 -24 hhcurveto
          -44 -40 -11 -20 -32 hvcurveto
          20 -30 -38 11 -43 -15 callgsubr
          133 559 -74 callgsubr
          8 -61 19 -50 27 -40 rrcurveto
          -30 -31 -38 -20 -53 hhcurveto
          -73 -55 45 71 69 50 46 64 22 19 -2 -7 18 hvcurveto
          633 260 rmoveto
          -1503 -58 callgsubr
          45 43 54 25 20 -7 -12 16 vhcurveto
          -16 -29 -9 -34 -37 vvcurveto
          141 callsubr
          82 61 33 42 41 vhcurveto
          -30 40 48 -15 51 -103 callsubr
          vlineto
          endchar
        </CharString>
        <CharString name="dvK_YA">
          642 1011 -106 callsubr
          -571 hmoveto
          298 147 callsubr
          55 -25 -49 37 -67 140 callgsubr
          778 211 rmoveto
          -1242 -58 callgsubr
          40 43 54 41 24 -22 -33 12 vhcurveto
          2 -11 2 -11 3 -10 rrcurveto
          -1 vlineto
          0 vlineto
          -128 34 93 -69 108 -103 callsubr
          vlineto
          endchar
        </CharString>
        <CharString name="dvKx">
          -7 161 17 -101 callgsubr
          279 553 rmoveto
          111 80 -575 -58 callgsubr
          45 43 54 38 29 -17 -26 16 122 callsubr
        </CharString>
        <CharString name="dvKxA">
          231 161 17 -101 callgsubr
          646 553 rmoveto
          80 -831 -80 367 -297 vlineto
          -60 -46 -43 -54 -64 -41 47 61 70 47 44 65 6 8 -1 -1 5 vhcurveto
          80 vlineto
          2 -7 -8 0 -8 hhcurveto
          -114 -91 -73 -122 -109 76 -76 112 17 callgsubr
        </CharString>
        <CharString name="dvKx_BA">
          611 161 17 -101 callgsubr
          818 285 rmoveto
          -70 callgsubr
          -60 -51 -18 -31 -38 hvcurveto
          20 -31 -38 11 -43 -15 callgsubr
          133 539 vlineto
          -68 -387 -37 callsubr
          -1211 -58 callgsubr
          45 43 54 29 24 -10 -17 17 vhcurveto
          -12 -26 -6 -30 -32 44 callsubr
        </CharString>
        <CharString name="dvKx_KxA">
          780 892 273 rmoveto
          -105 callgsubr
          -44 -40 -11 -20 -33 hvcurveto
          26 -32 -44 15 -49 -15 callgsubr
          133 452 vlineto
          464 hmoveto
          80 -1380 -80 367 -297 vlineto
          -105 callgsubr
          -114 -91 -73 -122 -109 76 -76 112 48 38 18 27 28 hvcurveto
          -137 39 vlineto
          -11 -11 -6 -15 -17 vvcurveto
          -34 25 -25 34 5 4 1 1 5 vhcurveto
          -1 4 5 -1 5 hhcurveto
          33 27 25 34 33 -27 27 -33 -4 -4 0 -1 -4 hvcurveto
          285 60 callgsubr
          32 25 -12 -19 17 vhcurveto
          -15 -27 -8 -32 -37 vvcurveto
          -109 76 -76 112 48 38 18 27 28 vhcurveto
          -92 callsubr
        </CharString>
        <CharString name="dvKx_MA">
          561 161 17 -101 callgsubr
          769 337 rmoveto
          -195 216 195 hlineto
          -490 hmoveto
          200 -106 hlineto
          12 -26 -29 6 -32 -15 callgsubr
          696 213 rmoveto
          -1160 -58 callgsubr
          45 43 54 38 29 -17 -26 16 vhcurveto
          18 18 rlineto
          -29 vlineto
          -60 callsubr
          hlineto
          endchar
        </CharString>
        <CharString name="dvKx_PHA">
          801 161 17 -101 callgsubr
          761 363 rmoveto
          -64 callsubr
          198 213 vlineto
          -482 hmoveto
          172 -96 hlineto
          5 -18 -20 3 -21 -15 callgsubr
          937 133 rmoveto
          80 -1401 -80 367 -297 vlineto
          -107 callgsubr
          60 45 43 54 31 25 -11 -19 17 vhcurveto
          -2 vlineto
          -142 67 -53 115 57 42 20 32 29 vhcurveto
          -100 callgsubr
        </CharString>
        <CharString name="dvKx_PHxA">
          803 161 17 -101 callgsubr
          528 61 -101 callgsubr
          234 302 rmoveto
          -64 callsubr
          198 213 vlineto
          -483 hmoveto
          173 -96 hlineto
          5 -19 -20 3 -21 -15 callgsubr
          938 133 rmoveto
          80 -1402 -80 367 -297 vlineto
          -107 callgsubr
          60 45 43 54 32 25 -12 -19 17 vhcurveto
          -1 vlineto
          -142 67 -53 115 57 42 20 32 29 vhcurveto
          -100 callgsubr
        </CharString>
        <CharString name="dvKx_R">
          -3 296 -69 -101 callgsubr
          154 639 rmoveto
          122 80 -596 -80 376 -297 hlineto
          -60 callgsubr
          38 28 -17 -26 17 122 callsubr
        </CharString>
        <CharString name="dvKx_RA">
          241 293 -34 -101 callgsubr
          523 604 rmoveto
          80 -840 -80 376 -297 vlineto
          -60 -45 -43 -54 -65 -40 47 61 70 47 44 65 6 7 -1 -1 6 vhcurveto
          80 vlineto
          2 -7 -8 0 -8 hhcurveto
          -114 -91 -73 -122 -98 62 -69 91 -13 hvcurveto
          -134 -142 rlineto
          -39 callsubr
        </CharString>
        <CharString name="dvKx_TA">
          574 161 17 -101 callgsubr
          781 441 rmoveto
          -95 hlineto
          -62 -50 -12 -22 -39 hvcurveto
          34 -35 -46 24 -62 -15 callgsubr
          133 502 35 callgsubr
          -1174 -58 callgsubr
          45 43 54 38 28 -16 -27 21 vhcurveto
          -24 -36 -11 -44 -49 -83 callsubr
        </CharString>
        <CharString name="dvL">
          -62 344 83 rmoveto
          -87 callgsubr
          62 37 29 -21 -20 13 vhcurveto
          51 58 rlineto
          36 -30 -43 25 -62 hhcurveto
          -73 -53 -29 callgsubr
          -110 -67 -86 -122 9 callsubr
          hvcurveto
          -368 566 rmoveto
          537 80 -537 hlineto
          endchar
        </CharString>
        <CharString name="dvLA">
          191 766 -19 callsubr
          -790 -80 582 -101 hlineto
          5 -15 -17 3 -19 hhcurveto
          -75 -52 -107 callsubr
          38 35 65 16 15 -3 -4 13 vhcurveto
          -392 -61 callsubr
          vlineto
          endchar
        </CharString>
        <CharString name="dvLL">
          248 555 90 rmoveto
          114 89 76 118 112 -83 77 -122 -76 -43 -27 -37 -30 hvcurveto
          23 callgsubr
          -3 305 rmoveto
          68 40 -45 -66 -68 -41 -47 -66 155 callgsubr
          -309 -226 rmoveto
          56 callgsubr
          -267 401 rmoveto
          848 80 -848 hlineto
          endchar
        </CharString>
        <CharString name="dvLLA">
          248 660 284 rmoveto
          -68 -41 -47 -66 -50 -45 29 33 -28 vhcurveto
          72 21 15 92 86 hhcurveto
          68 40 -45 -66 hvcurveto
          -417 -115 rmoveto
          56 callgsubr
          581 401 rmoveto
          80 -848 -80 539 -100 vlineto
          -53 -7 -33 -24 -25 -30 rrcurveto
          23 callgsubr
          114 89 76 118 95 -59 69 -92 20 hvcurveto
          102 vlineto
          endchar
        </CharString>
        <CharString name="dvLL_YA">
          681 1049 -106 callsubr
          -496 -401 rmoveto
          155 callgsubr
          52 35 -26 -41 14 hvcurveto
          2 -6 1 -6 2 -6 rrcurveto
          1 -8 1 -9 -9 vvcurveto
          -68 -41 -47 -66 vhcurveto
          -310 hmoveto
          56 callgsubr
          1013 481 rmoveto
          -1280 -80 800 44 callgsubr
          -37 -26 -34 -53 -22 vhcurveto
          51 -35 -62 31 -77 hhcurveto
          -76 -43 -27 -37 -30 hvcurveto
          23 callgsubr
          76 66 34 58 34 hvcurveto
          -41 44 55 -22 61 -103 callsubr
          vlineto
          endchar
        </CharString>
        <CharString name="dvL_BA">
          561 861 183 -37 callsubr
          -1161 -80 953 11 callgsubr
          -63 -53 -20 -34 -39 hvcurveto
          19 -26 -34 12 -43 hhcurveto
          -73 -53 -107 callsubr
          38 35 62 20 17 -6 -9 14 vhcurveto
          -14 -28 -7 -32 -35 44 callsubr
        </CharString>
        <CharString name="dvL_BHA">
          495 864 90 callsubr
          -15 -15 -2 -4 -14 vhcurveto
          1 -537 -80 507 99 callsubr
          -53 vlineto
          10 -22 -26 6 -30 hhcurveto
          -73 -53 -107 callsubr
          38 35 62 32 26 -16 -17 15 vhcurveto
          -14 69 callsubr
        </CharString>
        <CharString name="dvL_DA">
          508 966 54 callgsubr
          -1108 -80 893 -90 -95 vlineto
          -64 -51 -16 -27 -38 hvcurveto
          24 -29 -37 16 -49 hhcurveto
          -73 -53 -107 callsubr
          38 35 62 23 20 -8 -11 15 vhcurveto
          -18 -31 -9 -36 -39 vvcurveto
          83 callsubr
          vhcurveto
          -80 callgsubr
          endchar
        </CharString>
        <CharString name="dvL_DDA">
          485 921 160 callgsubr
          -1085 -80 849 -72 -90 hlineto
          -53 -49 -15 -32 -32 hvcurveto
          16 -25 -31 10 -39 hhcurveto
          -73 -53 -107 callsubr
          38 35 62 22 20 -8 -10 14 vhcurveto
          -1 -7 0 -7 -7 vvcurveto
          76 callgsubr
          vhcurveto
          -94 callsubr
        </CharString>
        <CharString name="dvL_DDHA">
          487 921 570 rmoveto
          142 80 -1087 -80 849 -98 hlineto
          1 -12 -12 1 -11 hhcurveto
          -64 -1 -55 -15 -44 -27 rrcurveto
          28 -29 -39 18 -53 hhcurveto
          -73 -53 -107 callsubr
          38 35 62 24 20 -9 -11 15 vhcurveto
          -28 -36 -15 -45 -52 vvcurveto
          -136 107 -93 146 130 79 69 91 -8 callgsubr
        </CharString>
        <CharString name="dvL_D_RA">
          494 952 54 callgsubr
          -1094 -80 879 -90 -95 vlineto
          -60 -49 -14 -24 -37 hvcurveto
          21 -27 -35 14 -46 hhcurveto
          -73 -53 -107 callsubr
          38 35 62 18 16 -5 -8 14 vhcurveto
          -21 -32 -10 -38 -42 vvcurveto
          -102 64 -82 107 -16 vhcurveto
          58 callgsubr
          endchar
        </CharString>
        <CharString name="dvL_GA">
          493 1068 -19 callsubr
          -1092 -80 633 -116 hlineto
          14 -27 -34 9 -36 hhcurveto
          -74 -58 -107 callsubr
          44 35 61 37 41 -21 -20 13 vhcurveto
          2 2 rlineto
          -11 55 callsubr
        </CharString>
        <CharString name="dvL_HA">
          473 941 92 callsubr
          108 80 -1073 -80 869 -79 -166 vlineto
          -39 -34 -10 -19 -24 hvcurveto
          9 -22 -25 6 -29 hhcurveto
          -73 -53 -107 callsubr
          38 35 62 13 12 -3 -4 11 vhcurveto
          -7 vlineto
          -62 42 -35 27 -16 vhcurveto
          -43 -32 -22 -45 -46 vvcurveto
          -88 80 -95 174 152 callgsubr
          vhcurveto
          -74 callsubr
        </CharString>
        <CharString name="dvL_JA">
          572 1148 -19 callsubr
          -1172 -80 964 -115 -345 3 callsubr
          19 -7 -9 14 vhcurveto
          -9 11 176 callgsubr
          81 -10 47 -41 -71 -56 callgsubr
        </CharString>
        <CharString name="dvL_JxA">
          571 629 -25 -101 callgsubr
          518 675 rmoveto
          -1171 -80 963 -115 -344 3 callsubr
          18 -7 -9 14 vhcurveto
          -9 12 176 callgsubr
          80 -10 47 -42 -70 -56 callgsubr
        </CharString>
        <CharString name="dvL_KA">
          729 1305 153 callsubr
          -1329 -80 865 -297 vlineto
          -105 callgsubr
          -47 -42 -12 -23 -35 hvcurveto
          24 -28 -37 16 -49 hhcurveto
          -73 -53 -107 callsubr
          38 35 62 22 19 -7 -11 15 vhcurveto
          -18 -28 -10 -35 -41 vvcurveto
          -109 76 -76 112 48 38 18 27 28 vhcurveto
          -92 callsubr
        </CharString>
        <CharString name="dvL_KHA">
          771 1346 -19 callsubr
          -1370 -80 763 -129 hlineto
          -50 -26 -34 -64 -6 vhcurveto
          88 -5 -76 38 -67 hhcurveto
          -74 -47 -107 callsubr
          32 35 51 39 19 -19 -31 4 vhcurveto
          -77 vlineto
          211 -272 -89 callsubr
        </CharString>
        <CharString name="dvL_K_YA">
          1082 1450 -106 callsubr
          -518 hmoveto
          245 44 callgsubr
          -22 -9 -20 -17 -18 vhcurveto
          31 -26 -48 27 -62 -15 callgsubr
          725 213 rmoveto
          -1681 -80 859 -297 hlineto
          -105 callgsubr
          -45 -42 -11 -22 -33 hvcurveto
          23 -28 -36 15 -48 hhcurveto
          -73 -53 -107 callsubr
          38 35 62 20 17 -6 -9 14 vhcurveto
          -18 -29 -11 -36 -42 vvcurveto
          -109 76 -76 112 48 38 18 27 28 vhcurveto
          -137 162 callsubr
          63 48 41 57 29 20 -9 -15 16 vhcurveto
          -17 -5 -18 -4 -20 -3 rrcurveto
          -162 20 103 -88 122 -103 callsubr
          vlineto
          endchar
        </CharString>
        <CharString name="dvL_LA">
          679 1254 -19 callsubr
          -1278 -80 1070 56 callsubr
          -39 -33 -11 -19 -28 hvcurveto
          21 -27 -35 14 -46 12 callsubr
          18 -6 -10 14 vhcurveto
          -18 -33 -9 -40 -46 vvcurveto
          9 callsubr
          vhcurveto
          -96 callsubr
        </CharString>
        <CharString name="dvL_L_YA">
          1046 1414 -106 callsubr
          87 callgsubr
          -1645 -80 1165 44 callgsubr
          -26 -12 -24 -25 -19 vhcurveto
          38 -30 -46 24 -60 hhcurveto
          -73 -53 -29 callgsubr
          -40 -34 -11 -21 -28 hvcurveto
          23 -27 -36 14 -47 hhcurveto
          -73 -53 -107 callsubr
          38 35 62 22 19 -7 -11 15 vhcurveto
          -17 -32 -9 -40 -45 vvcurveto
          9 callsubr
          vhcurveto
          -88 callsubr
          62 23 20 -8 -11 15 vhcurveto
          -15 -4 -17 -4 -18 -3 rrcurveto
          -162 20 103 -88 122 -103 callsubr
          vlineto
          endchar
        </CharString>
        <CharString name="dvL_MA">
          505 874 -29 callsubr
          206 80 rmoveto
          -1104 -80 608 -109 hlineto
          10 -22 -26 6 -30 hhcurveto
          -73 -53 -107 callsubr
          38 35 62 32 26 -16 -17 15 vhcurveto
          -16 vlineto
          -60 callsubr
          hlineto
          endchar
        </CharString>
        <CharString name="dvL_PA">
          502 869 -46 callsubr
          209 80 rmoveto
          -1102 -80 583 -100 hlineto
          5 -16 -18 2 -19 hhcurveto
          -73 -53 -107 callsubr
          38 35 62 18 17 -5 -8 13 vhcurveto
          -11 vlineto
          -142 69 -59 113 vhcurveto
          -42 callgsubr
        </CharString>
        <CharString name="dvL_PHA">
          759 879 50 callgsubr
          -1358 -80 593 -103 vlineto
          6 -18 -21 4 -24 hhcurveto
          -73 -53 -107 callsubr
          38 35 62 23 20 -8 -11 15 vhcurveto
          -8 vlineto
          -142 67 -53 115 57 42 20 32 29 vhcurveto
          -100 callgsubr
        </CharString>
        <CharString name="dvL_SA">
          634 804 118 callsubr
          181 -231 vlineto
          207 311 rmoveto
          -1240 -80 756 141 callgsubr
          -60 -5 vhcurveto
          85 -8 -76 40 -68 hhcurveto
          -73 -50 -107 callsubr
          35 35 57 42 23 -28 -36 1 vhcurveto
          -57 vlineto
          -101 callsubr
          163 -259 96 31 callgsubr
        </CharString>
        <CharString name="dvL_TA">
          501 1076 -19 callsubr
          -1100 -80 892 -112 -95 hlineto
          -58 -48 -11 -18 -38 hvcurveto
          29 -29 -40 19 -54 hhcurveto
          -73 -53 -107 callsubr
          38 35 62 22 20 -8 -10 14 vhcurveto
          -34 -39 -16 -51 -59 -83 callsubr
        </CharString>
        <CharString name="dvL_THA">
          570 513 -19 callsubr
          -537 -80 537 hlineto
          134 -113 rmoveto
          -5 13 -8 15 28 vvcurveto
          34 18 30 43 41 18 -31 -38 -60 -49 -38 -97 -31 vhcurveto
          33 37 -14 16 -16 14 -20 11 rlinecurve
          347 193 rmoveto
          106 callsubr
          128 callsubr
          -98 -56 -63 -72 -21 3 -15 4 -13 vhcurveto
          3 -13 -14 1 -15 hhcurveto
          -73 -53 -107 callsubr
          38 35 62 30 24 -13 -16 15 vhcurveto
          -25 -7 -27 -7 -30 -7 rrcurveto
          -165 15 116 -81 125 43 callgsubr
        </CharString>
        <CharString name="dvL_TH_YA">
          1011 512 -19 callsubr
          -536 -80 536 hlineto
          867 -228 -106 callgsubr
          -408 80 rmoveto
          -80 135 -74 callgsubr
          5 -41 10 -36 15 -31 rrcurveto
          -46 -49 -65 -29 -69 hhcurveto
          -77 -68 35 73 -20 hvcurveto
          -4 callsubr
          128 callsubr
          -98 -56 -63 -72 -14 2 -15 2 -10 vhcurveto
          93 hlineto
          -2 7 -2 13 10 vvcurveto
          34 18 30 43 41 18 -31 -38 -67 -61 -39 -122 -34 vhcurveto
          46 -16 -41 57 -79 hhcurveto
          -52 -52 -28 -63 -16 hvcurveto
          55 -12 -48 37 -77 hhcurveto
          -110 -67 -86 -122 -152 97 -112 155 -102 callsubr
          83 36 27 40 39 18 -30 -42 6 vhcurveto
          0 vlineto
          -152 29 115 -63 129 hhcurveto
          94 76 39 51 58 hvcurveto
          -49 44 60 -25 66 -103 callsubr
          80 vlineto
          endchar
        </CharString>
        <CharString name="dvL_TTA">
          421 890 570 rmoveto
          106 80 -1020 -80 818 -107 -20 hlineto
          -56 -1 -48 -13 -39 -22 rrcurveto
          30 -29 -41 20 -55 hhcurveto
          -73 -53 -107 callsubr
          38 35 62 24 21 -9 -12 15 vhcurveto
          -31 -37 -17 -47 -52 -72 callgsubr
        </CharString>
        <CharString name="dvL_TTHA">
          490 894 262 rmoveto
          -74 -54 -49 -81 -83 -55 49 75 85 69 34 68 vhcurveto
          81 -1 55 -39 -80 vvcurveto
          172 308 rmoveto
          80 -1090 -80 755 -111 vlineto
          -36 -3 -36 -9 -32 -16 rrcurveto
          28 -29 -39 18 -53 12 callsubr
          18 -7 -9 15 vhcurveto
          -26 -31 -16 -39 -50 vvcurveto
          -123 96 -80 139 vhcurveto
          142 2 93 81 119 57 callsubr
        </CharString>
        <CharString name="dvL_VA">
          521 1097 -19 callsubr
          -1121 -80 913 -73 callsubr
          -49 -43 -14 -24 -34 hvcurveto
          20 -27 -35 13 -44 hhcurveto
          -73 -53 -107 callsubr
          38 35 62 18 17 -5 -8 13 vhcurveto
          -17 -29 -9 -35 -37 -66 callsubr
        </CharString>
        <CharString name="dvL_V_DDA">
          799 1234 160 callgsubr
          -1398 -80 1162 170 callsubr
          -30 8 -24 14 -20 hvcurveto
          -68 -21 -49 -50 -79 hhcurveto
          -67 -52 45 71 69 50 46 64 22 19 -2 -7 18 hvcurveto
          104 callgsubr
          -50 -43 -14 -25 -34 hvcurveto
          21 -27 -35 13 -45 hhcurveto
          -73 -53 -107 callsubr
          38 35 62 19 17 -6 -8 14 vhcurveto
          -17 -29 -9 -34 -37 vvcurveto
          -127 98 -69 117 126 65 84 66 27 vhcurveto
          29 -10 35 -6 38 -1 rrcurveto
          88 -3 35 -15 -47 vvcurveto
          -48 -43 -29 -72 -48 -62 13 21 -42 vhcurveto
          -88 vlineto
          -17 39 59 -10 53 hhcurveto
          133 81 69 92 95 -66 45 -120 3 hvcurveto
          -92 3 -38 14 42 154 callsubr
          endchar
        </CharString>
        <CharString name="dvL_YA">
          552 920 -106 callsubr
          87 callgsubr
          -1151 -80 671 44 callgsubr
          -25 -12 -24 -24 -20 vhcurveto
          37 -27 -49 25 -59 hhcurveto
          -73 -53 -107 callsubr
          38 35 62 22 20 -8 -11 15 vhcurveto
          -15 -4 -17 -4 -19 -3 rrcurveto
          -162 20 103 -88 122 -103 callsubr
          vlineto
          endchar
        </CharString>
        <CharString name="dvM">
          -199 466 356 rmoveto
          -267 214 178 80 -401 -86 callsubr
          267 hlineto
          endchar
        </CharString>
        <CharString name="dvMA">
          25 -24 570 rmoveto
          128 -220 hlineto
          -60 callsubr
          80 -624 hlineto
          418 -80 rmoveto
          -216 -195 216 vlineto
          endchar
        </CharString>
        <CharString name="dvM_BA">
          411 779 302 rmoveto
          -70 callgsubr
          -106 -80 -58 -86 -27 hvcurveto
          -202 214 580 hlineto
          -68 -387 -37 callsubr
          -1011 -86 callsubr
          193 hlineto
          -116 9 97 -76 109 hhcurveto
          75 60 31 43 37 hvcurveto
          -153 96 -82 callsubr
        </CharString>
        <CharString name="dvM_BHA">
          342 199 570 rmoveto
          89 callsubr
          512 294 rmoveto
          -294 -184 172 172 callsubr
          -14 -14 -2 -3 -13 vhcurveto
          -387 -86 callsubr
          192 102 callsubr
          184 -277 126 callsubr
          80 hlineto
          endchar
        </CharString>
</ttFont>
